<svg id="Groupe_20" data-name="Groupe 20" xmlns="http://www.w3.org/2000/svg" width="301.83" height="337.699" viewBox="0 0 301.83 337.699">
  <path id="Tracé_422" data-name="Tracé 422" d="M370.823,649.159c2.949,10.84,11.56,18.428,20.543,24.874q1.881,1.35,3.764,2.638c.009,0,.017.012.026.016.06.041.121.082.177.124l.775.529-.141.067s-.139.078.013.012c.045-.02.092-.038.137-.058,5.218-2.23,10.529-4.624,14.528-8.8,4.148-4.338,6.573-11.142,4.326-16.84a11.082,11.082,0,0,0-1.112-2.115c-.182-.276-.378-.541-.583-.8a10.685,10.685,0,0,0-10.432-4.093,11.211,11.211,0,0,0-8.473,7.637c-.66-6.51,4.407-11.963,9.282-15.987s10.421-8.4,11.364-14.875a13.135,13.135,0,0,0-2.809-9.9c-.067-.085-.133-.17-.2-.253a15.822,15.822,0,0,0-10.325-5.869c-7.48-.824-14.745,3.371-20.179,8.881C372.757,623.217,367.47,636.834,370.823,649.159Z" transform="translate(-353.267 -340.424)" fill="#f2f2f2"/>
  <path id="Tracé_423" data-name="Tracé 423" d="M392.706,638.645a29.79,29.79,0,0,0-3.272,7.645,26.541,26.541,0,0,0-.82,7.42,33.632,33.632,0,0,0,3.979,14.649,46.218,46.218,0,0,0,6.6,9.339q1.881,1.35,3.764,2.638c.008,0,.017.012.026.016.06.041.121.082.177.124l.775.529s-.28.145-.128.08c.045-.02.092-.038.137-.058a26.467,26.467,0,0,1,7.734-22.05,23.984,23.984,0,0,1,10.009-5.706c-.182-.276-.378-.541-.583-.8a24.41,24.41,0,0,0-4.172,1.673,25.473,25.473,0,0,0-11.2,11.438,28.19,28.19,0,0,0-2.757,14.721c-.214-.206-.429-.416-.637-.625a46.822,46.822,0,0,1-9.871-13.6,31.438,31.438,0,0,1-2.96-14.168,28.058,28.058,0,0,1,5.121-14.625,61.2,61.2,0,0,1,11.214-12.245,66.707,66.707,0,0,1,13.947-9.123.525.525,0,0,0,.243-.657.43.43,0,0,0-.2-.253.34.34,0,0,0-.311.014c-.615.3-1.226.6-1.832.922a67.793,67.793,0,0,0-14.047,9.817A56.994,56.994,0,0,0,392.706,638.645Z" transform="translate(-361.091 -344.089)" fill="#fff"/>
  <path id="Tracé_441" data-name="Tracé 441" d="M17.779-.3C27.52-.538,35.216,7.679,34.967,18.055S26.62,37.039,16.879,37.279-.558,29.3-.31,18.927,8.037-.056,17.779-.3Z" transform="translate(85.591 118.874) rotate(-28.663)" fill="#2f2e41"/>
  <ellipse id="Ellipse_207" data-name="Ellipse 207" cx="14.338" cy="15.191" rx="14.338" ry="15.191" transform="translate(95.329 116.487)" fill="#ffb8b8"/>
  <path id="Tracé_424" data-name="Tracé 424" d="M514.855,425.6l-1.844,5.526,2.712,16.631L526.9,457.6l8.876-14.541L531.5,429.3l-3.205-3.831h0a2.609,2.609,0,0,0-.589-1.911,2.316,2.316,0,0,0-1.724-.841l-7-.144a4.309,4.309,0,0,0-4.13,3.031Z" transform="translate(-412.876 -270.685)" fill="#ccc"/>
  <path id="Tracé_425" data-name="Tracé 425" d="M225.574,515.656h7.157l.988-29.247h-8.147Z" transform="translate(-93.894 -185.566)" fill="#ffb8b8"/>
  <path id="Tracé_426" data-name="Tracé 426" d="M0,0H22.492V9.207H8.69A8.96,8.96,0,0,1,0,0Z" transform="translate(152.64 337.128) rotate(179.995)" fill="#2f2e41"/>
  <path id="Tracé_427" data-name="Tracé 427" d="M139.691,515.656h7.157l3.4-29.247H139.689Z" transform="translate(-58.145 -185.566)" fill="#ffb8b8"/>
  <path id="Tracé_428" data-name="Tracé 428" d="M0,0H22.492V9.207H8.69A8.96,8.96,0,0,1,0,0Z" transform="translate(102.506 337.128) rotate(179.995)" fill="#2f2e41"/>
  <path id="Tracé_429" data-name="Tracé 429" d="M582.554,378.037a6.244,6.244,0,0,1,2.763,4.373,6.476,6.476,0,0,1-1.39,5.052l5.919,12.754-6.438,5.7-8.12-18.135a6.531,6.531,0,0,1-.452-8.292,5.682,5.682,0,0,1,7.718-1.453Z" transform="translate(-438.081 -253.344)" fill="#ffb8b8"/>
  <path id="Tracé_430" data-name="Tracé 430" d="M505.828,496.962a81.542,81.542,0,0,1-10.43-.815,4.146,4.146,0,0,1-2.942-1.923,4.639,4.639,0,0,1-.562-3.614l7.747-30.393L493.4,441.672a8.507,8.507,0,0,1,4.344-10.469l8.57-3.839,2.576,16.893,6.136,8.2a1.947,1.947,0,0,0,1.724.793,1.991,1.991,0,0,0,1.581-1.077l4.66-8.85-3.806-16.261,5.675.711a10,10,0,0,1,8.121,6.949,29.453,29.453,0,0,1,.436,16.652l-2.352,8.852L535.2,488.5a6.019,6.019,0,0,1-1.062,4.395,5.371,5.371,0,0,1-3.735,2.218,51.607,51.607,0,0,1-7.95.352c-2.409-.109-4.1-1.665-4.893-4.5a.734.734,0,0,0-1.434-.008q-.329,1.235-.724,2.751C514.761,496.162,510.766,496.962,505.828,496.962Z" transform="translate(-404.026 -272.399)" fill="#2f2e41"/>
  <path id="Tracé_431" data-name="Tracé 431" d="M554.793,431.642a5.118,5.118,0,0,1-2.074-.434,5.341,5.341,0,0,1-3.046-3.92,6.666,6.666,0,0,1,3.18-7.018l16.723-9.62-.915-3.832a3.174,3.174,0,0,1,1.124-3.175l4.312-3.394a2.644,2.644,0,0,1,2.335-.523,2.482,2.482,0,0,1,1.623,1.425l2.24,5.125a9.622,9.622,0,0,1-3.525,11.615l-18.756,12.73A5.748,5.748,0,0,1,554.793,431.642Z" transform="translate(-428.09 -261.94)" fill="#2f2e41"/>
  <path id="Tracé_432" data-name="Tracé 432" d="M489.791,622.667q-.087,0-.176-.006l-9.112-.388a2.578,2.578,0,0,1-1.841-.98,2.9,2.9,0,0,1-.608-2.086l9.248-94.266,24.27-9.351,14.292,8.569L541.5,615.5a2.789,2.789,0,0,1-1.957,3.213l-.038.01-9.328-.243a2.619,2.619,0,0,1-3.091-1.872l-19.865-73.857a.879.879,0,0,0-.873-.638.891.891,0,0,0-.813.721L492.35,620.488A2.658,2.658,0,0,1,489.791,622.667Z" transform="translate(-398.32 -306.174)" fill="#2f2e41"/>
  <path id="Tracé_433" data-name="Tracé 433" d="M507.156,369.213c-2.281,3.164-.545,8.549,3.086,9.573s7.665-2.732,7.171-6.679a7.777,7.777,0,0,0,6.532,8.842c3.971.368,7.831-2.928,8.7-7.05a11.162,11.162,0,0,0-4.371-10.992,12.156,12.156,0,0,0-11.455-1.2A22.221,22.221,0,0,0,507.156,369.213Z" transform="translate(-410.012 -247.125)" fill="#2f2e41"/>
  <path id="Tracé_434" data-name="Tracé 434" d="M496.822,340.884c-2.124-4.722-4.306-9.535-7.738-13.295s-8.4-6.349-13.264-5.463-9.056,6.09-7.978,11.194c.547,2.593-1.548,5.162-3.964,5.876s-4.99.046-7.378-.765-4.807-1.781-7.312-1.667c-5.024.229-9.224,5.268-9.4,10.592a13.9,13.9,0,0,0,7.829,12.577,16.625,16.625,0,0,0,14.6-.631A27.609,27.609,0,0,0,473,348.436c3.909-6.7,13.731-8.347,19.4-3.262a2.949,2.949,0,0,0,4.154-.353C497.56,343.58,497.414,341.488,496.822,340.884Z" transform="translate(-382.394 -232.3)" fill="#2f2e41"/>
  <path id="Tracé_435" data-name="Tracé 435" d="M697.508,269.86l-4.783-4.572c-16.985-16.523-28.2-27.247-28.2-40.606,0-10.9,7.915-19.337,18.14-19.337a19.094,19.094,0,0,1,14.842,7.383,19.094,19.094,0,0,1,14.842-7.383c10.225,0,18.14,8.437,18.14,19.337,0,13.359-11.214,24.083-28.2,40.606Z" transform="translate(-475.944 -187.814)" fill="#6c63ff"/>
  <path id="Tracé_436" data-name="Tracé 436" d="M585.05,290.485a2.4,2.4,0,0,1-1.524-2.292V182.566A5.423,5.423,0,0,1,588.779,177H738.8a5.423,5.423,0,0,1,5.254,5.566V271.63A5.423,5.423,0,0,1,738.8,277.2H597.281L587.6,289.734a2.187,2.187,0,0,1-2.55.75Zm3.729-112.248a4.218,4.218,0,0,0-4.086,4.329V288.193a1.2,1.2,0,0,0,.75,1.127,1.09,1.09,0,0,0,1.253-.369l10.032-12.992H738.8a4.218,4.218,0,0,0,4.086-4.329V182.566a4.218,4.218,0,0,0-4.086-4.329Z" transform="translate(-442.228 -177)" fill="#3f3d56"/>
  <path id="Tracé_437" data-name="Tracé 437" d="M506.335,499.891l-1.014-2.5c-3.555-8.971-5.931-14.826-3.835-19.661a6.993,6.993,0,0,1,9.409-3.894q.095.044.188.091a8.125,8.125,0,0,1,4.213,5.286,7.375,7.375,0,0,1,6.529-.058,7.753,7.753,0,0,1,3.618,9.993q-.042.1-.087.2c-2.1,4.834-7.836,6.741-16.575,9.729Z" transform="translate(-407.752 -290.002)" fill="#6c63ff"/>
  <path id="Tracé_438" data-name="Tracé 438" d="M501.781,489.227a6.08,6.08,0,0,0-3.424-3.812,5.576,5.576,0,0,0-4.957.334L482.908,477.4l-2.533,7.639,10.843,9.574a5.72,5.72,0,0,0,7.538,2.279A6.4,6.4,0,0,0,501.781,489.227Z" transform="translate(-399.292 -291.603)" fill="#ffb8b8"/>
  <path id="Tracé_439" data-name="Tracé 439" d="M484.394,475.924a2.34,2.34,0,0,1-1.3-.4l-4.506-3.018c-3.565-2.387-4.849-7.453-2.986-11.783l9.237-21.475a5.824,5.824,0,0,1,4.147-3.536,4.921,4.921,0,0,1,4.566,1.542,6.836,6.836,0,0,1,.922,7.724l-9.122,17.694,2.731,2.693a3.212,3.212,0,0,1,.682,3.313l-1.884,5.33a2.855,2.855,0,0,1-1.694,1.781A2.344,2.344,0,0,1,484.394,475.924Z" transform="translate(-396.948 -275.666)" fill="#2f2e41"/>
  <path id="Tracé_440" data-name="Tracé 440" d="M525.357,722.237h-183.3a.62.62,0,0,1,0-1.237h183.3a.62.62,0,0,1,0,1.237Z" transform="translate(-341.474 -384.538)" fill="#ccc"/>
</svg>
