<svg xmlns="http://www.w3.org/2000/svg" xmlns:xlink="http://www.w3.org/1999/xlink" width="446.263" height="323.898" viewBox="0 0 446.263 323.898">
  <defs>
    <linearGradient id="linear-gradient" x1="0.5" y1="1" x2="0.5" gradientUnits="objectBoundingBox">
      <stop offset="0" stop-color="gray" stop-opacity="0.251"/>
      <stop offset="0.54" stop-color="gray" stop-opacity="0.122"/>
      <stop offset="1" stop-color="gray" stop-opacity="0.102"/>
    </linearGradient>
    <linearGradient id="linear-gradient-2" x1="0.5" y1="1" x2="0.5" y2="0" xlink:href="#linear-gradient"/>
  </defs>
  <g id="Groupe_4" data-name="Groupe 4" transform="translate(-0.011 -0.004)">
    <path id="Tracé_1" data-name="Tracé 1" d="M91.072,356.76h38.761v51.926H93.906c-.092.537-.183,1.07-.286,1.607h36.213v41.869a.551.551,0,0,1-.18-.068q-1.528-.6-3.056-1.265c-.218-.1-.432-.2-.653-.293q-1.528-.709-3.056-1.5c-.355-.184-.71-.375-1.058-.571a63.435,63.435,0,0,1-15.24-11.659c-.134-.124-.256-.259-.382-.375-.619-.661-1.226-1.329-1.814-2.012-.222-.251-.435-.507-.653-.751-.7-.833-1.367-1.7-2.017-2.564-.1-.131-.191-.259-.286-.375a55.177,55.177,0,0,1-6.57-11.674c-.053-.124-.1-.259-.153-.375-.527-1.314-1-2.646-1.417-4.005-.176-.567-.348-1.126-.493-1.715-.053-.169-.1-.342-.141-.511-2.147-8.314-2.395-16.956-2.395-25.556v-3q.046-5.267.126-10.522.031-1.351.057-2.714.08-3.45.229-6.914c.023-.638.053-1.28.088-1.914q.023-.552.057-1.1Q90.931,358.727,91.072,356.76Z" transform="translate(-61.58 -229.806)" fill="#6c63ff" opacity="0.1"/>
    <path id="Tracé_2" data-name="Tracé 2" d="M159.443,158.8H138.18a159.206,159.206,0,0,1,11.31-15.293c3.163-3.814,6.493-7.53,9.954-11.111Z" transform="translate(-91.191 -89.665)" fill="#6c63ff" opacity="0.1"/>
    <path id="Tracé_3" data-name="Tracé 3" d="M131.328,207v54.61H92.69c0-.158.023-.319.038-.477.034-.432.069-.86.107-1.291.038-.5.088-1.006.138-1.5s.1-1.1.16-1.64.111-1.1.172-1.64.122-1.089.191-1.629.13-1.089.206-1.629c.057-.447.115-.9.18-1.348.088-.634.18-1.269.275-1.9a1.778,1.778,0,0,1,.046-.285,129,129,0,0,1,2.842-13.709,100.3,100.3,0,0,1,4.794-13.889A103.665,103.665,0,0,1,109.049,207Z" transform="translate(-63.076 -136.262)" fill="#6c63ff" opacity="0.1"/>
    <path id="Tracé_4" data-name="Tracé 4" d="M218.09,145.514V197.44h82.792V145.514Zm0,53.532v44.595c.474.094.94.188,1.409.267.63.12,1.264.229,1.91.323l.382.053c.252.041.508.075.764.105.638.09,1.276.158,1.91.218.3.03.607.053.909.079l.737.053h0c.4.03.8.053,1.2.068.244,0,.489.019.737.026s.382,0,.581,0h2.124c.328,0,.657,0,.982-.03h.019a5.944,5.944,0,0,0,.684-.026,1.694,1.694,0,0,0,.195,0,4.688,4.688,0,0,0,.565-.022.816.816,0,0,1,.13,0c.424-.026.852-.06,1.283-.1s.84-.083,1.272-.128l.867-.105a77.229,77.229,0,0,0,10.485-2.192c7.727-2.117,15.278-5.079,23-7.245,9.977-2.8,21.007-4.174,30.648-.77V199.046ZM300.882,87.7V18.569a108.16,108.16,0,0,0-26.9,3.1c-20.965,5.176-39.792,16.4-55.895,30.743V87.695h4.167v1.6H218.09v54.61h82.792V89.3H239.3V87.691ZM407.248,64.347a34.723,34.723,0,0,1-15.011-4.287c-8.915-4.764-16.042-12.128-24-18.337a111.3,111.3,0,0,0-58.091-22.688V87.7h118.18l.294-.3Zm10.767-1.877,11.417,12.316V59.23a46.322,46.322,0,0,0-11.417,3.224Zm11.417,192.245V199.046H405.086c-.061-.236-.13-.477-.206-.717.073.24.137.48.2.717H310.144V239.3c.9.657,1.791,1.351,2.674,2.05h0q1.429,1.149,2.838,2.324l.947.77c.455.375.917.751,1.375,1.107q1.379,1.092,2.777,2.162.7.54,1.406,1.062A192.141,192.141,0,0,0,345.7,263.908c1.841,1.01,3.7,1.982,5.573,2.932q1.868.946,3.762,1.854,2.842,1.363,5.729,2.628h0a213.1,213.1,0,0,0,55.765,15.961q6.409.927,12.876,1.464V254.707h.382ZM310.144,89.3v54.61H429.432V89.3Zm0,56.209V197.44H429.432V145.514ZM438.69,59.155v17.38l14.568-15.717Q446.016,59.643,438.69,59.155Zm0,86.359V197.44H554.708V145.514ZM554.3,258.833l.409-59.786H438.69v90.3a212.69,212.69,0,0,0,22.421-.267h.13q5.347-.338,10.645-.961h.08a198.466,198.466,0,0,0,54.707-14.362m50.418-119.719q-.661-1.5-1.356-3c-.863-1.877-1.772-3.7-2.712-5.522h-9.052V197.44h22.883C586.834,182.733,583.045,167.718,577.091,154.043Zm-13.12,45v51.426a73.691,73.691,0,0,0,15.813-20.961,71.113,71.113,0,0,0,7.055-30.469Zm0-68.664V143.9h8.2A146.316,146.316,0,0,0,563.971,130.383ZM485.288,69.347c-.6-.229-1.211-.458-1.818-.676a167.24,167.24,0,0,0-19.594-5.788l-22.3,24.047h0l-.435.462.286.3h79.362a170.6,170.6,0,0,0-35.5-18.348ZM523.121,89.3h-82.8l-1.627,1.46v53.149H554.708V118.157A164.111,164.111,0,0,0,523.121,89.3Z" transform="translate(-140.579 -18.56)" fill="#6c63ff" opacity="0.1"/>
    <path id="Tracé_5" data-name="Tracé 5" d="M131.328,280.39v27.061H92.69c0-.158.023-.319.038-.477.034-.432.069-.86.107-1.291.038-.5.088-1.006.138-1.5s.1-1.1.16-1.64.111-1.1.172-1.64.122-1.089.191-1.629.13-1.089.206-1.629c.057-.447.115-.9.18-1.348q.132-.952.275-1.9a1.779,1.779,0,0,1,.046-.285A129,129,0,0,1,97.044,280.4Z" transform="translate(-63.076 -182.103)" fill="#6c63ff" opacity="0.1"/>
    <path id="Tracé_6" data-name="Tracé 6" d="M91.072,356.76h38.761v51.926H93.906c-.092.537-.183,1.07-.286,1.607h36.213v41.869a.551.551,0,0,1-.18-.068q-1.528-.6-3.056-1.265c-.218-.1-.432-.2-.653-.293q-1.528-.709-3.056-1.5c-.355-.184-.71-.375-1.058-.571a63.435,63.435,0,0,1-15.24-11.659c-.134-.124-.256-.259-.382-.375-.619-.661-1.226-1.329-1.814-2.012-.222-.251-.435-.507-.653-.751-.7-.833-1.367-1.7-2.017-2.564-.1-.131-.191-.259-.286-.375a55.177,55.177,0,0,1-6.57-11.674c-.053-.124-.1-.259-.153-.375-.527-1.314-1-2.646-1.417-4.005-.176-.567-.348-1.126-.493-1.715-.053-.169-.1-.342-.141-.511-2.147-8.314-2.395-16.956-2.395-25.556v-3q.046-5.267.126-10.522.031-1.351.057-2.714.08-3.45.229-6.914c.023-.638.053-1.28.088-1.914q.023-.552.057-1.1Q90.931,358.727,91.072,356.76Z" transform="translate(-61.58 -229.806)" fill="#6c63ff" opacity="0.1"/>
    <path id="Tracé_7" data-name="Tracé 7" d="M231.277,182.921v46.787H202.13V182.921h4.156V167.08h17.058v15.841Z" transform="translate(-124.623 -104.36)" fill="#6c63ff" opacity="0.1"/>
    <rect id="Rectangle_14" data-name="Rectangle 14" width="29.143" height="51.926" transform="translate(77.507 126.95)" fill="#6c63ff" opacity="0.1"/>
    <path id="Tracé_8" data-name="Tracé 8" d="M218.09,499.37h29.143v43.168a76.631,76.631,0,0,1-10.485,2.188c-.29.041-.577.075-.867.105-.428.049-.852.094-1.276.131l-1.28.1h-.13l-.565.03h-.195c-.229,0-.455.026-.684.03h-.019c-.328,0-.653.022-.982.03h-2.7a6.115,6.115,0,0,1-.741-.03q-.588-.022-1.192-.068h0l-.737-.053c-.306-.023-.611-.053-.913-.083q-.962-.082-1.91-.214l-.764-.105-.382-.052c-.638-.094-1.272-.2-1.91-.319-.474-.083-.94-.176-1.409-.274Z" transform="translate(-140.579 -318.884)" fill="#6c63ff" opacity="0.1"/>
    <rect id="Rectangle_15" data-name="Rectangle 15" width="24.032" height="52.309" transform="translate(264.816 73.035)" fill="#6c63ff" opacity="0.1"/>
    <path id="Tracé_9" data-name="Tracé 9" d="M562.438,338.19v51.93H443.15v-22.4h63.538v13.213H538.4V338.19Z" transform="translate(-273.585 -211.24)" fill="#6c63ff" opacity="0.1"/>
    <path id="Tracé_10" data-name="Tracé 10" d="M578.766,553.856a2.194,2.194,0,0,1-.382-.023V587.9q-6.459-.522-12.872-1.46a213.384,213.384,0,0,1-55.788-15.954q-7.689-3.408-15.064-7.429a192.863,192.863,0,0,1-23.54-15.132q-2.819-2.117-5.554-4.328c-1.264-1.029-2.517-2.08-3.793-3.1-.878-.7-1.768-1.4-2.674-2.057V498.177h94.938c-.069-.24-.13-.477-.2-.717.073.24.141.477.2.717h24.346V553.83C578.513,553.834,578.64,553.845,578.766,553.856Z" transform="translate(-289.535 -317.691)" fill="#6c63ff" opacity="0.1"/>
    <path id="Tracé_11" data-name="Tracé 11" d="M910.17,171.078H894.51V166.3h7.016V152.05q.913.33,1.818.676V166.3h6.822Z" transform="translate(-558.64 -101.939)" fill="#6c63ff" opacity="0.1"/>
    <path id="Tracé_12" data-name="Tracé 12" d="M886.8,261.61H809.916a.051.051,0,0,0,.023,0H795.65V209.3h4.041v38.664h18.464v-22.9h15.259V207h15.66v18.078h15.251v22.9h22.482Z" transform="translate(-497.539 -136.262)" fill="#6c63ff" opacity="0.1"/>
    <path id="Tracé_13" data-name="Tracé 13" d="M795.65,356.76v51.926h91.157V356.76ZM911.538,469.8l.13-41.1H886.807V410.307H795.65V500.6a212.7,212.7,0,0,0,22.421-.267h.13q5.347-.338,10.645-.961h.08a198.464,198.464,0,0,0,54.707-14.362" transform="translate(-497.539 -229.806)" fill="#6c63ff" opacity="0.1"/>
    <path id="Tracé_14" data-name="Tracé 14" d="M1125.254,499.37h21.263a71.155,71.155,0,0,1-7.055,30.466A73.655,73.655,0,0,1,1123.65,550.8V517.767h1.6Z" transform="translate(-700.259 -318.884)" fill="#6c63ff" opacity="0.1"/>
    <path id="Tracé_15" data-name="Tracé 15" d="M1149.129,422.877H1127.85v-43.4h11.516C1145.321,393.155,1149.11,408.17,1149.129,422.877Z" transform="translate(-702.855 -243.997)" fill="#6c63ff" opacity="0.1"/>
    <rect id="Rectangle_16" data-name="Rectangle 16" width="12.876" height="16.4" transform="translate(275.977 87.577)" fill="#6c63ff" opacity="0.1"/>
    <rect id="Rectangle_17" data-name="Rectangle 17" width="12.876" height="3.776" transform="translate(275.977 121.571)" fill="#6c63ff" opacity="0.1"/>
    <rect id="Rectangle_18" data-name="Rectangle 18" width="12.876" height="11.017" transform="translate(275.977 126.95)" fill="#6c63ff" opacity="0.1"/>
    <rect id="Rectangle_19" data-name="Rectangle 19" width="12.876" height="16.4" transform="translate(275.977 155.565)" fill="#6c63ff" opacity="0.1"/>
    <rect id="Rectangle_20" data-name="Rectangle 20" width="12.876" height="16.4" transform="translate(275.977 189.559)" fill="#6c63ff" opacity="0.1"/>
    <path id="Tracé_16" data-name="Tracé 16" d="M750.576,626.686a1.886,1.886,0,0,1,.382.026,2.19,2.19,0,0,1-.382-.023v3.81H737.7V614.1h12.876Z" transform="translate(-461.723 -390.547)" fill="#6c63ff" opacity="0.1"/>
    <path id="Tracé_17" data-name="Tracé 17" d="M750.576,704.65v12.665q-6.463-.522-12.876-1.46v-11.2Z" transform="translate(-461.723 -447.106)" fill="#6c63ff" opacity="0.1"/>
    <rect id="Rectangle_21" data-name="Rectangle 21" width="55.181" height="1.205" transform="translate(169.565 177.675)" fill="#6c63ff" opacity="0.1"/>
    <rect id="Rectangle_22" data-name="Rectangle 22" width="55.181" height="4.617" transform="translate(169.565 180.483)" fill="#6c63ff" opacity="0.1"/>
    <rect id="Rectangle_23" data-name="Rectangle 23" width="55.181" height="7.425" transform="translate(169.565 200.235)" fill="#6c63ff" opacity="0.1"/>
    <path id="Tracé_18" data-name="Tracé 18" d="M518.607,612.08v7.425H475.446q-2.819-2.11-5.554-4.332c-1.268-1.025-2.521-2.076-3.793-3.093Z" transform="translate(-293.861 -389.285)" fill="#6c63ff" opacity="0.1"/>
    <path id="Tracé_19" data-name="Tracé 19" d="M571.821,672.17v7.444h-4.557q-7.689-3.408-15.064-7.429Z" transform="translate(-347.075 -426.819)" fill="#6c63ff" opacity="0.1"/>
    <rect id="Rectangle_24" data-name="Rectangle 24" width="10.863" height="10.676" transform="translate(320.531 131.984)" fill="#6c63ff" opacity="0.1"/>
    <rect id="Rectangle_25" data-name="Rectangle 25" width="10.863" height="10.676" transform="translate(85.333 82.243)" fill="#6c63ff" opacity="0.1"/>
    <rect id="Rectangle_26" data-name="Rectangle 26" width="10.863" height="10.676" transform="translate(85.333 107.04)" fill="#6c63ff" opacity="0.1"/>
    <rect id="Rectangle_27" data-name="Rectangle 27" width="10.863" height="10.676" transform="translate(85.333 131.838)" fill="#6c63ff" opacity="0.1"/>
    <rect id="Rectangle_28" data-name="Rectangle 28" width="10.863" height="10.676" transform="translate(85.333 156.631)" fill="#6c63ff" opacity="0.1"/>
    <rect id="Rectangle_29" data-name="Rectangle 29" width="10.863" height="10.676" transform="translate(85.333 181.429)" fill="#6c63ff" opacity="0.1"/>
    <rect id="Rectangle_30" data-name="Rectangle 30" width="10.863" height="10.676" transform="translate(85.333 206.226)" fill="#6c63ff" opacity="0.1"/>
    <rect id="Rectangle_31" data-name="Rectangle 31" width="10.863" height="10.676" transform="translate(362 131.984)" fill="#6c63ff" opacity="0.1"/>
    <rect id="Rectangle_32" data-name="Rectangle 32" width="10.863" height="10.676" transform="translate(320.531 158.317)" fill="#6c63ff" opacity="0.1"/>
    <rect id="Rectangle_33" data-name="Rectangle 33" width="10.863" height="10.676" transform="translate(362 158.317)" fill="#6c63ff" opacity="0.1"/>
    <rect id="Rectangle_34" data-name="Rectangle 34" width="10.863" height="10.676" transform="translate(320.531 184.646)" fill="#6c63ff" opacity="0.1"/>
    <rect id="Rectangle_35" data-name="Rectangle 35" width="10.863" height="10.676" transform="translate(362 184.646)" fill="#6c63ff" opacity="0.1"/>
    <rect id="Rectangle_36" data-name="Rectangle 36" width="10.863" height="10.676" transform="translate(320.531 210.978)" fill="#6c63ff" opacity="0.1"/>
    <rect id="Rectangle_37" data-name="Rectangle 37" width="10.863" height="10.676" transform="translate(362 210.978)" fill="#6c63ff" opacity="0.1"/>
    <rect id="Rectangle_38" data-name="Rectangle 38" width="10.863" height="10.676" transform="translate(320.531 237.311)" fill="#6c63ff" opacity="0.1"/>
    <rect id="Rectangle_39" data-name="Rectangle 39" width="10.863" height="10.676" transform="translate(362 237.311)" fill="#6c63ff" opacity="0.1"/>
    <path id="Tracé_20" data-name="Tracé 20" d="M838.4,709.214V702.33h10.859v5.9Z" transform="translate(-517.869 -438.69)" fill="#6c63ff" opacity="0.1"/>
    <path id="Tracé_21" data-name="Tracé 21" d="M96.53,316.91v6.107H133.7V316.91Zm3.7,5.724H97.176V317.3h3.056Zm3.7,0h-3.056V317.3h3.056Zm3.693,0H104.57V317.3h3.056Zm3.7,0h-3.056V317.3h3.056Zm3.7,0h-3.056V317.3h3.056Zm3.7,0H115.67V317.3h3.056Zm3.7,0h-3.056V317.3h3.056Zm3.7,0h-3.056V317.3h3.056Zm3.7,0h-3.056V317.3h3.056Zm3.7,0h-3.056V317.3h3.056Z" transform="translate(-65.449 -204.915)" fill="#6c63ff" opacity="0.1"/>
    <path id="Tracé_22" data-name="Tracé 22" d="M96.53,364.27v6.107H133.7V364.27Zm3.7,5.724H97.176v-5.338h3.056Zm3.7,0h-3.056v-5.338h3.056Zm3.693,0H104.57v-5.338h3.056Zm3.7,0h-3.056v-5.338h3.056Zm3.7,0h-3.056v-5.338h3.056Zm3.7,0H115.67v-5.338h3.056Zm3.7,0h-3.056v-5.338h3.056Zm3.7,0h-3.056v-5.338h3.056Zm3.7,0h-3.056v-5.338h3.056Zm3.7,0h-3.056v-5.338h3.056Z" transform="translate(-65.449 -234.497)" fill="#6c63ff" opacity="0.1"/>
    <path id="Tracé_23" data-name="Tracé 23" d="M96.53,411.64v6.1H133.7v-6.1Zm3.7,5.717H97.176v-5.338h3.056Zm3.7,0h-3.056v-5.338h3.056Zm3.693,0H104.57v-5.338h3.056Zm3.7,0h-3.056v-5.338h3.056Zm3.7,0h-3.056v-5.338h3.056Zm3.7,0H115.67v-5.338h3.056Zm3.7,0h-3.056v-5.338h3.056Zm3.7,0h-3.056v-5.338h3.056Zm3.7,0h-3.056v-5.338h3.056Zm3.7,0h-3.056v-5.338h3.056Z" transform="translate(-65.449 -264.085)" fill="#6c63ff" opacity="0.1"/>
    <path id="Tracé_24" data-name="Tracé 24" d="M96.53,459v6.1H133.7V459Zm3.7,5.721H97.176v-5.345h3.056Zm3.7,0h-3.056v-5.345h3.056Zm3.693,0H104.57v-5.345h3.056Zm3.7,0h-3.056v-5.345h3.056Zm3.7,0h-3.056v-5.345h3.056Zm3.7,0H115.67v-5.345h3.056Zm3.7,0h-3.056v-5.345h3.056Zm3.7,0h-3.056v-5.345h3.056Zm3.7,0h-3.056v-5.345h3.056Zm3.7,0h-3.056v-5.345h3.056Z" transform="translate(-65.449 -293.667)" fill="#6c63ff" opacity="0.1"/>
    <path id="Tracé_25" data-name="Tracé 25" d="M97,506.34c.145.578.317,1.149.493,1.715v-1.329h3.056v5.334H98.91c.046.128.1.259.149.375h34.949v-6.1Zm7.257,5.721H101.2v-5.334h3.056Zm3.693,0h-3.056v-5.334h3.056Zm3.7,0H108.6v-5.334h3.056Zm3.7,0h-3.056v-5.334h3.056Zm3.7,0h-3.056v-5.334h3.056Zm3.7,0H119.7v-5.334h3.056Zm3.7,0h-3.056v-5.334h3.056Zm3.7,0H127.09v-5.334h3.056Zm3.7,0h-3.056v-5.334h3.056Z" transform="translate(-65.74 -323.237)" fill="#6c63ff" opacity="0.1"/>
    <path id="Tracé_26" data-name="Tracé 26" d="M119.54,553.7c.1.12.191.255.286.375h2.021v2.564l.653.751v-3.33h3.056v5.383H124.3c.122.124.241.255.382.375h23.234V553.7Zm9.724,5.743h-3.056v-5.36h3.056Zm3.7,0H129.91v-5.36h3.056Zm3.7,0h-3.056v-5.36h3.056Zm3.7,0h-3.056v-5.36h3.056Zm3.7,0h-3.056v-5.36h3.056Zm3.7,0h-3.056v-5.36h3.056Z" transform="translate(-79.671 -352.819)" fill="#6c63ff" opacity="0.1"/>
    <path id="Tracé_27" data-name="Tracé 27" d="M172.93,601.06c.351.2.707.375,1.062.567v-.188h3.056v1.693c.221.094.432.2.649.293v-1.986h3.056v3.251a1.253,1.253,0,0,0,.18.064V601.06Z" transform="translate(-112.668 -382.401)" fill="#6c63ff" opacity="0.1"/>
    <path id="Tracé_28" data-name="Tracé 28" d="M459.7,258.936ZM436.171,369.728Zm-24.548-56.37c.073.24.138.48.2.717h0C411.768,313.839,411.7,313.6,411.623,313.358ZM459.7,258.936ZM229,202.728v1.6h17.062V202.72Zm207.175,167Zm-24.552-56.37c.073.24.138.48.2.717h0C411.768,313.839,411.7,313.6,411.623,313.358ZM459.7,258.936ZM436.171,369.728Zm-24.548-56.37c.073.24.138.48.2.717h0C411.768,313.839,411.7,313.6,411.623,313.358Z" transform="translate(-147.322 -133.589)" fill="#6c63ff" opacity="0.1"/>
    <ellipse id="Ellipse_1" data-name="Ellipse 1" cx="37.217" cy="5.875" rx="37.217" ry="5.875" transform="translate(298.986 312.153)" fill="#6c63ff" opacity="0.1"/>
    <ellipse id="Ellipse_2" data-name="Ellipse 2" cx="37.217" cy="5.875" rx="37.217" ry="5.875" transform="translate(131.133 306.279)" fill="#6c63ff" opacity="0.1"/>
    <path id="Tracé_29" data-name="Tracé 29" d="M460.714,336.44a.2.2,0,0,0-.057-.1c-.569-.552-7.826-10.638-7.826-10.638s-.382-1.126-1-2.59a2.558,2.558,0,0,0,.439-.845,2.851,2.851,0,0,0,.073-.394c0-.041.031-.075.042-.116a2.8,2.8,0,0,0-.038-1.547,2.658,2.658,0,0,1-.157.375,6.227,6.227,0,0,0-.573-1.254c-.963-1.629-2.338-3-3.35-4.591a12.245,12.245,0,0,1-1.723-8.243c0,.146,0,.3,0,.443a12.641,12.641,0,0,1,.229-1.689,11.58,11.58,0,0,1,.638-1.854c.909-2.046,2.38-3.829,3.273-5.882a11.006,11.006,0,0,0,.68-2.151,11.849,11.849,0,0,0,.34-3.773,5.922,5.922,0,0,1-.1.9,12.115,12.115,0,0,0-3.51-8.134c-3.121-3.082-7.6-4.279-11.886-4.91a11,11,0,0,1-5-1.877,8.827,8.827,0,0,0-5.7-1.07,9.462,9.462,0,0,0-5.8,2.819c-2.036,2.2-2.918,5.315-5.294,7.17a23.669,23.669,0,0,1-4.942,2.417c-1.677.766-3.262,1.877-3.8,3.521v.06l-.023.06c-.558,1.944.519,3.923,1.081,5.863a23.363,23.363,0,0,1,.653,6.205c.042,2.538.08,5.079.038,7.62-.019,1-.053,2.008-.13,3a16.172,16.172,0,0,0-2.624,1.036,51.53,51.53,0,0,0-4.056,3.945l-6.26,23.506.084.094-.084.319.317-.071a32.087,32.087,0,0,0,6.39,5.278l.267,4.61a8.179,8.179,0,0,0,4.648,6.535c.1,1.6.409,8.112-1.024,10.691a11.841,11.841,0,0,0-1.352,6.111s.5,3.911-.069,5.969a9.6,9.6,0,0,0-.073,4.189h0v1.235c0,4.163.05,17.5,0,19.013-.073,1.783,0,28.153,0,28.153s-.355,13.179-1.493,16.749-.852,15.39-.852,15.39-.714,14.08,1.81,16.858c0,.124-.023.251-.027.375v.176c-.031,1.07.18,2.207,1.115,2.556a15.967,15.967,0,0,1,4.912,3.5c.477.619,3.254,2.162,6.875,1.749a52.675,52.675,0,0,1,6.833-.308h0s1.428-.255.966-2h0a15.555,15.555,0,0,0-2.208-3.863c.145.037.286.068.42.094l.138.026h.107a1.48,1.48,0,0,0,.176,0h.076a1.324,1.324,0,0,0,.214,0h0c.959-.09,4.534,1.547,5.172,2.628s2.888,1.9,4.583,2.11a33.123,33.123,0,0,0,5.687-.353,21.274,21.274,0,0,0,3.186-.571c.5-.188.611-.788.466-1.464h0a3.8,3.8,0,0,0-1.322-2.192,10.576,10.576,0,0,1-2.04-2.5l-.16-.251c1.066-1,2.991-4.264,3.575-4.94.71-.822-1.146-30.886-1.146-30.886V433.666l2.846-14.264,1.99-7.549,1.707-11.4s2.987-13.311,2.066-14.617h0c0-.026-.764-13.731-1.566-17.023a36.688,36.688,0,0,1-.053-7.984,1.557,1.557,0,0,0,.382-1.644,3.378,3.378,0,0,0-.222-.559v-.173a26.621,26.621,0,0,1,5.145-1.719c2.846-.548,2.135-1.99,2.135-1.99s.642-1.235,1.066-1.99.073-7.414,0-7.962c-.027-.221-.2-1.445-.4-2.834.913-.638,2.1-1.43,3.4-2.181C461.47,338.347,460.917,336.834,460.714,336.44Zm-37.126,95.169s-2.135,5.353-1.28,6.723-.141,6.457-.141,6.457l-.714,7.549s-1.99,14-1.28,17.294c.558,2.583.764,10.3.829,13.514h0a.977.977,0,0,0-.141.068l-.1.049c.328-1.265.191-3.825-1.44-8.975l-.137-21.273s-.252-24.572,1.723-27.32,2.674-7.414,2.674-7.414-.428,6.731-.707,8.513A13.814,13.814,0,0,0,423.588,431.609Zm-3.976,52.875c-.019.045-.042.09-.057.131l-.107-.135a1.134,1.134,0,0,0,.164,0Z" transform="translate(-249.516 -179.625)" fill="url(#linear-gradient)"/>
    <path id="Tracé_30" data-name="Tracé 30" d="M482.707,839.386a38.573,38.573,0,0,1-8.762.927c-1.673-.2-3.888-1.032-4.518-2.121s-4.163-2.733-5.111-2.628a3.5,3.5,0,0,1-1.146-.158,14.283,14.283,0,0,1-1.91-.721,3.425,3.425,0,0,1,.042-1.426,2.268,2.268,0,0,1,.084-.278,2.5,2.5,0,0,1,1.283-1.4l.137-.064a3.941,3.941,0,0,1,.825-.248c3-.567,15.389.57,15.389.57s.348.612.825,1.37a10.51,10.51,0,0,0,2.017,2.515,3.834,3.834,0,0,1,1.3,2.207C483.31,838.594,483.2,839.2,482.707,839.386Z" transform="translate(-290.836 -526.095)" fill="#fff"/>
    <path id="Tracé_31" data-name="Tracé 31" d="M482.715,841.136a38.527,38.527,0,0,1-8.758.927c-1.673-.2-3.888-1.036-4.522-2.121s-4.159-2.733-5.107-2.628a8.962,8.962,0,0,1-3.056-.878,3.069,3.069,0,0,1,.626-2.526l1.91,1.333s5.111,1.558,6.058,3,2.674,2.252,5.168,2.4a49.18,49.18,0,0,0,8.151-.95C483.318,840.344,483.215,840.952,482.715,841.136Z" transform="translate(-290.844 -527.845)" opacity="0.1"/>
    <path id="Tracé_32" data-name="Tracé 32" d="M438.071,841.526a51.722,51.722,0,0,0-6.745.312c-3.587.413-6.325-1.126-6.8-1.76a15.916,15.916,0,0,0-4.847-3.529c-.928-.353-1.146-1.5-1.1-2.575V833.8a10.343,10.343,0,0,1,.306-2.016l14.862-.312,1.287,1.716.2.263.783,1.047s.355.458.821,1.126a15.944,15.944,0,0,1,2.181,3.889h0C439.48,841.271,438.071,841.526,438.071,841.526Z" transform="translate(-264.484 -526.321)" fill="#fff"/>
    <path id="Tracé_33" data-name="Tracé 33" d="M438.071,845.7a51.733,51.733,0,0,0-6.745.312c-3.583.413-6.325-1.126-6.8-1.76a15.469,15.469,0,0,0-4.851-3.521c-.928-.353-1.146-1.5-1.1-2.575,1.062.244,3.292.867,4.167,1.952,1.146,1.449,3.2,3.885,6.111,4.039,2.353.124,8.082-.289,10.183-.454C439.484,845.45,438.071,845.7,438.071,845.7Z" transform="translate(-264.484 -530.5)" opacity="0.1"/>
    <path id="Tracé_34" data-name="Tracé 34" d="M436.279,831.777c-.172,1.254-.7,1.592-1.085,1.667a.754.754,0,0,1-.283,0,.943.943,0,0,1-.149-.023s-13.345,2.9-16.042.552a1.851,1.851,0,0,1-.191-.2,10.333,10.333,0,0,1,.306-2.016l14.862-.312,1.287,1.716a2.5,2.5,0,0,1,1.283-1.4Z" transform="translate(-264.461 -526.309)" opacity="0.1"/>
    <path id="Tracé_35" data-name="Tracé 35" d="M482.41,833.136c-.3.323-.546.507-.7.443-.7-.278-6.463-1.243-8.292-.413s-8.021.135-8.021.135,0-.721-.034-1.877a3.93,3.93,0,0,1,.825-.248c3-.567,15.389.571,15.389.571S481.937,832.378,482.41,833.136Z" transform="translate(-293.404 -526.039)" opacity="0.1"/>
    <path id="Tracé_36" data-name="Tracé 36" d="M459.218,578.267l-1.688,11.464-1.963,7.6-2.811,14.362v15.2s1.826,30.248,1.123,31.074-3.373,5.529-4.075,5.255-6.463-1.242-8.292-.417-8.021.139-8.021.139-.141-11.738-.844-15.053,1.264-17.4,1.264-17.4l.7-7.594s.986-5.113.141-6.494,1.264-6.757,1.264-6.757a13.918,13.918,0,0,1-.7-4.839c.283-1.794.7-8.562.7-8.562s-.7,4.7-2.651,7.459-1.7,27.485-1.7,27.485l.138,21.4c3.518,11.329,0,10.221,0,10.221s-13.345,2.9-16.042.552-1.925-17.14-1.925-17.14-.279-11.877.844-15.465,1.478-16.851,1.478-16.851-.073-26.52,0-28.311c.053-1.5,0-14.944,0-19.144V565.2l1.612-3.934,19.1-2.35H446s13.75,3.176,15.171,4.546a.315.315,0,0,1,.076.083C462.171,564.873,459.218,578.267,459.218,578.267Z" transform="translate(-261.496 -356.08)" fill="#6c63ff"/>
    <path id="Tracé_37" data-name="Tracé 37" d="M472.11,770.88s4.2,9.944,6.184,10.634S472.11,770.88,472.11,770.88Z" transform="translate(-297.576 -488.475)" opacity="0.1"/>
    <path id="Tracé_38" data-name="Tracé 38" d="M476.18,809.88s14.186.691,14.044,2.211S476.18,809.88,476.18,809.88Z" transform="translate(-300.091 -512.836)" opacity="0.1"/>
    <path id="Tracé_39" data-name="Tracé 39" d="M426.49,799.29c.561.522,10.821,1.5,9.977,2.455s-9.133,2.808-9.133,2.808Z" transform="translate(-269.381 -506.221)" opacity="0.1"/>
    <path id="Tracé_40" data-name="Tracé 40" d="M422.08,753.59c0,.413,2.108,13.258,2.674,13.81s5.2,1.1,5.2,1.1Z" transform="translate(-266.655 -477.676)" opacity="0.1"/>
    <path id="Tracé_41" data-name="Tracé 41" d="M438.323,280.983c-2.013,2.211-2.884,5.345-5.229,7.215a23.35,23.35,0,0,1-4.885,2.429c-1.658.766-3.3,1.933-3.793,3.667-.55,1.952.512,3.945,1.069,5.9a24.013,24.013,0,0,1,.646,6.243c.038,2.556.08,5.113.034,7.669-.069,3.983-.4,8.149-2.555,11.524,7.765,2.429,16.023,2.759,24.166,3.071a24.81,24.81,0,0,0,4.694-.116,40.875,40.875,0,0,0,4-.995,31.171,31.171,0,0,1,7.967-1,13.606,13.606,0,0,0,3.5-.229,3.433,3.433,0,0,0,2.525-2.181,4,4,0,0,0-.645-2.958c-.947-1.637-2.292-3-3.308-4.617a12.5,12.5,0,0,1-.829-11.408c.9-2.061,2.353-3.855,3.239-5.92a12.324,12.324,0,0,0-2.559-13.243c-3.082-3.1-7.505-4.3-11.737-4.94a10.771,10.771,0,0,1-4.942-1.877,8.583,8.583,0,0,0-5.63-1.074,9.247,9.247,0,0,0-5.725,2.845Z" transform="translate(-267.601 -180.647)" fill="#3f3d56"/>
    <g id="Groupe_1" data-name="Groupe 1" transform="translate(156.162 112.671)" opacity="0.1">
      <path id="Tracé_42" data-name="Tracé 42" d="M532.435,328.417a12.3,12.3,0,0,0-.974,5.732,12.1,12.1,0,0,1,.974-4.069c.9-2.061,2.349-3.855,3.235-5.92a11.793,11.793,0,0,0,.89-5.45,11.5,11.5,0,0,1-.89,3.791C534.784,324.566,533.332,326.356,532.435,328.417Z" transform="translate(-490.401 -318.71)"/>
      <path id="Tracé_43" data-name="Tracé 43" d="M427.5,332.683c.023,1.471.046,2.947.05,4.418q0-3.041-.05-6.074a23.957,23.957,0,0,0-.646-6.246,30.518,30.518,0,0,1-1.146-3.881c-.34,1.839.626,3.7,1.146,5.541A23.845,23.845,0,0,1,427.5,332.683Z" transform="translate(-425.014 -320.078)"/>
      <path id="Tracé_44" data-name="Tracé 44" d="M468.313,397.515a13.134,13.134,0,0,1-3.495.229,31.15,31.15,0,0,0-7.964.983,41.147,41.147,0,0,1-4,.991,24.546,24.546,0,0,1-4.7.12c-7.868-.3-15.847-.631-23.383-2.842a12.666,12.666,0,0,1-.764,1.426c7.765,2.425,16.023,2.759,24.162,3.071a24.556,24.556,0,0,0,4.7-.12,40.063,40.063,0,0,0,3.984-.987,31.146,31.146,0,0,1,7.948-.995,13.412,13.412,0,0,0,3.495-.233,3.436,3.436,0,0,0,2.525-2.177,2.931,2.931,0,0,0-.038-1.562A3.548,3.548,0,0,1,468.313,397.515Z" transform="translate(-424.01 -366.625)"/>
    </g>
    <path id="Tracé_45" data-name="Tracé 45" d="M468.079,352.4c-.283.623-1.474,6.006-1.757,6.558s-1.826,9.384-1.967,9.88-10.171-2.072-10.171-2.072l-6.039-4.974-6.207-6.07s-.183-5.477,4.389-7.234a7.063,7.063,0,0,1,.955-.293c5.546-1.31,4.988-17.883,4.988-17.883l11.382,4.831s-2.108,9.67-2.036,11.535c.019.627.519,1.017,1.173,1.254a9.425,9.425,0,0,0,3.109.33S468.362,351.778,468.079,352.4Z" transform="translate(-278.928 -213.285)" fill="#fbbebe"/>
    <path id="Tracé_46" data-name="Tracé 46" d="M539.4,436.156l1.616.417s1.2,1.787-1.616,3.45a48.712,48.712,0,0,0-5.13,3.525l-8.307,2.485-1.6-4.936,7.731-5.766Z" transform="translate(-329.869 -278.883)" fill="#6c63ff"/>
    <path id="Tracé_47" data-name="Tracé 47" d="M539.4,436.156l1.616.417s1.2,1.787-1.616,3.45a48.712,48.712,0,0,0-5.13,3.525l-8.307,2.485-1.6-4.936,7.731-5.766Z" transform="translate(-329.869 -278.883)" opacity="0.1"/>
    <path id="Tracé_48" data-name="Tracé 48" d="M399.771,448.737l-3.231,3.108s5.829,6.629,10.313,7.042,7.375-5.041,7.375-5.041l-3.881-6.006Z" transform="translate(-250.87 -286.697)" fill="#6c63ff"/>
    <path id="Tracé_49" data-name="Tracé 49" d="M399.771,448.737l-3.231,3.108s5.829,6.629,10.313,7.042,7.375-5.041,7.375-5.041l-3.881-6.006Z" transform="translate(-250.87 -286.697)" opacity="0.1"/>
    <ellipse id="Ellipse_3" data-name="Ellipse 3" cx="11.241" cy="11.047" rx="11.241" ry="11.047" transform="translate(168.354 105.76)" opacity="0.1"/>
    <ellipse id="Ellipse_4" data-name="Ellipse 4" cx="11.241" cy="11.047" rx="11.241" ry="11.047" transform="translate(168.354 104.931)" fill="#fbbebe"/>
    <path id="Tracé_50" data-name="Tracé 50" d="M465.175,564.821a36.828,36.828,0,0,0-7.521,1.656c-4.2,1.374-37.126.022-37.584,0v-1.243l1.612-3.934,19.1-2.35h9.136s13.75,3.176,15.171,4.546C465.144,564.322,465.175,564.821,465.175,564.821Z" transform="translate(-265.413 -356.099)" opacity="0.1"/>
    <path id="Tracé_51" data-name="Tracé 51" d="M468.079,381.717c-.283.623-1.474,6.006-1.757,6.558s-1.826,9.384-1.967,9.88-10.171-2.072-10.171-2.072l-6.039-4.974-6.207-6.07s-.183-5.477,4.389-7.233l11.352,12.827,5.111-13.382a9.422,9.422,0,0,0,3.109.33S468.362,381.1,468.079,381.717Z" transform="translate(-278.928 -242.604)" opacity="0.1"/>
    <path id="Tracé_52" data-name="Tracé 52" d="M439.6,390.089l-11.619-13.138a4.944,4.944,0,0,0-4.61-.334c-2.6,1.107-5.832,2-6.677,2.556a51.626,51.626,0,0,0-4.007,3.968l9.419,24.216-4.148,15.95s.634,8.149-.982,11.119a12.028,12.028,0,0,0-1.337,6.145s.493,3.938-.069,6.006a9.836,9.836,0,0,0-.073,4.212s33.379,1.381,37.592,0a36.506,36.506,0,0,1,7.521-1.655s-.764-13.814-1.528-17.128.634-15.95.634-15.95l-.913-13.536,5.477-13.889s-2.968-8.9-6.062-9.8a60.875,60.875,0,0,1-6.814-1.933,24.24,24.24,0,0,0-4.709-1.175l-1.845.608Z" transform="translate(-260.851 -241.649)" fill="#6c63ff"/>
    <path id="Tracé_121" data-name="Tracé 121" d="M4.218.132,22.978.1a3.941,3.941,0,0,1,4,3.9l-.055,32.434a3.974,3.974,0,0,1-4.012,3.914l-18.76.031a3.941,3.941,0,0,1-4-3.9L.206,4.046A3.974,3.974,0,0,1,4.218.132Z" transform="translate(169.19 158.551) rotate(3.89)" opacity="0.1"/>
    <path id="Tracé_122" data-name="Tracé 122" d="M4.218.132,22.978.1a3.941,3.941,0,0,1,4,3.9l-.055,32.434a3.974,3.974,0,0,1-4.012,3.914l-18.76.031a3.941,3.941,0,0,1-4-3.9L.206,4.046A3.974,3.974,0,0,1,4.218.132Z" transform="translate(170.032 157.727) rotate(3.89)" fill="#3f3d56"/>
    <path id="Tracé_123" data-name="Tracé 123" d="M.2.142,23.525.1l-.059,34.632L.143,34.774Z" transform="translate(171.553 160.853) rotate(3.89)" fill="#fff"/>
    <path id="Tracé_124" data-name="Tracé 124" d="M.032.119,19.074.086l-.009,5.226L.023,5.344Z" transform="translate(173.894 169.95) rotate(4.004)" opacity="0.1"/>
    <path id="Tracé_125" data-name="Tracé 125" d="M.016.018,3.038.013l0,2.719L.011,2.738Z" transform="translate(189.197 191.833) rotate(3.89)" opacity="0.1"/>
    <path id="Tracé_126" data-name="Tracé 126" d="M.016.094,15.482.068l0,2.726L.012,2.819Z" transform="translate(173.813 184.384) rotate(3.89)" opacity="0.1"/>
    <path id="Tracé_127" data-name="Tracé 127" d="M.025.1l16.1-.027-.007,4.186-16.1.027Z" transform="translate(176.036 160.099) rotate(3.89)" fill="#3f3d56"/>
    <path id="Tracé_128" data-name="Tracé 128" d="M.025.1l16.1-.027-.007,4.186-16.1.027Z" transform="translate(176.036 160.099) rotate(3.89)" opacity="0.1"/>
    <path id="Tracé_53" data-name="Tracé 53" d="M477.732,572.56s-.141,20.443-5.622,32.181c0,0,6.608-15.469,6.608-16.089s3.651-7.113,2.674-9.047S477.732,572.56,477.732,572.56Z" transform="translate(-297.576 -364.6)" opacity="0.1"/>
    <path id="Tracé_54" data-name="Tracé 54" d="M465.736,300.826a7.581,7.581,0,0,1,1.272-5.146A6.355,6.355,0,0,0,472,302.362a.82.82,0,0,1-.241-.908,27.9,27.9,0,0,0,2.269,2.669,3.054,3.054,0,0,0,3.258.679c1.417-.751,1.432-2.729,1.066-4.268a19.931,19.931,0,0,0-4.694-8.81,6.246,6.246,0,0,0-4.927-2.462,12.311,12.311,0,0,0-6.367.98,16.928,16.928,0,0,0-3.056,2.1l-5.347,4.287a5.027,5.027,0,0,0-1.3,1.344,3.63,3.63,0,0,0-.4,1.408,7.545,7.545,0,0,0,3.6,7.158,5.592,5.592,0,0,1,3.411-5.255,1.447,1.447,0,0,1,.531,1.085l1.127-1.974a2.184,2.184,0,0,1,.764-.89,2.017,2.017,0,0,1,2.154.6,3.851,3.851,0,0,0,1.963,1.273l.031-2.939" transform="translate(-285.282 -187.611)" opacity="0.1"/>
    <path id="Tracé_55" data-name="Tracé 55" d="M465.761,299.726a7.585,7.585,0,0,1,1.272-5.15,6.358,6.358,0,0,0,4.992,6.682.813.813,0,0,1-.241-.9,28.376,28.376,0,0,0,2.269,2.669,3.038,3.038,0,0,0,3.258.676c1.417-.751,1.432-2.729,1.066-4.264a19.931,19.931,0,0,0-4.694-8.81,7.5,7.5,0,0,0-2.624-2,7.756,7.756,0,0,0-2.292-.458,12.309,12.309,0,0,0-6.367.976,17.143,17.143,0,0,0-3.056,2.1L454,295.525a4.974,4.974,0,0,0-1.3,1.344,3.612,3.612,0,0,0-.4,1.408,7.541,7.541,0,0,0,3.6,7.155,5.6,5.6,0,0,1,3.411-5.255,1.458,1.458,0,0,1,.531,1.085l1.123-1.967a2.161,2.161,0,0,1,.764-.89,2.017,2.017,0,0,1,2.154.6,3.876,3.876,0,0,0,1.963,1.273l.031-2.943" transform="translate(-285.307 -186.923)" fill="#3f3d56"/>
    <path id="Tracé_56" data-name="Tracé 56" d="M446.643,469.161c-.982-.488-17.215,2-17.215,2s-2.674-.751-9.136-1.794a8.086,8.086,0,0,1-6.875-7.252l-.707-12.429,2.181-1.877,9.343,6.006a29.154,29.154,0,0,1,0,3.585,4.988,4.988,0,0,0-.313,1.126.378.378,0,0,0,.313.338c.634.158,9.274,1.531,9.274,1.531s20.026-1.348,25.018,5.282a4.958,4.958,0,0,1,.882,1.637C460.645,471.845,447.533,469.593,446.643,469.161Z" transform="translate(-260.864 -286.678)" fill="#fbbebe"/>
    <path id="Tracé_57" data-name="Tracé 57" d="M477.078,485.218c-.764.334-1.237.574-1.237.574s-7.165-.206-11.191-1.64a26.722,26.722,0,0,0-8.919-1.179s-16.775-2.838-14.174-6.543a.378.378,0,0,0,.313.338c.634.158,9.274,1.532,9.274,1.532s20.026-1.348,25.018,5.281A4.957,4.957,0,0,1,477.078,485.218Z" transform="translate(-278.523 -304.555)" opacity="0.1"/>
    <path id="Tracé_58" data-name="Tracé 58" d="M484.065,441.58s.985,6.836,1.054,7.391.424,7.249,0,8.01-1.054,2-1.054,2,.7,1.449-2.108,2a29.166,29.166,0,0,0-6.111,2.207s-7.169-.206-11.172-1.655a26.209,26.209,0,0,0-8.922-1.175s-21.294-3.592-12.158-7.977a14.244,14.244,0,0,1,15.6,1.554l10.187-.619s3.8-2.282,4.851-2.072a3.96,3.96,0,0,0,2.177-.345l.073-7.252Z" transform="translate(-278.543 -282.787)" fill="#fbbebe"/>
    <path id="Tracé_59" data-name="Tracé 59" d="M404.7,396.705l-2.04-.105-6.18,23.649s6.673-1.659,9.549,0,8.151,2,8.151,2L412.213,403.4Z" transform="translate(-250.833 -254.691)" opacity="0.1"/>
    <path id="Tracé_60" data-name="Tracé 60" d="M404.7,395.6l-2.04-.105-6.18,23.649s6.673-1.659,9.549,0,8.151,2,8.151,2l-1.967-18.851Z" transform="translate(-250.833 -253.998)" fill="#6c63ff"/>
    <path id="Tracé_61" data-name="Tracé 61" d="M533.078,409.57l2.807.623s7.169,10.135,7.731,10.7-2.674,2.628-4.007,2.628-7.868.751-9.767,2.485-1.108-6.993-1.108-7.192,2.357-5.706,2.357-5.706Z" transform="translate(-332.472 -262.792)" opacity="0.1"/>
    <path id="Tracé_62" data-name="Tracé 62" d="M533.078,408.47l2.807.619s7.169,10.154,7.731,10.706-2.674,2.628-4.007,2.628-7.868.751-9.767,2.485-1.108-6.993-1.108-7.192,2.372-5.725,2.372-5.725Z" transform="translate(-332.472 -262.105)" fill="#6c63ff"/>
    <g id="Groupe_2" data-name="Groupe 2" transform="translate(166.951 106.823)" opacity="0.1">
      <path id="Tracé_63" data-name="Tracé 63" d="M467.013,303.993a5.444,5.444,0,0,1,.019-.863,7.611,7.611,0,0,0-1.176,2.834v1.047c0,.608,0,1.22-.019,1.828h-.053v.282a1.47,1.47,0,0,0-.019-.289,4.067,4.067,0,0,1-1.879-1.254c-.569-.5-1.459-.983-2.154-.6a2.16,2.16,0,0,0-.764.89l-1.134,1.967a1.444,1.444,0,0,0-.531-1.081,5.592,5.592,0,0,0-3.411,5.255,7.607,7.607,0,0,1-3.625-5.98,7.555,7.555,0,0,0,3.625,6.806,5.6,5.6,0,0,1,3.411-5.255,1.458,1.458,0,0,1,.531,1.085l1.123-1.967a2.161,2.161,0,0,1,.764-.89,2.017,2.017,0,0,1,2.154.6,3.875,3.875,0,0,0,1.963,1.273q0-1.441.031-2.875a7.573,7.573,0,0,1,1.146-2.812Z" transform="translate(-452.256 -303.13)"/>
      <path id="Tracé_64" data-name="Tracé 64" d="M487.5,312.527c.019-.255.05-.51.088-.751l.042-1.036A7.464,7.464,0,0,0,487.5,312.527Z" transform="translate(-474.031 -307.883)"/>
      <path id="Tracé_65" data-name="Tracé 65" d="M508.826,321.865a3.045,3.045,0,0,1-3.258-.676,27.923,27.923,0,0,1-2.269-2.669.82.82,0,0,0,.241.908.915.915,0,0,1-.222-.056,24.9,24.9,0,0,0,2.25,2.628,2.6,2.6,0,0,0,4.507-2.406A2.6,2.6,0,0,1,508.826,321.865Z" transform="translate(-483.772 -312.743)"/>
      <path id="Tracé_66" data-name="Tracé 66" d="M495.646,311.488a6.412,6.412,0,0,1-4.759-5.578,6.359,6.359,0,0,0,5,6.468A.817.817,0,0,1,495.646,311.488Z" transform="translate(-476.123 -304.867)"/>
    </g>
    <path id="Tracé_67" data-name="Tracé 67" d="M851.9,346.758s-1.5-.206-1.5-2.357a33.3,33.3,0,0,0-1.077-6.179h0s-.932-7.008-2.219-8.119-2.941-7.635-2.941-7.635-.283-3.54-.859-4.3a36.273,36.273,0,0,1-2.506-5.289c-1.15-2.661-5.932-4.486-5.932-4.486s-8.666-4.94-11.122-6.55h0a3.79,3.79,0,0,1-.626-.465c-.428-.548-2.292-.559-2.292-.559a36.488,36.488,0,0,1-.443-3.859v-.405a13.035,13.035,0,0,0,5.81-7.065c.046-.143.084-.289.126-.435a1.235,1.235,0,0,0,.764-.661,13.121,13.121,0,0,1,.5-1.5,5.63,5.63,0,0,1,1.413-1.216,5.209,5.209,0,0,0,1.471-4.276c-.038-1.261-.245-2.53-.164-3.78a1.463,1.463,0,0,1,.023-.315c.023-.184.05-.375.084-.556.187-.931.6-1.809.825-2.733a3.462,3.462,0,0,0-.283-2.759c-.783-1.167-2.414-1.4-3.846-1.5-1.623-.135-3.056.038-4.114-1.288a14.219,14.219,0,0,0-1.635-1.937c-.214-.2-2.292-1.445-2.292-1.524a9.435,9.435,0,0,0-6.493-.492c-1.081.308-2.093.811-3.189,1.062-2.353.548-5.065-.045-7.066,1.28a8.214,8.214,0,0,0-2.41,3.108q-.764,1.434-1.551,2.872a18.3,18.3,0,0,0-2.059,4.914,8.2,8.2,0,0,0-.141,1.152h0v.6a2.028,2.028,0,0,0,.023.375,2.122,2.122,0,0,0,.027.233c.027.079.034.255.057.375s.069.334.115.5a.756.756,0,0,0,.069.21c.023.071.084.251.134.375s.053.131.084.2a3.5,3.5,0,0,0,.195.375c.031.049.053.1.084.146a4.243,4.243,0,0,0,.351.5c.814,1,2.021,1.64,2.911,2.579v.42a12.8,12.8,0,0,0,5.989,10.473c0,.143.019.289.027.435a21.061,21.061,0,0,1-.042,3.341,1.624,1.624,0,0,0-1.268-.556,1.847,1.847,0,0,0-.489.041l-.034-.026h0v.034c-.84.2-1.875,1.062-2.865,3.506,0,0-3.01,3.333-5.3,3.194s-8.094,3.472-8.094,3.472-5.661,3.607-6.875,7.286a50.412,50.412,0,0,1-2.441,6.111l-7.016,14.159h0L770.5,348.514a51.2,51.2,0,0,1,.573,5.762c-.141.766,2.937,7.635,2.937,7.635s10.171,17.56,14.327,18.461l.3-.2a2.629,2.629,0,0,0,.561.2l.856-.589a8.638,8.638,0,0,1-.069,1.978c-.569,1.738.218,13.052,1.219,15.27s.646,31.31.646,31.31l-.141,2.564a1.071,1.071,0,0,0,.034.225l-.034.608.1.053a7.131,7.131,0,0,1-.1,2.447,26.686,26.686,0,0,0-.5,4.306s-2.865,17.973-1.5,21.584,2.509,7.568,2.509,7.568,1.432,4.5.069,5.255-5.225,2.083-4.438,3.956c.726,1.734,3.479,6.381,3.888,7.061l-.034.375-.561,5.98a7.406,7.406,0,0,0,.646,2.282,4,4,0,0,0,4.083,2.508c.382-.026.821-.068,1.253-.124a55.035,55.035,0,0,0,9.278-2.376,3.641,3.641,0,0,1-.722-.589h0a2.044,2.044,0,0,1-.638-1.5c.061-1.092-2.013-6.276-2.532-7.556l-.118-.285s4.729-4.861,3.942-9.163c0,0-5.233-3-3.51-4.655a52.791,52.791,0,0,0,4.8-6.381s.141-17.7,0-20.338a21.551,21.551,0,0,1,.264-5.5c.057-.27.126-.537.2-.8a49.617,49.617,0,0,0,7.2.537q1.322,0,2.674-.053,0,.375.034.811c.2,4.384.569,12.076.871,14.932.428,4.092,2.792,15.131,2.792,15.131s-4.511,2.842.787,9.857c0,0,0,2.538-.351,2.909h0a31.34,31.34,0,0,0-.905,3.667,6.337,6.337,0,0,0,.046,3.348c.859,1.659,6.016,1.524,6.016,1.524h0a.823.823,0,0,1,.126-.019,7.449,7.449,0,0,1,5.458,1.614c1.959,1.547,9.392.871,13.422.375,1.578-.2,2.632-.375,2.632-.375a1.5,1.5,0,0,0,.053-.541h0c-.042-.972-.817-3.1-6.073-5.008,0,0-4.943-3.266-4.874-6.111h-.68c.359-.011.611-.011.611-.011s-1.937-6.941-1.146-7.507-1.578-8.258-1.578-8.258-1.356-12.913-1.432-13.814a7.813,7.813,0,0,1,.359-2.29l-.359-7.083s-.069-2.354,0-3.119a14.434,14.434,0,0,0-.16-1.986c-.034-.263-.069-.537-.107-.807,1.852-.462,3.056-.886,3.056-.886l-.214-24.643c1.574-3,1.864-9.595,1.856-14.264,0-3-.137-5.225-.137-5.225l2.15-3.45s.5-4.129-.29-5.034a.856.856,0,0,1,.1-1.182,4,4,0,0,1,.477-.33.587.587,0,0,1-.05-.083,3.78,3.78,0,0,1,.477-.334s-.764-1.164-.08-1.655c.642.428,1.215.77,1.65,1.013-.031.274-.061.432-.061.432l.183-.375.676.375s3.369-6.6,3.3-7.564,2.292-5.068,2.292-5.068a5.04,5.04,0,0,1,1.577-3.056c1.291-.9,1-7.429,1-7.429s.359-3.4,1.218-4.786S851.9,346.758,851.9,346.758Zm-64.458-2.894.065,1.573c-.382-.6-.657-1.036-.657-1.036Z" transform="translate(-481.995 -171.962)" fill="url(#linear-gradient-2)"/>
    <path id="Tracé_68" data-name="Tracé 68" d="M947.191,543.21l-.825,3.453s-6.608-3.322-7.8-7.526,1.99-5.807,1.99-5.807l6.161,2.56Z" transform="translate(-585.706 -340.096)" fill="#fff"/>
    <path id="Tracé_69" data-name="Tracé 69" d="M947.191,543.21l-.825,3.453s-6.608-3.322-7.8-7.526,1.99-5.807,1.99-5.807l6.161,2.56Z" transform="translate(-585.706 -340.096)" opacity="0.1"/>
    <path id="Tracé_70" data-name="Tracé 70" d="M840.283,850.036s-6.111,2.207-10.313,2.485a3.925,3.925,0,0,1-4.007-2.492,7.52,7.52,0,0,1-.634-2.252l.554-5.95.29-3.164,8.926-2.282,1.264,3.8.118.285c.5,1.272,2.544,6.43,2.483,7.508a2.042,2.042,0,0,0,.623,1.5,3.536,3.536,0,0,0,.7.559Z" transform="translate(-515.883 -529.388)" fill="#fff"/>
    <path id="Tracé_71" data-name="Tracé 71" d="M929.354,846.324a1.48,1.48,0,0,1-.053.541s-13.07,2.14-15.744,0a7.164,7.164,0,0,0-5.485-1.588s-5.057.135-5.9-1.5a6.393,6.393,0,0,1-.042-3.329,31.468,31.468,0,0,1,.886-3.649l.2-.158,1.2-.95,14.086-.409h.107c-.069,2.83,4.778,6.077,4.778,6.077C928.551,843.234,929.312,845.355,929.354,846.324Z" transform="translate(-563.229 -528.701)" fill="#fff"/>
    <path id="Tracé_72" data-name="Tracé 72" d="M929.354,854.912a1.52,1.52,0,0,1-.057.54s-13.07,2.14-15.74,0a7.163,7.163,0,0,0-5.489-1.588s-5.061.135-5.9-1.5a6.446,6.446,0,0,1-.042-3.333c1.948.192,5.023.668,6.23,1.809,1.826,1.727,4.92,3.453,6.814,3.593C916.661,854.522,925.565,854.8,929.354,854.912Z" transform="translate(-563.225 -537.29)" opacity="0.1"/>
    <path id="Tracé_73" data-name="Tracé 73" d="M841.309,871.8S835.2,874.011,831,874.289a3.925,3.925,0,0,1-4.007-2.493c1.558.514,3.716,1.051,4.851.559,1.345-.589,6.111-.965,8.785-1.126A3.462,3.462,0,0,0,841.309,871.8Z" transform="translate(-516.909 -551.156)" opacity="0.1"/>
    <path id="Tracé_74" data-name="Tracé 74" d="M871.778,361.386c-5.042-1.926-11.527-8.288-9.908-11.261a6.64,6.64,0,0,0,.63-2.387,21.419,21.419,0,0,0,.046-3.378,45.631,45.631,0,0,0-.676-5.5s15.74.349,14.824,2.628a8.311,8.311,0,0,0-.237,3.127c.076,1.3.263,2.77.462,4.013.271,1.7.55,3,.55,3s-.966,1.325-1.528,1.4S879.012,364.145,871.778,361.386Z" transform="translate(-538.31 -218.625)" fill="#cf6f80"/>
    <path id="Tracé_75" data-name="Tracé 75" d="M837.339,840.418l-.118.128c-4.706-5.593-10.4,1.381-10.4,1.381l-.084-.15.29-3.164,8.926-2.282,1.264,3.8Z" transform="translate(-516.754 -529.357)" opacity="0.1"/>
    <path id="Tracé_76" data-name="Tracé 76" d="M920.384,835.649s-3.437-.068-5.271,1.524-10.695.342-10.313,0a1.283,1.283,0,0,0,.2-.574l1.2-.95,14.086-.409C920.342,835.5,920.384,835.649,920.384,835.649Z" transform="translate(-564.992 -528.676)" opacity="0.1"/>
    <path id="Tracé_77" data-name="Tracé 77" d="M836.9,706.984a10.393,10.393,0,0,0-.581,1.926,21.665,21.665,0,0,0-.264,5.465c.141,2.628,0,20.237,0,20.237a53.618,53.618,0,0,1-4.709,6.351c-1.688,1.655,3.438,4.628,3.438,4.628.764,4.283-3.865,9.118-3.865,9.118-4.706-5.593-10.4,1.378-10.4,1.378s-3.094-5.255-3.865-7.132,3.021-3.172,4.354-3.938-.069-5.255-.069-5.255-1.123-3.938-2.46-7.53,1.474-21.472,1.474-21.472a27.288,27.288,0,0,1,.493-4.287,7.138,7.138,0,0,0,.1-2.432c-.023-.274-.05-.5-.069-.657s-.034-.225-.034-.225l.053-.09,1.91-3.5S837.814,704.78,836.9,706.984Z" transform="translate(-510.457 -443.933)" fill="#6c63ff"/>
    <path id="Tracé_78" data-name="Tracé 78" d="M913.7,756.633s-3.438-.071-5.271,1.5-10.695.345-10.313,0,.348-2.9.348-2.9c-5.2-6.978-.764-9.809-.764-9.809s-2.318-10.98-2.739-15.053c-.294-2.842-.657-10.511-.852-14.854-.084-1.877-.134-3.172-.134-3.172l4.209-.822.546-.105,10.244-2.023s.283,1.877.474,3.412a14.767,14.767,0,0,1,.156,1.978c-.065.751,0,3.1,0,3.1l.351,7.042a8,8,0,0,0-.351,2.279c.073.9,1.406,13.743,1.406,13.743s2.318,7.665,1.528,8.217S913.7,756.633,913.7,756.633Z" transform="translate(-558.312 -450.073)" fill="#6c63ff"/>
    <path id="Tracé_79" data-name="Tracé 79" d="M877.1,341.518a8.317,8.317,0,0,0-.237,3.127,13.276,13.276,0,0,1-13.911-.255,45.656,45.656,0,0,0-.676-5.5S878.02,339.239,877.1,341.518Z" transform="translate(-538.72 -218.644)" opacity="0.1"/>
    <path id="Tracé_80" data-name="Tracé 80" d="M874.713,302.435a13.069,13.069,0,0,1-26.133.308v-.308a13.072,13.072,0,0,1,26.141,0Z" transform="translate(-530.253 -187.85)" fill="#cf6f80"/>
    <path id="Tracé_81" data-name="Tracé 81" d="M871.778,376.159c-5.042-1.926-11.527-8.288-9.908-11.261a6.64,6.64,0,0,0,.63-2.387l6.9,5.578,4.27,3.442,3.247-8.119c.271,1.7.55,3,.55,3s-.966,1.325-1.528,1.4S879.012,378.918,871.778,376.159Z" transform="translate(-538.31 -233.397)" opacity="0.1"/>
    <path id="Tracé_82" data-name="Tracé 82" d="M866.009,381.281l-5.764,95.158-7.517.484L833.26,421.747l3.193-65.507.676-13.84,8.655,6.986,4.27,3.442,3.342-8.36,6.214,5.323Z" transform="translate(-514.692 -213.869)" fill="#6c63ff"/>
    <path id="Tracé_83" data-name="Tracé 83" d="M843.188,707.033a10.4,10.4,0,0,0-.581,1.926,56.083,56.083,0,0,1-15.775-4.839l-.1-.053.034-.6v-.315l1.91-3.5S844.1,704.83,843.188,707.033Z" transform="translate(-516.748 -443.983)" opacity="0.1"/>
    <path id="Tracé_84" data-name="Tracé 84" d="M898.278,718.606a39.307,39.307,0,0,1-4.224.477c-.084-1.877-.134-3.172-.134-3.172l4.232-.841Z" transform="translate(-558.275 -453.615)" opacity="0.1"/>
    <path id="Tracé_85" data-name="Tracé 85" d="M917.188,712.812a30.154,30.154,0,0,1-10.664.987l-.054-2.376,10.244-2.023S916.985,711.262,917.188,712.812Z" transform="translate(-566.031 -450.073)" opacity="0.1"/>
    <path id="Tracé_86" data-name="Tracé 86" d="M826.275,496.545c-15.66,2.628-30-4.906-30-4.906l.138-2.552s.355-28.938-.63-31.156-1.753-13.453-1.2-15.169-2.036-27.616-2.036-27.616l-.42-10.511L776.74,398.49l6.875-14.088a50.389,50.389,0,0,0,2.391-6.081c1.2-3.66,6.745-7.252,6.745-7.252s5.691-3.589,7.941-3.453,5.2-3.176,5.2-3.176c2.177-5.454,4.148-3,4.148-3a4.743,4.743,0,0,1-.107.807c-.764,5.987,12.352,24.906,12.539,25.244h0l1.264,29.9L825,455.231Z" transform="translate(-485.852 -232.384)" opacity="0.1"/>
    <path id="Tracé_87" data-name="Tracé 87" d="M825.157,496.545c-15.66,2.628-30.006-4.906-30.006-4.906l.141-2.552s.352-28.938-.634-31.156-1.753-13.465-1.192-15.2-2.047-27.605-2.047-27.605l-.424-10.511-15.385-6.145,6.875-14.088a51.127,51.127,0,0,0,2.391-6.077c1.2-3.649,6.764-7.245,6.764-7.245s5.691-3.589,7.937-3.453,5.21-3.172,5.21-3.172c2.181-5.454,4.583-3,4.583-3,0,.263-.229.375-.107.807,1.681,5.807,11.932,24.906,12.12,25.244h0l1.264,29.9,1.238,37.86Z" transform="translate(-485.153 -232.384)" fill="#fff"/>
    <path id="Tracé_88" data-name="Tracé 88" d="M870.936,389.758c-1.684-.691-10.607-10.7-10.607-10.7v-2.279c-.325-.751-2.257-.293-3.819.233l.672-13.84.764.623C859.615,369.6,870.753,389.424,870.936,389.758Z" transform="translate(-535.154 -233.81)" opacity="0.1"/>
    <path id="Tracé_89" data-name="Tracé 89" d="M872.04,387.577c-1.688-.694-10.611-10.7-10.611-10.7v-2.282c-.325-.751-2.253-.293-3.82.233L858.271,361l.764.619C860.719,367.415,871.853,387.239,872.04,387.577Z" transform="translate(-535.833 -232.454)" fill="#fff"/>
    <path id="Tracé_90" data-name="Tracé 90" d="M826.489,562.964c.21,0,10.889-1.1,10.889-1.1s6.466,12.5,6.042,15.537-1.192,5.732-3.793,5.255-14,.375-14,.375Z" transform="translate(-516.068 -357.916)" opacity="0.1"/>
    <path id="Tracé_91" data-name="Tracé 91" d="M825.379,560.754c.214,0,10.893-1.1,10.893-1.1s6.463,12.519,6.042,15.522-1.2,5.732-3.793,5.255-14,.375-14,.375Z" transform="translate(-515.382 -356.536)" fill="#fff"/>
    <path id="Tracé_92" data-name="Tracé 92" d="M838.39,547s9.8,5.18,10.011,6.757-4.988-.691-6.111-.969a14.8,14.8,0,0,0-2.25-.345l-7.49.2Z" transform="translate(-520.345 -348.634)" fill="#cf6f80"/>
    <ellipse id="Ellipse_5" data-name="Ellipse 5" cx="1.031" cy="1.014" rx="1.031" ry="1.014" transform="translate(332.013 154.567)" opacity="0.1"/>
    <ellipse id="Ellipse_6" data-name="Ellipse 6" cx="1.031" cy="1.014" rx="1.031" ry="1.014" transform="translate(332.013 154.154)" fill="#3f3d56"/>
    <ellipse id="Ellipse_7" data-name="Ellipse 7" cx="1.031" cy="1.014" rx="1.031" ry="1.014" transform="translate(333.911 198.441)" opacity="0.1"/>
    <ellipse id="Ellipse_8" data-name="Ellipse 8" cx="1.031" cy="1.014" rx="1.031" ry="1.014" transform="translate(333.911 198.024)" fill="#3f3d56"/>
    <ellipse id="Ellipse_9" data-name="Ellipse 9" cx="1.031" cy="1.014" rx="1.031" ry="1.014" transform="translate(333.044 176.504)" opacity="0.1"/>
    <ellipse id="Ellipse_10" data-name="Ellipse 10" cx="1.031" cy="1.014" rx="1.031" ry="1.014" transform="translate(333.044 176.091)" fill="#3f3d56"/>
    <path id="Tracé_93" data-name="Tracé 93" d="M920.9,438.42s.7,1.036,0,1.5.069,1.659.069,1.659-1.753,1.006-.982,1.918.283,5.008.283,5.008l-2.108,3.45s.126,2.211.134,5.2c0,4.662-.279,11.216-1.822,14.2l.206,24.516s-7.383,2.654-13.563,1.843l-.917-39.339s1.337-22.309,1.829-26.588a43.789,43.789,0,0,0,.352-6.7,73.53,73.53,0,0,0-.917-9.8s-.764-13.469-.84-17.2c-.035-1.783.061-6.986.168-11.933.118-5.409.252-10.511.252-10.511l-1.394-10.845s1.394-.135,1.814.413a4.014,4.014,0,0,0,.611.462h0c2.41,1.6,10.912,6.517,10.912,6.517s4.706,1.839,5.832,4.474a38.69,38.69,0,0,0,2.456,5.255c.546.751.844,4.279.844,4.279S925.74,392.7,927,393.8s2.173,8.082,2.173,8.082L918,410.515s-.982,14.362-1.192,14.917S920.9,438.42,920.9,438.42Z" transform="translate(-563.052 -234.822)" fill="#fff"/>
    <path id="Tracé_94" data-name="Tracé 94" d="M921.306,438.2s.7,1.036,0,1.5.065,1.659.065,1.659-1.753,1.006-.982,1.918.283,5.008.283,5.008l-2.1,3.45s.126,2.211.138,5.2c0,4.662-.279,11.216-1.822,14.2l.21,24.516s-7.383,2.654-13.563,1.843l-.913-39.339s1.333-22.309,1.83-26.588a43.37,43.37,0,0,0,.348-6.7,73.953,73.953,0,0,0-.913-9.8s-.764-13.468-.844-17.2c-.034-1.783.061-6.986.168-11.933.118-5.409.252-10.511.252-10.511L901.62,364.44s1.841,0,2.265.559a3.625,3.625,0,0,0,.611.462h0c2.406,1.6,10.908,6.517,10.908,6.517s4.694,1.839,5.84,4.474a41.294,41.294,0,0,0,2.456,5.255c.546.751.844,4.279.844,4.279s1.62,6.494,2.884,7.594,2.177,8.082,2.177,8.082L918.433,410.3s-.982,14.362-1.2,14.917S921.306,438.2,921.306,438.2Z" transform="translate(-563.034 -234.603)" fill="#fff"/>
    <path id="Tracé_95" data-name="Tracé 95" d="M908.6,379.992l1.012,2.89-5.313,5.255c.118-5.409.252-10.511.252-10.511L902.71,366.64s1.841,0,2.265.559a3.619,3.619,0,0,0,.611.462h0l4.515,12.8Z" transform="translate(-563.707 -235.977)" opacity="0.1"/>
    <path id="Tracé_96" data-name="Tracé 96" d="M907.47,377.77l1.012,2.887-5.309,5.255c.115-5.409.252-10.51.252-10.51L901.58,364.41s1.845,0,2.265.559a3.815,3.815,0,0,0,.611.462h0L909,378.239Z" transform="translate(-563.009 -234.584)" fill="#fff"/>
    <path id="Tracé_97" data-name="Tracé 97" d="M874.713,302.435a12.6,12.6,0,0,1-.642,3.983.549.549,0,0,1-.412-.1c-.1-3.378-1.791-6.554-3.873-9.253a9.877,9.877,0,0,0-2.1-2.14,4.166,4.166,0,0,0-2.849-.792c-1.146.154-2.158.92-3.315,1.017-1.528.124-2.9-.916-4.411-.965a4.355,4.355,0,0,0-3.243,1.479,8.651,8.651,0,0,0-1.738,3.164,18.249,18.249,0,0,0-.97,5.466c-.019,1.051-.122,2.369-1.115,2.751a5.532,5.532,0,0,0-1.44-4.279l-.023-.026v-.308a13.072,13.072,0,0,1,26.141,0Z" transform="translate(-530.253 -187.85)" opacity="0.1"/>
    <path id="Tracé_98" data-name="Tracé 98" d="M860.639,268.08a9.144,9.144,0,0,0-6.348-.488c-1.058.308-2.055.807-3.128,1.059-2.292.544-4.965-.045-6.932,1.273a8.146,8.146,0,0,0-2.36,3.093l-1.528,2.857a18.379,18.379,0,0,0-2.02,4.88,6.155,6.155,0,0,0,.974,5.041c.806,1.006,2.005,1.64,2.884,2.59a5.568,5.568,0,0,1,1.436,4.291c.993-.375,1.092-1.7,1.115-2.751a18.275,18.275,0,0,1,.97-5.465,8.65,8.65,0,0,1,1.738-3.164,4.359,4.359,0,0,1,3.243-1.483c1.528.053,2.9,1.092,4.411.965,1.146-.094,2.162-.86,3.315-1.014a4.147,4.147,0,0,1,2.849.792,9.7,9.7,0,0,1,2.1,2.14c2.085,2.7,3.777,5.863,3.877,9.253.432.308,1.054-.1,1.268-.578a13.539,13.539,0,0,1,.493-1.5,5.617,5.617,0,0,1,1.383-1.212,5.256,5.256,0,0,0,1.444-4.253,20.826,20.826,0,0,1-.053-4.625c.18-.927.584-1.8.806-2.721a3.5,3.5,0,0,0-.275-2.744c-.764-1.16-2.372-1.393-3.774-1.5-1.593-.135-3.017.038-4.034-1.28a14.712,14.712,0,0,0-1.6-1.929C862.675,269.4,860.639,268.163,860.639,268.08Z" transform="translate(-523.818 -173.889)" fill="#512e4e"/>
    <path id="Tracé_99" data-name="Tracé 99" d="M779.782,468.3l-3.988-7.249-1.264,11.186a50.994,50.994,0,0,1,.561,5.732c-.141.762,2.88,7.594,2.88,7.594s9.98,17.474,14.056,18.371l13.75-9.67-3.652-4.557s-1.264-.484-1.581,0c0,0-6.783-11.464-7.482-12.29a4.117,4.117,0,0,1-.565-2.489s-1.054-1.1-.7-2.14-2.017-4.625-2.017-4.625l2.177-2Z" transform="translate(-484.486 -294.948)" opacity="0.1"/>
    <path id="Tracé_100" data-name="Tracé 100" d="M774.638,458.84l-1.054.83-1.264,11.186a50.98,50.98,0,0,1,.561,5.732c-.141.762,2.884,7.594,2.884,7.594s9.977,17.474,14.052,18.371l13.773-9.67-3.655-4.557s-1.264-.484-1.581,0c0,0-6.78-11.464-7.482-12.29a4.074,4.074,0,0,1-.561-2.489s-1.054-1.1-.7-2.14-2.04-4.625-2.04-4.625l2.177-2Z" transform="translate(-483.12 -293.568)" fill="#fff"/>
    <path id="Tracé_101" data-name="Tracé 101" d="M936.76,564.5c.764.912.283,5.011.283,5.011l-2.109,3.427s.126,2.215.134,5.2l-3.545,1.089a2.138,2.138,0,0,1-1.9-.328,2.059,2.059,0,0,1-.832-1.714l.615-19.369,8.269,3.1c-.7.48.069,1.659.069,1.659S935.988,563.589,936.76,564.5Z" transform="translate(-579.824 -355.393)" opacity="0.1"/>
    <path id="Tracé_102" data-name="Tracé 102" d="M937.872,563.4c.764.908.283,5.008.283,5.008l-2.1,3.431s.126,2.211.137,5.2l-3.609,1.107a2.088,2.088,0,0,1-1.86-.319,2.011,2.011,0,0,1-.814-1.674l.615-19.437,8.266,3.112c-.707.48.065,1.659.065,1.659S937.1,562.483,937.872,563.4Z" transform="translate(-580.517 -354.699)" fill="#fff"/>
    <path id="Tracé_103" data-name="Tracé 103" d="M947.233,544.87s-.561,3.525-1.967,3.731-2.036,5.7-3.438,5.511-.474-5.113-.424-6.066-1.528-4.9-.351-5.8,4.92,0,4.92,0Z" transform="translate(-587.135 -345.416)" fill="#cf6f80"/>
    <path id="Tracé_104" data-name="Tracé 104" d="M947.824,468.855l2.647-5.255a33.478,33.478,0,0,1,1.058,6.145c0,2.14,1.474,2.35,1.474,2.35s1.616,1.877.764,3.247-1.192,4.763-1.192,4.763.279,6.49-.986,7.387a5.058,5.058,0,0,0-1.547,3.04s-2.319,4.073-2.246,5.041-3.231,7.526-3.231,7.526,1.616-8.149-7.8-11.67c0,0-.073-2.763.63-3.521s1.8-1.126,1.111-4.94a44,44,0,0,1-.2-9.332c0-.92,2.109-6.652,2.109-6.652Z" transform="translate(-584.755 -296.541)" opacity="0.1"/>
    <path id="Tracé_105" data-name="Tracé 105" d="M950.392,461.6l2.315.751a33.474,33.474,0,0,1,1.058,6.145c0,2.14,1.474,2.35,1.474,2.35s1.616,1.877.764,3.247-1.2,4.764-1.2,4.764.283,6.49-.982,7.387a4.989,4.989,0,0,0-1.528,3.041s-2.318,4.073-2.246,5.041-3.235,7.526-3.235,7.526,1.616-8.149-7.8-11.67c0,0-.069-2.763.634-3.521s1.8-1.126,1.111-4.94a44,44,0,0,1-.2-9.332c0-.92,2.108-6.652,2.108-6.652Z" transform="translate(-586.146 -295.292)" fill="#fff"/>
    <path id="Tracé_106" data-name="Tracé 106" d="M834.92,822.43s3.69-2.279,6.111-.623S834.92,822.43,834.92,822.43Z" transform="translate(-521.81 -519.909)" opacity="0.1"/>
    <path id="Tracé_107" data-name="Tracé 107" d="M910,805.666a7.546,7.546,0,0,1,6.008,2.489C918.751,811.057,910,805.666,910,805.666Z" transform="translate(-568.213 -510.191)" opacity="0.1"/>
    <g id="Groupe_3" data-name="Groupe 3" transform="translate(314.346 101.616)" opacity="0.1">
      <path id="Tracé_108" data-name="Tracé 108" d="M879.2,307.264a5.717,5.717,0,0,0-1.387,1.213,13.858,13.858,0,0,0-.489,1.5c-.214.484-.837.886-1.272.578-.1-3.378-1.791-6.55-3.873-9.253a9.678,9.678,0,0,0-2.1-2.136,4.158,4.158,0,0,0-2.853-.8c-1.146.154-2.154.92-3.312,1.017-1.528.124-2.9-.916-4.415-.965a4.34,4.34,0,0,0-3.239,1.479,8.649,8.649,0,0,0-1.738,3.164,18.273,18.273,0,0,0-.97,5.466c-.023,1.047-.122,2.354-1.108,2.744a5.126,5.126,0,0,1,0,.837c1-.375,1.1-1.7,1.119-2.752a18.274,18.274,0,0,1,.97-5.465,8.648,8.648,0,0,1,1.738-3.164,4.355,4.355,0,0,1,3.239-1.483c1.528.053,2.9,1.092,4.415.965,1.146-.094,2.162-.86,3.312-1.013a4.158,4.158,0,0,1,2.853.792,9.691,9.691,0,0,1,2.1,2.14c2.082,2.7,3.774,5.863,3.873,9.253.435.308,1.058-.1,1.272-.578a14.388,14.388,0,0,1,.489-1.5,5.636,5.636,0,0,1,1.386-1.212,5.257,5.257,0,0,0,1.444-4.253V303.7A4.892,4.892,0,0,1,879.2,307.264Z" transform="translate(-846.99 -294.94)"/>
      <path id="Tracé_109" data-name="Tracé 109" d="M842.167,311.964c-.875-.95-2.074-1.588-2.88-2.594a5.388,5.388,0,0,1-1.112-3.071,5.712,5.712,0,0,0,1.112,3.9c.806,1.006,2.005,1.64,2.88,2.59a5.582,5.582,0,0,1,1.444,3.348A5.57,5.57,0,0,0,842.167,311.964Z" transform="translate(-838.155 -299.904)"/>
      <path id="Tracé_110" data-name="Tracé 110" d="M926.721,289.984c-.225.92-.626,1.794-.81,2.721a8.536,8.536,0,0,0-.118,1.9,7.16,7.16,0,0,1,.118-1.07c.183-.927.584-1.8.81-2.721a4.635,4.635,0,0,0,.126-1.554A5.119,5.119,0,0,1,926.721,289.984Z" transform="translate(-892.313 -289.26)"/>
    </g>
    <ellipse id="Ellipse_11" data-name="Ellipse 11" cx="37.217" cy="5.875" rx="37.217" ry="5.875" transform="translate(13.782 303.148)" fill="#6c63ff" opacity="0.1"/>
    <rect id="Rectangle_48" data-name="Rectangle 48" width="2.395" height="52.992" transform="translate(49.804 196.481)" fill="#535461"/>
    <path id="Tracé_111" data-name="Tracé 111" d="M138.631,676.746l-.153,2.387-.21,3.378-.088,1.4-.214,3.378-.092,1.4-.21,3.378-2.418,38.315a6.553,6.553,0,0,1-6.589,6.089H116.1a6.548,6.548,0,0,1-6.589-6.115L107.1,692.05l-.21-3.378-.088-1.4-.218-3.378-.088-1.4-.21-3.378-.153-2.387a3.345,3.345,0,0,1,.927-2.505,3.467,3.467,0,0,1,2.487-1.064h25.675a3.465,3.465,0,0,1,2.495,1.075A3.343,3.343,0,0,1,138.631,676.746Z" transform="translate(-71.38 -427.431)" fill="#3f3d56"/>
    <path id="Tracé_112" data-name="Tracé 112" d="M122.779,670.52l-.214,3.371H90.794l-.214-3.371Z" transform="translate(-55.68 -418.821)" fill="#9d9cb5"/>
    <path id="Tracé_113" data-name="Tracé 113" d="M122.965,683.24l-.21,3.371H91.584l-.214-3.371Z" transform="translate(-56.168 -426.766)" fill="#9d9cb5"/>
    <path id="Tracé_114" data-name="Tracé 114" d="M123.152,695.97l-.21,3.367H92.374l-.214-3.367Z" transform="translate(-56.656 -434.718)" fill="#9d9cb5"/>
    <path id="Tracé_115" data-name="Tracé 115" d="M47.21,577.473C61.159,587.39,66.968,602.9,66.968,602.9s-16.806-.567-30.759-10.484S16.44,567,16.44,567,33.246,567.555,47.21,577.473Z" transform="translate(-15.95 -361.127)" fill="#6c63ff"/>
    <path id="Tracé_116" data-name="Tracé 116" d="M16.44,567s17.444,9.516,23.039,17.395,27.474,18.514,27.474,18.514" transform="translate(-15.95 -361.127)" fill="none" stroke="#535461" stroke-miterlimit="10" stroke-width="2"/>
    <path id="Tracé_117" data-name="Tracé 117" d="M93.441,532.186A33.253,33.253,0,0,1,104.2,546.022a34.211,34.211,0,0,1-16.741-5.7A33.447,33.447,0,0,1,76.7,526.48,34.236,34.236,0,0,1,93.441,532.186Z" transform="translate(-53.194 -335.817)" fill="#6c63ff"/>
    <path id="Tracé_118" data-name="Tracé 118" d="M76.7,526.48s9.5,5.18,12.543,9.467S104.2,546.022,104.2,546.022" transform="translate(-53.194 -335.817)" fill="none" stroke="#535461" stroke-miterlimit="10" stroke-width="2"/>
    <path id="Tracé_119" data-name="Tracé 119" d="M160.475,556.787c-8.72,9.418-10.565,21.727-10.565,21.727s12.3-2.966,21.007-12.388S181.482,544.4,181.482,544.4,169.195,547.369,160.475,556.787Z" transform="translate(-98.441 -347.01)" fill="#6c63ff"/>
    <path id="Tracé_120" data-name="Tracé 120" d="M181.49,544.41s-11.359,9.655-14.247,16.306-17.333,17.8-17.333,17.8" transform="translate(-98.441 -347.017)" fill="none" stroke="#535461" stroke-miterlimit="10" stroke-width="2"/>
  </g>
</svg>
