<svg xmlns="http://www.w3.org/2000/svg" xmlns:xlink="http://www.w3.org/1999/xlink" width="399.844" height="264.866" viewBox="0 0 399.844 264.866">
  <defs>
    <linearGradient id="linear-gradient" x1="0.499" y1="1" x2="0.499" gradientUnits="objectBoundingBox">
      <stop offset="0" stop-color="gray" stop-opacity="0.251"/>
      <stop offset="0.54" stop-color="gray" stop-opacity="0.122"/>
      <stop offset="1" stop-color="gray" stop-opacity="0.102"/>
    </linearGradient>
  </defs>
  <g id="Groupe_17" data-name="Groupe 17" transform="translate(0.004 0.002)">
    <path id="Tracé_197" data-name="Tracé 197" d="M327.539,132.114c-25.633-.83-50.047-8.536-73.359-16.97s-46.4-17.777-71.422-22.245c-16.092-2.874-34.5-3.28-47.46,4.751-12.48,7.747-16.512,21.083-18.678,33.471-1.632,9.318-2.59,19.124,1.877,27.848,3.105,6.057,8.61,11.148,12.421,16.951,13.256,20.186,3.885,45.08-10.476,64.79-6.733,9.248-14.555,18.076-19.756,27.911s-7.6,21.12-3.054,31.161c4.507,9.96,15.252,17.427,26.893,22.684,23.641,10.676,51.488,13.734,78.662,15.464,60.134,3.833,120.586,2.173,180.879.513,22.314-.616,44.724-1.24,66.674-4.453,12.191-1.785,24.774-4.619,33.626-11.436,11.232-8.68,14.017-23.381,6.488-34.264-12.627-18.257-47.528-22.791-56.364-42.387-4.856-10.783.131-22.8,7.193-32.8,15.146-21.455,40.529-40.281,41.864-64.805.919-16.848-11.284-33.718-30.152-41.686-19.776-8.356-47.2-7.3-61.786,6.526C376.576,127.366,350.174,132.845,327.539,132.114Z" transform="translate(-95.23 -91.02)" fill="#6c63ff" opacity="0.1"/>
    <g id="Groupe_13" data-name="Groupe 13" transform="translate(20.533 124.302)" opacity="0.2">
      <path id="Tracé_198" data-name="Tracé 198" d="M328.789,711.881a8.6,8.6,0,0,1,.594,1.317q-4.753,1.671-9.506,3.5c-.067-.107-.135-.221-.2-.336a7.126,7.126,0,0,1-.986-3.855,4.447,4.447,0,0,1,2.376-3.94,5.2,5.2,0,0,1,4.832.369,7.845,7.845,0,0,1,2.887,2.94Z" transform="translate(-250.721 -604.783)" fill="#3f3d56"/>
      <path id="Tracé_311" data-name="Tracé 311" d="M5.028.107C7.834.188,10.193,3.115,10.3,6.644S8.216,12.97,5.411,12.889.245,9.882.14,6.352,2.223.027,5.028.107Z" transform="translate(62.007 99.234) rotate(-27.84)" fill="#3f3d56"/>
      <path id="Tracé_312" data-name="Tracé 312" d="M5.028.107C7.834.188,10.193,3.115,10.3,6.644S8.216,12.97,5.411,12.889.245,9.882.14,6.352,2.223.027,5.028.107Z" transform="translate(58.154 92.437) rotate(-27.84)" fill="#3f3d56"/>
      <path id="Tracé_313" data-name="Tracé 313" d="M5.028.107C7.834.188,10.193,3.115,10.3,6.644S8.216,12.97,5.411,12.889.245,9.882.14,6.352,2.223.027,5.028.107Z" transform="translate(54.3 85.641) rotate(-27.84)" fill="#3f3d56"/>
      <path id="Tracé_314" data-name="Tracé 314" d="M5.028.107C7.834.188,10.193,3.115,10.3,6.644S8.216,12.97,5.411,12.889.245,9.882.14,6.352,2.223.027,5.028.107Z" transform="translate(50.444 78.844) rotate(-27.84)" fill="#3f3d56"/>
      <path id="Tracé_199" data-name="Tracé 199" d="M161.73,472.024a26.012,26.012,0,0,1-3.018-1.476l10.943-7.747-12.908,6.467a22.707,22.707,0,0,1-9.557-15.918l22.148-.151-22.259-3.08c.349-8.611,5.834-16.318,14.212-19.972a26.211,26.211,0,0,1,25.57,2.622,22.238,22.238,0,0,1,9.206,22.374,25.071,25.071,0,0,1,4.594,2.486L189.38,472.806l13.644-13.343a22.093,22.093,0,0,1,7.311,20.839c11.777,4.876,17.551,17.364,13.264,28.684s-17.2,17.669-29.651,14.583S173.678,509,176,497.19c-10.414-4.317-16.305-14.711-14.258-25.155Z" transform="translate(-147.08 -427.975)" fill="#6c63ff"/>
      <path id="Tracé_200" data-name="Tracé 200" d="M251.264,529.261a21.544,21.544,0,0,1,2.46,14.878c11.777,4.876,17.551,17.364,13.264,28.684s-17.2,17.669-29.651,14.583-20.27-14.571-17.951-26.379C214.493,559.005,249.969,526.977,251.264,529.261Z" transform="translate(-190.468 -491.823)" opacity="0.1"/>
    </g>
    <g id="Groupe_14" data-name="Groupe 14" transform="translate(266.881 26.179)" opacity="0.2">
      <path id="Tracé_201" data-name="Tracé 201" d="M785.937,577.087a11.081,11.081,0,0,0-.547,1.918q6.9,1.442,13.8,3.132c.071-.159.143-.328.21-.5a9.851,9.851,0,0,0,.55-5.486,6.352,6.352,0,0,0-4.083-5,7.1,7.1,0,0,0-6.567,1.387A10.566,10.566,0,0,0,785.937,577.087Z" transform="translate(-778.926 -420.015)" fill="#3f3d56"/>
      <path id="Tracé_315" data-name="Tracé 315" d="M8.766.151c4.864.114,8.877,3.387,8.964,7.31s-3.785,7.011-8.649,6.9S.2,10.971.116,7.048,3.9.037,8.766.151Z" transform="matrix(0.341, -0.94, 0.94, 0.341, 7.786, 155.222)" fill="#3f3d56"/>
      <path id="Tracé_316" data-name="Tracé 316" d="M8.765.15c4.864.114,8.877,3.386,8.963,7.31s-3.786,7.012-8.649,6.9S.2,10.972.116,7.049,3.9.037,8.765.15Z" transform="matrix(0.34, -0.94, 0.94, 0.34, 11.281, 144.905)" fill="#3f3d56"/>
      <path id="Tracé_317" data-name="Tracé 317" d="M8.766.151c4.864.114,8.877,3.387,8.964,7.31s-3.785,7.011-8.649,6.9S.2,10.971.116,7.048,3.9.037,8.766.151Z" transform="matrix(0.341, -0.94, 0.94, 0.341, 15.609, 135.157)" fill="#3f3d56"/>
      <path id="Tracé_318" data-name="Tracé 318" d="M8.766.151c4.864.114,8.877,3.387,8.964,7.31s-3.785,7.011-8.649,6.9S.2,10.971.116,7.048,3.9.037,8.766.151Z" transform="matrix(0.341, -0.94, 0.94, 0.341, 19.519, 125.127)" fill="#3f3d56"/>
      <path id="Tracé_202" data-name="Tracé 202" d="M850.453,221.087a34.185,34.185,0,0,0,3.85-2.582l-16.635-8.688,19.078,6.6a30.849,30.849,0,0,0,9.9-23.588l-30.5,3.719,29.986-8.2c-2.246-11.776-11.365-21.4-23.632-24.936a36.079,36.079,0,0,0-34.625,8.136,30.409,30.409,0,0,0-8.1,32.393,34.237,34.237,0,0,0-5.81,4.231l18.615,18.877-21.494-15.94a30.246,30.246,0,0,0-5.783,29.962c-15.192,8.8-20.575,26.993-12.365,41.8s27.256,21.246,43.752,14.8,24.9-23.621,19.309-39.449c13.447-7.785,19.43-23.129,14.48-37.137Z" transform="translate(-769.092 -161.988)" fill="#6c63ff"/>
      <path id="Tracé_203" data-name="Tracé 203" d="M785.6,319.347a29.773,29.773,0,0,0-.341,20.906c-15.193,8.8-20.575,26.993-12.365,41.8s27.256,21.246,43.752,14.8,24.9-23.621,19.309-39.449C842.262,353.762,786.92,315.979,785.6,319.347Z" transform="translate(-769.068 -261.163)" opacity="0.1"/>
    </g>
    <ellipse id="Ellipse_37" data-name="Ellipse 37" cx="26.655" cy="4.774" rx="26.655" ry="4.774" transform="translate(44.82 232.234)" fill="#6c63ff"/>
    <ellipse id="Ellipse_38" data-name="Ellipse 38" cx="3.105" cy="3.785" rx="3.105" ry="3.785" transform="translate(67.923 231.194)" fill="#3f3d56"/>
    <ellipse id="Ellipse_39" data-name="Ellipse 39" cx="3.105" cy="3.785" rx="3.105" ry="3.785" transform="translate(67.923 226.568)" fill="#3f3d56"/>
    <ellipse id="Ellipse_40" data-name="Ellipse 40" cx="3.105" cy="3.785" rx="3.105" ry="3.785" transform="translate(67.923 221.942)" fill="#3f3d56"/>
    <ellipse id="Ellipse_41" data-name="Ellipse 41" cx="3.105" cy="3.785" rx="3.105" ry="3.785" transform="translate(67.923 217.319)" fill="#3f3d56"/>
    <ellipse id="Ellipse_42" data-name="Ellipse 42" cx="3.105" cy="3.785" rx="3.105" ry="3.785" transform="translate(67.923 212.693)" fill="#3f3d56"/>
    <ellipse id="Ellipse_43" data-name="Ellipse 43" cx="3.105" cy="3.785" rx="3.105" ry="3.785" transform="translate(67.923 208.067)" fill="#3f3d56"/>
    <ellipse id="Ellipse_44" data-name="Ellipse 44" cx="3.105" cy="3.785" rx="3.105" ry="3.785" transform="translate(67.923 203.445)" fill="#3f3d56"/>
    <path id="Tracé_204" data-name="Tracé 204" d="M263.41,528.648a13.581,13.581,0,0,0,1.153-1.586l-8.151-1.247,8.816.063a12.991,12.991,0,0,0,.285-10.971l-11.83,5.714,10.912-7.467a15.151,15.151,0,0,0-13.588-6.908,14.911,14.911,0,0,0-12.816,8.087,13.08,13.08,0,0,0,1.848,14.315,13.714,13.714,0,0,0-1.7,2.523l10.587,5.124-11.288-3.53a13.1,13.1,0,0,0,2.4,13,13.172,13.172,0,0,0,1.6,18.729,15.678,15.678,0,0,0,20.171,0,13.172,13.172,0,0,0,1.6-18.729,13.11,13.11,0,0,0,0-17.121Z" transform="translate(-180.761 -353.06)" fill="#6c63ff"/>
    <path id="Tracé_205" data-name="Tracé 205" d="M236.852,589.827a13.185,13.185,0,0,0,3.169,8.562,13.172,13.172,0,0,0,1.6,18.729,15.678,15.678,0,0,0,20.171,0,13.172,13.172,0,0,0,1.6-18.729C265.4,596.036,236.852,588.289,236.852,589.827Z" transform="translate(-180.755 -405.691)" opacity="0.1"/>
    <rect id="Rectangle_82" data-name="Rectangle 82" width="191.541" height="38.495" rx="7.42" transform="translate(106.305 65.8)" fill="#35323e"/>
    <path id="Tracé_206" data-name="Tracé 206" d="M401.363,143.17s2.721,68.922-2.1,76.99H562.336s-6.927-53.015,0-76.99Z" transform="translate(-278.847 -123.933)" fill="#fff"/>
    <path id="Tracé_207" data-name="Tracé 207" d="M401.363,143.17s2.721,68.922-2.1,76.99H562.336s-6.927-53.015,0-76.99Z" transform="translate(-278.847 -123.933)" opacity="0.03"/>
    <rect id="Rectangle_83" data-name="Rectangle 83" width="119.528" height="13.83" transform="translate(139.218 93.29)" fill="#35323e"/>
    <path id="Tracé_208" data-name="Tracé 208" d="M527.071,503.053H305.529a12.213,12.213,0,0,1-8.8-3.665,10.518,10.518,0,0,1-2.936-8.553l4.531-38.03q.448-3.792.646-7.6l.852-25.786q.293-8.739,1.267-17.434.507-4.508,1.188-9l5.826-37.805c1.533-9.782,10.536-17.037,21.15-17.043H338.1a21.813,21.813,0,0,1,12.44,3.9C359.7,348.4,385.74,353,416.435,353s56.736-4.6,65.921-10.982a21.813,21.813,0,0,1,12.44-3.9H509.13c6.219,0,11.54,4.16,12.619,9.865L529.57,389.3q1.188,6.3,2.016,12.653,1.378,10.562,1.731,21.216l.792,23.96a125.772,125.772,0,0,0,1.39,14.93l4.2,27.413a11.332,11.332,0,0,1-2.984,9.477A13.174,13.174,0,0,1,527.071,503.053Z" transform="translate(-215.106 -246.966)" fill="#464353"/>
    <rect id="Rectangle_84" data-name="Rectangle 84" width="211.586" height="84.711" rx="19.96" transform="translate(95.667 160.427)" opacity="0.1"/>
    <ellipse id="Ellipse_45" data-name="Ellipse 45" cx="6.064" cy="4.726" rx="6.064" ry="4.726" transform="translate(103.212 165.61)" fill="#6c63ff"/>
    <ellipse id="Ellipse_46" data-name="Ellipse 46" cx="6.064" cy="4.726" rx="6.064" ry="4.726" transform="translate(103.212 165.61)" opacity="0.1"/>
    <ellipse id="Ellipse_47" data-name="Ellipse 47" cx="6.064" cy="4.726" rx="6.064" ry="4.726" transform="translate(103.212 164.573)" fill="#6c63ff"/>
    <ellipse id="Ellipse_48" data-name="Ellipse 48" cx="6.064" cy="4.726" rx="6.064" ry="4.726" transform="translate(110.389 182.093)" fill="#35323e"/>
    <ellipse id="Ellipse_49" data-name="Ellipse 49" cx="6.064" cy="4.726" rx="6.064" ry="4.726" transform="translate(110.389 182.093)" opacity="0.1"/>
    <ellipse id="Ellipse_50" data-name="Ellipse 50" cx="6.064" cy="4.726" rx="6.064" ry="4.726" transform="translate(110.389 181.056)" fill="#35323e"/>
    <ellipse id="Ellipse_51" data-name="Ellipse 51" cx="6.064" cy="4.726" rx="6.064" ry="4.726" transform="translate(114.349 198.575)" fill="#35323e"/>
    <ellipse id="Ellipse_52" data-name="Ellipse 52" cx="6.064" cy="4.726" rx="6.064" ry="4.726" transform="translate(114.349 198.575)" opacity="0.1"/>
    <ellipse id="Ellipse_53" data-name="Ellipse 53" cx="6.064" cy="4.726" rx="6.064" ry="4.726" transform="translate(114.349 197.539)" fill="#35323e"/>
    <ellipse id="Ellipse_54" data-name="Ellipse 54" cx="6.064" cy="4.726" rx="6.064" ry="4.726" transform="translate(99.006 200.534)" fill="#35323e"/>
    <ellipse id="Ellipse_55" data-name="Ellipse 55" cx="6.064" cy="4.726" rx="6.064" ry="4.726" transform="translate(99.006 200.534)" opacity="0.1"/>
    <ellipse id="Ellipse_56" data-name="Ellipse 56" cx="6.064" cy="4.726" rx="6.064" ry="4.726" transform="translate(99.006 199.497)" fill="#35323e"/>
    <ellipse id="Ellipse_57" data-name="Ellipse 57" cx="6.064" cy="4.726" rx="6.064" ry="4.726" transform="translate(121.771 215.054)" fill="#35323e"/>
    <ellipse id="Ellipse_58" data-name="Ellipse 58" cx="6.064" cy="4.726" rx="6.064" ry="4.726" transform="translate(121.771 215.054)" opacity="0.1"/>
    <ellipse id="Ellipse_59" data-name="Ellipse 59" cx="6.064" cy="4.726" rx="6.064" ry="4.726" transform="translate(121.771 214.018)" fill="#35323e"/>
    <ellipse id="Ellipse_60" data-name="Ellipse 60" cx="6.064" cy="4.726" rx="6.064" ry="4.726" transform="translate(101.481 215.633)" fill="#35323e"/>
    <ellipse id="Ellipse_61" data-name="Ellipse 61" cx="6.064" cy="4.726" rx="6.064" ry="4.726" transform="translate(101.481 215.633)" opacity="0.1"/>
    <ellipse id="Ellipse_62" data-name="Ellipse 62" cx="6.064" cy="4.726" rx="6.064" ry="4.726" transform="translate(101.481 214.593)" fill="#35323e"/>
    <ellipse id="Ellipse_63" data-name="Ellipse 63" cx="6.064" cy="4.726" rx="6.064" ry="4.726" transform="translate(138.477 215.054)" fill="#35323e"/>
    <ellipse id="Ellipse_64" data-name="Ellipse 64" cx="6.064" cy="4.726" rx="6.064" ry="4.726" transform="translate(138.477 215.054)" opacity="0.1"/>
    <ellipse id="Ellipse_65" data-name="Ellipse 65" cx="6.064" cy="4.726" rx="6.064" ry="4.726" transform="translate(138.477 214.018)" fill="#35323e"/>
    <ellipse id="Ellipse_66" data-name="Ellipse 66" cx="6.064" cy="4.726" rx="6.064" ry="4.726" transform="translate(156.17 215.054)" fill="#35323e"/>
    <ellipse id="Ellipse_67" data-name="Ellipse 67" cx="6.064" cy="4.726" rx="6.064" ry="4.726" transform="translate(156.17 215.054)" opacity="0.1"/>
    <ellipse id="Ellipse_68" data-name="Ellipse 68" cx="6.064" cy="4.726" rx="6.064" ry="4.726" transform="translate(156.17 214.018)" fill="#35323e"/>
    <ellipse id="Ellipse_69" data-name="Ellipse 69" cx="6.064" cy="4.726" rx="6.064" ry="4.726" transform="translate(172.503 215.054)" fill="#35323e"/>
    <ellipse id="Ellipse_70" data-name="Ellipse 70" cx="6.064" cy="4.726" rx="6.064" ry="4.726" transform="translate(172.503 215.054)" opacity="0.1"/>
    <ellipse id="Ellipse_71" data-name="Ellipse 71" cx="6.064" cy="4.726" rx="6.064" ry="4.726" transform="translate(172.503 214.018)" fill="#35323e"/>
    <ellipse id="Ellipse_72" data-name="Ellipse 72" cx="6.064" cy="4.726" rx="6.064" ry="4.726" transform="translate(190.568 215.054)" fill="#35323e"/>
    <ellipse id="Ellipse_73" data-name="Ellipse 73" cx="6.064" cy="4.726" rx="6.064" ry="4.726" transform="translate(190.568 215.054)" opacity="0.1"/>
    <ellipse id="Ellipse_74" data-name="Ellipse 74" cx="6.064" cy="4.726" rx="6.064" ry="4.726" transform="translate(190.568 214.018)" fill="#35323e"/>
    <ellipse id="Ellipse_75" data-name="Ellipse 75" cx="6.064" cy="4.726" rx="6.064" ry="4.726" transform="translate(206.902 215.054)" fill="#35323e"/>
    <ellipse id="Ellipse_76" data-name="Ellipse 76" cx="6.064" cy="4.726" rx="6.064" ry="4.726" transform="translate(206.902 215.054)" opacity="0.1"/>
    <ellipse id="Ellipse_77" data-name="Ellipse 77" cx="6.064" cy="4.726" rx="6.064" ry="4.726" transform="translate(206.902 214.018)" fill="#35323e"/>
    <ellipse id="Ellipse_78" data-name="Ellipse 78" cx="6.064" cy="4.726" rx="6.064" ry="4.726" transform="translate(223.109 215.054)" fill="#35323e"/>
    <ellipse id="Ellipse_79" data-name="Ellipse 79" cx="6.064" cy="4.726" rx="6.064" ry="4.726" transform="translate(223.109 215.054)" opacity="0.1"/>
    <ellipse id="Ellipse_80" data-name="Ellipse 80" cx="6.064" cy="4.726" rx="6.064" ry="4.726" transform="translate(223.109 214.018)" fill="#35323e"/>
    <ellipse id="Ellipse_81" data-name="Ellipse 81" cx="6.064" cy="4.726" rx="6.064" ry="4.726" transform="translate(240.682 215.054)" fill="#35323e"/>
    <ellipse id="Ellipse_82" data-name="Ellipse 82" cx="6.064" cy="4.726" rx="6.064" ry="4.726" transform="translate(240.682 215.054)" opacity="0.1"/>
    <ellipse id="Ellipse_83" data-name="Ellipse 83" cx="6.064" cy="4.726" rx="6.064" ry="4.726" transform="translate(240.682 214.018)" fill="#35323e"/>
    <ellipse id="Ellipse_84" data-name="Ellipse 84" cx="6.064" cy="4.726" rx="6.064" ry="4.726" transform="translate(257.138 215.054)" fill="#35323e"/>
    <ellipse id="Ellipse_85" data-name="Ellipse 85" cx="6.064" cy="4.726" rx="6.064" ry="4.726" transform="translate(257.138 215.054)" opacity="0.1"/>
    <ellipse id="Ellipse_86" data-name="Ellipse 86" cx="6.064" cy="4.726" rx="6.064" ry="4.726" transform="translate(257.138 214.018)" fill="#35323e"/>
    <ellipse id="Ellipse_87" data-name="Ellipse 87" cx="6.064" cy="4.726" rx="6.064" ry="4.726" transform="translate(275.326 215.054)" fill="#35323e"/>
    <ellipse id="Ellipse_88" data-name="Ellipse 88" cx="6.064" cy="4.726" rx="6.064" ry="4.726" transform="translate(275.326 215.054)" opacity="0.1"/>
    <ellipse id="Ellipse_89" data-name="Ellipse 89" cx="6.064" cy="4.726" rx="6.064" ry="4.726" transform="translate(275.326 214.018)" fill="#35323e"/>
    <ellipse id="Ellipse_90" data-name="Ellipse 90" cx="6.064" cy="4.726" rx="6.064" ry="4.726" transform="translate(294.012 215.054)" fill="#35323e"/>
    <ellipse id="Ellipse_91" data-name="Ellipse 91" cx="6.064" cy="4.726" rx="6.064" ry="4.726" transform="translate(294.012 215.054)" opacity="0.1"/>
    <ellipse id="Ellipse_92" data-name="Ellipse 92" cx="6.064" cy="4.726" rx="6.064" ry="4.726" transform="translate(294.012 214.018)" fill="#35323e"/>
    <ellipse id="Ellipse_93" data-name="Ellipse 93" cx="6.064" cy="4.726" rx="6.064" ry="4.726" transform="translate(131.178 198.575)" fill="#35323e"/>
    <ellipse id="Ellipse_94" data-name="Ellipse 94" cx="6.064" cy="4.726" rx="6.064" ry="4.726" transform="translate(131.178 198.575)" opacity="0.1"/>
    <ellipse id="Ellipse_95" data-name="Ellipse 95" cx="6.064" cy="4.726" rx="6.064" ry="4.726" transform="translate(131.178 197.539)" fill="#35323e"/>
    <ellipse id="Ellipse_96" data-name="Ellipse 96" cx="6.064" cy="4.726" rx="6.064" ry="4.726" transform="translate(148.003 198.575)" fill="#35323e"/>
    <ellipse id="Ellipse_97" data-name="Ellipse 97" cx="6.064" cy="4.726" rx="6.064" ry="4.726" transform="translate(148.003 198.575)" opacity="0.1"/>
    <ellipse id="Ellipse_98" data-name="Ellipse 98" cx="6.064" cy="4.726" rx="6.064" ry="4.726" transform="translate(148.003 197.539)" fill="#35323e"/>
    <ellipse id="Ellipse_99" data-name="Ellipse 99" cx="6.064" cy="4.726" rx="6.064" ry="4.726" transform="translate(165.327 198.575)" fill="#35323e"/>
    <ellipse id="Ellipse_100" data-name="Ellipse 100" cx="6.064" cy="4.726" rx="6.064" ry="4.726" transform="translate(165.327 198.575)" opacity="0.1"/>
    <ellipse id="Ellipse_101" data-name="Ellipse 101" cx="6.064" cy="4.726" rx="6.064" ry="4.726" transform="translate(165.327 197.539)" fill="#35323e"/>
    <ellipse id="Ellipse_102" data-name="Ellipse 102" cx="6.064" cy="4.726" rx="6.064" ry="4.726" transform="translate(181.906 198.575)" fill="#35323e"/>
    <ellipse id="Ellipse_103" data-name="Ellipse 103" cx="6.064" cy="4.726" rx="6.064" ry="4.726" transform="translate(181.906 198.575)" opacity="0.1"/>
    <ellipse id="Ellipse_104" data-name="Ellipse 104" cx="6.064" cy="4.726" rx="6.064" ry="4.726" transform="translate(181.906 197.539)" fill="#35323e"/>
    <ellipse id="Ellipse_105" data-name="Ellipse 105" cx="6.064" cy="4.726" rx="6.064" ry="4.726" transform="translate(198.858 198.575)" fill="#35323e"/>
    <ellipse id="Ellipse_106" data-name="Ellipse 106" cx="6.064" cy="4.726" rx="6.064" ry="4.726" transform="translate(198.858 198.575)" opacity="0.1"/>
    <ellipse id="Ellipse_107" data-name="Ellipse 107" cx="6.064" cy="4.726" rx="6.064" ry="4.726" transform="translate(198.858 197.539)" fill="#35323e"/>
    <ellipse id="Ellipse_108" data-name="Ellipse 108" cx="6.064" cy="4.726" rx="6.064" ry="4.726" transform="translate(215.068 198.575)" fill="#35323e"/>
    <ellipse id="Ellipse_109" data-name="Ellipse 109" cx="6.064" cy="4.726" rx="6.064" ry="4.726" transform="translate(215.068 198.575)" opacity="0.1"/>
    <ellipse id="Ellipse_110" data-name="Ellipse 110" cx="6.064" cy="4.726" rx="6.064" ry="4.726" transform="translate(215.068 197.539)" fill="#35323e"/>
    <ellipse id="Ellipse_111" data-name="Ellipse 111" cx="6.064" cy="4.726" rx="6.064" ry="4.726" transform="translate(232.638 198.575)" fill="#35323e"/>
    <ellipse id="Ellipse_112" data-name="Ellipse 112" cx="6.064" cy="4.726" rx="6.064" ry="4.726" transform="translate(232.638 198.575)" opacity="0.1"/>
    <ellipse id="Ellipse_113" data-name="Ellipse 113" cx="6.064" cy="4.726" rx="6.064" ry="4.726" transform="translate(232.638 197.539)" fill="#35323e"/>
    <ellipse id="Ellipse_114" data-name="Ellipse 114" cx="6.064" cy="4.726" rx="6.064" ry="4.726" transform="translate(249.344 198.575)" fill="#35323e"/>
    <ellipse id="Ellipse_115" data-name="Ellipse 115" cx="6.064" cy="4.726" rx="6.064" ry="4.726" transform="translate(249.344 198.575)" opacity="0.1"/>
    <ellipse id="Ellipse_116" data-name="Ellipse 116" cx="6.064" cy="4.726" rx="6.064" ry="4.726" transform="translate(249.344 197.539)" fill="#35323e"/>
    <ellipse id="Ellipse_117" data-name="Ellipse 117" cx="6.064" cy="4.726" rx="6.064" ry="4.726" transform="translate(266.418 198.575)" fill="#35323e"/>
    <ellipse id="Ellipse_118" data-name="Ellipse 118" cx="6.064" cy="4.726" rx="6.064" ry="4.726" transform="translate(266.418 198.575)" opacity="0.1"/>
    <ellipse id="Ellipse_119" data-name="Ellipse 119" cx="6.064" cy="4.726" rx="6.064" ry="4.726" transform="translate(266.418 197.539)" fill="#35323e"/>
    <ellipse id="Ellipse_120" data-name="Ellipse 120" cx="6.064" cy="4.726" rx="6.064" ry="4.726" transform="translate(283.493 198.575)" fill="#35323e"/>
    <ellipse id="Ellipse_121" data-name="Ellipse 121" cx="6.064" cy="4.726" rx="6.064" ry="4.726" transform="translate(283.493 198.575)" opacity="0.1"/>
    <ellipse id="Ellipse_122" data-name="Ellipse 122" cx="6.064" cy="4.726" rx="6.064" ry="4.726" transform="translate(283.493 197.539)" fill="#35323e"/>
    <ellipse id="Ellipse_123" data-name="Ellipse 123" cx="6.064" cy="4.726" rx="6.064" ry="4.726" transform="translate(127.463 182.093)" fill="#35323e"/>
    <ellipse id="Ellipse_124" data-name="Ellipse 124" cx="6.064" cy="4.726" rx="6.064" ry="4.726" transform="translate(127.463 182.093)" opacity="0.1"/>
    <ellipse id="Ellipse_125" data-name="Ellipse 125" cx="6.064" cy="4.726" rx="6.064" ry="4.726" transform="translate(127.463 181.056)" fill="#35323e"/>
    <ellipse id="Ellipse_126" data-name="Ellipse 126" cx="6.064" cy="4.726" rx="6.064" ry="4.726" transform="translate(144.541 182.093)" fill="#35323e"/>
    <ellipse id="Ellipse_127" data-name="Ellipse 127" cx="6.064" cy="4.726" rx="6.064" ry="4.726" transform="translate(144.541 182.093)" opacity="0.1"/>
    <ellipse id="Ellipse_128" data-name="Ellipse 128" cx="6.064" cy="4.726" rx="6.064" ry="4.726" transform="translate(144.541 181.056)" fill="#35323e"/>
    <ellipse id="Ellipse_129" data-name="Ellipse 129" cx="6.064" cy="4.726" rx="6.064" ry="4.726" transform="translate(160.998 182.093)" fill="#35323e"/>
    <ellipse id="Ellipse_130" data-name="Ellipse 130" cx="6.064" cy="4.726" rx="6.064" ry="4.726" transform="translate(160.998 182.093)" opacity="0.1"/>
    <ellipse id="Ellipse_131" data-name="Ellipse 131" cx="6.064" cy="4.726" rx="6.064" ry="4.726" transform="translate(160.998 181.056)" fill="#35323e"/>
    <ellipse id="Ellipse_132" data-name="Ellipse 132" cx="6.064" cy="4.726" rx="6.064" ry="4.726" transform="translate(177.454 182.093)" fill="#35323e"/>
    <ellipse id="Ellipse_133" data-name="Ellipse 133" cx="6.064" cy="4.726" rx="6.064" ry="4.726" transform="translate(177.454 182.093)" opacity="0.1"/>
    <ellipse id="Ellipse_134" data-name="Ellipse 134" cx="6.064" cy="4.726" rx="6.064" ry="4.726" transform="translate(177.454 181.056)" fill="#35323e"/>
    <ellipse id="Ellipse_135" data-name="Ellipse 135" cx="6.064" cy="4.726" rx="6.064" ry="4.726" transform="translate(194.033 182.093)" fill="#35323e"/>
    <ellipse id="Ellipse_136" data-name="Ellipse 136" cx="6.064" cy="4.726" rx="6.064" ry="4.726" transform="translate(194.033 182.093)" opacity="0.1"/>
    <ellipse id="Ellipse_137" data-name="Ellipse 137" cx="6.064" cy="4.726" rx="6.064" ry="4.726" transform="translate(194.033 181.056)" fill="#35323e"/>
    <ellipse id="Ellipse_138" data-name="Ellipse 138" cx="6.064" cy="4.726" rx="6.064" ry="4.726" transform="translate(210.367 182.093)" fill="#35323e"/>
    <ellipse id="Ellipse_139" data-name="Ellipse 139" cx="6.064" cy="4.726" rx="6.064" ry="4.726" transform="translate(210.367 182.093)" opacity="0.1"/>
    <ellipse id="Ellipse_140" data-name="Ellipse 140" cx="6.064" cy="4.726" rx="6.064" ry="4.726" transform="translate(210.367 181.056)" fill="#35323e"/>
    <ellipse id="Ellipse_141" data-name="Ellipse 141" cx="6.064" cy="4.726" rx="6.064" ry="4.726" transform="translate(227.687 182.093)" fill="#35323e"/>
    <ellipse id="Ellipse_142" data-name="Ellipse 142" cx="6.064" cy="4.726" rx="6.064" ry="4.726" transform="translate(227.687 182.093)" opacity="0.1"/>
    <ellipse id="Ellipse_143" data-name="Ellipse 143" cx="6.064" cy="4.726" rx="6.064" ry="4.726" transform="translate(227.687 181.056)" fill="#35323e"/>
    <ellipse id="Ellipse_144" data-name="Ellipse 144" cx="6.064" cy="4.726" rx="6.064" ry="4.726" transform="translate(244.021 182.093)" fill="#35323e"/>
    <ellipse id="Ellipse_145" data-name="Ellipse 145" cx="6.064" cy="4.726" rx="6.064" ry="4.726" transform="translate(244.021 182.093)" opacity="0.1"/>
    <ellipse id="Ellipse_146" data-name="Ellipse 146" cx="6.064" cy="4.726" rx="6.064" ry="4.726" transform="translate(244.021 181.056)" fill="#35323e"/>
    <ellipse id="Ellipse_147" data-name="Ellipse 147" cx="6.064" cy="4.726" rx="6.064" ry="4.726" transform="translate(261.467 182.093)" fill="#35323e"/>
    <ellipse id="Ellipse_148" data-name="Ellipse 148" cx="6.064" cy="4.726" rx="6.064" ry="4.726" transform="translate(261.467 182.093)" opacity="0.1"/>
    <ellipse id="Ellipse_149" data-name="Ellipse 149" cx="6.064" cy="4.726" rx="6.064" ry="4.726" transform="translate(261.467 181.056)" fill="#35323e"/>
    <ellipse id="Ellipse_150" data-name="Ellipse 150" cx="6.064" cy="4.726" rx="6.064" ry="4.726" transform="translate(278.542 182.093)" fill="#35323e"/>
    <ellipse id="Ellipse_151" data-name="Ellipse 151" cx="6.064" cy="4.726" rx="6.064" ry="4.726" transform="translate(278.542 182.093)" opacity="0.1"/>
    <ellipse id="Ellipse_152" data-name="Ellipse 152" cx="6.064" cy="4.726" rx="6.064" ry="4.726" transform="translate(278.542 181.056)" fill="#35323e"/>
    <ellipse id="Ellipse_153" data-name="Ellipse 153" cx="6.064" cy="4.726" rx="6.064" ry="4.726" transform="translate(119.051 165.61)" fill="#35323e"/>
    <ellipse id="Ellipse_154" data-name="Ellipse 154" cx="6.064" cy="4.726" rx="6.064" ry="4.726" transform="translate(119.051 165.61)" opacity="0.1"/>
    <ellipse id="Ellipse_155" data-name="Ellipse 155" cx="6.064" cy="4.726" rx="6.064" ry="4.726" transform="translate(119.051 164.573)" fill="#35323e"/>
    <ellipse id="Ellipse_156" data-name="Ellipse 156" cx="6.064" cy="4.726" rx="6.064" ry="4.726" transform="translate(135.879 165.61)" fill="#35323e"/>
    <ellipse id="Ellipse_157" data-name="Ellipse 157" cx="6.064" cy="4.726" rx="6.064" ry="4.726" transform="translate(135.879 165.61)" opacity="0.1"/>
    <ellipse id="Ellipse_158" data-name="Ellipse 158" cx="6.064" cy="4.726" rx="6.064" ry="4.726" transform="translate(135.879 164.573)" fill="#35323e"/>
    <ellipse id="Ellipse_159" data-name="Ellipse 159" cx="6.064" cy="4.726" rx="6.064" ry="4.726" transform="translate(152.086 165.61)" fill="#35323e"/>
    <ellipse id="Ellipse_160" data-name="Ellipse 160" cx="6.064" cy="4.726" rx="6.064" ry="4.726" transform="translate(152.086 165.61)" opacity="0.1"/>
    <ellipse id="Ellipse_161" data-name="Ellipse 161" cx="6.064" cy="4.726" rx="6.064" ry="4.726" transform="translate(152.086 164.573)" fill="#35323e"/>
    <ellipse id="Ellipse_162" data-name="Ellipse 162" cx="6.064" cy="4.726" rx="6.064" ry="4.726" transform="translate(168.792 165.61)" fill="#35323e"/>
    <ellipse id="Ellipse_163" data-name="Ellipse 163" cx="6.064" cy="4.726" rx="6.064" ry="4.726" transform="translate(168.792 165.61)" opacity="0.1"/>
    <ellipse id="Ellipse_164" data-name="Ellipse 164" cx="6.064" cy="4.726" rx="6.064" ry="4.726" transform="translate(168.792 164.573)" fill="#35323e"/>
    <ellipse id="Ellipse_165" data-name="Ellipse 165" cx="6.064" cy="4.726" rx="6.064" ry="4.726" transform="translate(185.249 165.61)" fill="#35323e"/>
    <ellipse id="Ellipse_166" data-name="Ellipse 166" cx="6.064" cy="4.726" rx="6.064" ry="4.726" transform="translate(185.249 165.61)" opacity="0.1"/>
    <ellipse id="Ellipse_167" data-name="Ellipse 167" cx="6.064" cy="4.726" rx="6.064" ry="4.726" transform="translate(185.249 164.573)" fill="#35323e"/>
    <ellipse id="Ellipse_168" data-name="Ellipse 168" cx="6.064" cy="4.726" rx="6.064" ry="4.726" transform="translate(202.078 165.61)" fill="#35323e"/>
    <ellipse id="Ellipse_169" data-name="Ellipse 169" cx="6.064" cy="4.726" rx="6.064" ry="4.726" transform="translate(202.078 165.61)" opacity="0.1"/>
    <ellipse id="Ellipse_170" data-name="Ellipse 170" cx="6.064" cy="4.726" rx="6.064" ry="4.726" transform="translate(202.078 164.573)" fill="#35323e"/>
    <ellipse id="Ellipse_171" data-name="Ellipse 171" cx="6.064" cy="4.726" rx="6.064" ry="4.726" transform="translate(218.534 165.61)" fill="#35323e"/>
    <ellipse id="Ellipse_172" data-name="Ellipse 172" cx="6.064" cy="4.726" rx="6.064" ry="4.726" transform="translate(218.534 165.61)" opacity="0.1"/>
    <ellipse id="Ellipse_173" data-name="Ellipse 173" cx="6.064" cy="4.726" rx="6.064" ry="4.726" transform="translate(218.534 164.573)" fill="#35323e"/>
    <ellipse id="Ellipse_174" data-name="Ellipse 174" cx="6.064" cy="4.726" rx="6.064" ry="4.726" transform="translate(235.236 165.61)" fill="#35323e"/>
    <ellipse id="Ellipse_175" data-name="Ellipse 175" cx="6.064" cy="4.726" rx="6.064" ry="4.726" transform="translate(235.236 165.61)" opacity="0.1"/>
    <ellipse id="Ellipse_176" data-name="Ellipse 176" cx="6.064" cy="4.726" rx="6.064" ry="4.726" transform="translate(235.236 164.573)" fill="#35323e"/>
    <ellipse id="Ellipse_177" data-name="Ellipse 177" cx="6.064" cy="4.726" rx="6.064" ry="4.726" transform="translate(252.437 165.61)" fill="#35323e"/>
    <ellipse id="Ellipse_178" data-name="Ellipse 178" cx="6.064" cy="4.726" rx="6.064" ry="4.726" transform="translate(252.437 165.61)" opacity="0.1"/>
    <ellipse id="Ellipse_179" data-name="Ellipse 179" cx="6.064" cy="4.726" rx="6.064" ry="4.726" transform="translate(252.437 164.573)" fill="#35323e"/>
    <ellipse id="Ellipse_180" data-name="Ellipse 180" cx="6.064" cy="4.726" rx="6.064" ry="4.726" transform="translate(269.262 165.61)" fill="#35323e"/>
    <ellipse id="Ellipse_181" data-name="Ellipse 181" cx="6.064" cy="4.726" rx="6.064" ry="4.726" transform="translate(269.262 165.61)" opacity="0.1"/>
    <ellipse id="Ellipse_182" data-name="Ellipse 182" cx="6.064" cy="4.726" rx="6.064" ry="4.726" transform="translate(269.262 164.573)" fill="#35323e"/>
    <ellipse id="Ellipse_183" data-name="Ellipse 183" cx="6.064" cy="4.726" rx="6.064" ry="4.726" transform="translate(285.718 165.61)" fill="#6c63ff"/>
    <ellipse id="Ellipse_184" data-name="Ellipse 184" cx="6.064" cy="4.726" rx="6.064" ry="4.726" transform="translate(285.718 165.61)" opacity="0.1"/>
    <ellipse id="Ellipse_185" data-name="Ellipse 185" cx="6.064" cy="4.726" rx="6.064" ry="4.726" transform="translate(285.718 164.573)" fill="#6c63ff"/>
    <rect id="Rectangle_85" data-name="Rectangle 85" width="185.231" height="9.105" rx="4.552" transform="translate(109.276 230.847)" fill="#35323e"/>
    <rect id="Rectangle_86" data-name="Rectangle 86" width="185.231" height="9.105" rx="4.552" transform="translate(109.276 230.847)" opacity="0.1"/>
    <rect id="Rectangle_87" data-name="Rectangle 87" width="185.231" height="9.105" rx="4.552" transform="translate(109.276 230.153)" fill="#35323e"/>
    <path id="Tracé_209" data-name="Tracé 209" d="M568.683,396.649c0,9.739-33.1,20.168-70.408,20.168S433.32,405.58,433.32,395.841s27.649-14.291,64.955-14.291S568.683,386.91,568.683,396.649Z" transform="translate(-299.417 -274.374)" opacity="0.1"/>
    <ellipse id="Ellipse_186" data-name="Ellipse 186" cx="4.083" cy="9.392" rx="4.083" ry="9.392" transform="translate(297.969 74.908)" fill="#464353"/>
    <ellipse id="Ellipse_187" data-name="Ellipse 187" cx="4.083" cy="9.392" rx="4.083" ry="9.392" transform="translate(98.016 74.908)" fill="#464353"/>
    <rect id="Rectangle_88" data-name="Rectangle 88" width="196.983" height="2.767" transform="translate(105.069 82.053)" opacity="0.1"/>
    <rect id="Rectangle_89" data-name="Rectangle 89" width="196.983" height="2.767" transform="translate(105.069 81.592)" fill="#464353"/>
    <path id="Tracé_210" data-name="Tracé 210" d="M610.018,321.541c-1.612-.461-4.579,8.643-4.579,8.643h9.03S611.63,322,610.018,321.541Zm-.127,1.151a.871.871,0,0,1,.8.5.768.768,0,0,1-.185.882.914.914,0,0,1-.946.177.81.81,0,0,1-.536-.747.839.839,0,0,1,.867-.808Zm.1,2.6c1.057.24,2.931,4.541,2.931,4.541h-5.941s1.957-4.785,3.034-4.541Z" transform="translate(-403.366 -236.492)" fill="#464353"/>
    <path id="Tracé_211" data-name="Tracé 211" d="M542.81,401.966H312.3q.507-4.508,1.188-9l5.826-37.805c1.533-9.782,10.536-17.037,21.15-17.043h8.848a21.813,21.813,0,0,1,12.44,3.9c9.165,6.371,35.2,10.967,65.9,10.967s56.744-4.582,65.929-10.967a21.813,21.813,0,0,1,12.44-3.9h14.334c6.219,0,11.54,4.16,12.619,9.865l7.822,41.317Q541.982,395.625,542.81,401.966Z" transform="translate(-226.329 -246.966)" fill="#fff" opacity="0.03"/>
    <g id="woman" transform="translate(167.667 168.738)">
      <path id="Tracé_212" data-name="Tracé 212" d="M545.162,581.841s-4.543-7.747-3.774-8.994a16.179,16.179,0,0,0,1.327-3.08s1.679-1.07,1.679-1.512,1.327-1.446,2.028-1.885.349-2.516,0-2.767a5.626,5.626,0,0,1-.9-1.133s.483-1.258,0-1.634.071-.738,0-1.133a14.952,14.952,0,0,1,0-1.76,3.054,3.054,0,0,0-1.786-1.21l-.051-.2-.3-1.173s1.45-2.582-.9-3.955a4.724,4.724,0,0,0-.523-.258v-.17a10.309,10.309,0,0,0-.345-1.988c-.123-.369-.281-.609-.491-.553a.331.331,0,0,0-.131.07,1.372,1.372,0,0,0-.25.277h0a4.508,4.508,0,0,0-.555,1.439,7.782,7.782,0,0,0-.158.9h0a4.726,4.726,0,0,0-.269.561,2.991,2.991,0,0,0,0,2.774c.519.738,1.212,1.785,1.719,2.538v.026l.032.044-.052.033v.114l.044.634.4,5.478a2.517,2.517,0,0,0-.356-.07,3.147,3.147,0,0,0-.523-.033c-.341-1.247-1.279-2.413-1.446-3.715a2.6,2.6,0,0,1-.028-.391c0-.823.234-1.645.214-2.464a3.474,3.474,0,0,0,0-.454h0v-.125a3.715,3.715,0,0,0-2.162-2.8c-.4-.188-.844-.314-1.24-.52a21.921,21.921,0,0,1-2.321-1.922,2.7,2.7,0,0,0-2.222-.45,10.8,10.8,0,0,0-1.085.21h0a10.167,10.167,0,0,0-2.475.955c-.1.059-.21.118-.309.188a1.318,1.318,0,0,0-.5.542,1.347,1.347,0,0,0-.079.587v.432c-.047,2.405-2.832,4.276-3.062,6.64v.428h0v.188c.04,1.033.614,1.992.721,3.021v.273a4.3,4.3,0,0,1-.285,1.383,4.453,4.453,0,0,0-1.006.369,6,6,0,0,0-2.931,3.058,4.163,4.163,0,0,0-.214,1.343,26.192,26.192,0,0,1-.471,4.8,8.9,8.9,0,0,1-.3,1.181.249.249,0,0,0,0,.114l-.333,4.058-.063.716-.083,1.018s.024.063.059.166.091.28.135.469a2.385,2.385,0,0,1,.044,1.055.729.729,0,0,1-.238.369l-.028.03a2.947,2.947,0,0,0-.253,1.033c-.032.214-.055.446-.083.7-.162,1.6-.265,4-.325,5.987s-.079,3.5-.079,3.5a4.4,4.4,0,0,0,.867.4,1.671,1.671,0,0,0-.067.166,7.286,7.286,0,0,0-.527,2.066,3.578,3.578,0,0,0,2.523,3.973,3.7,3.7,0,0,0,.436.136,1.467,1.467,0,0,0,1.105-.063v.262c.024.369.044.7.051.985.071,1.76.539,4.84.539,4.84a5.925,5.925,0,0,1,.02,1.638,8.146,8.146,0,0,0,0,1.885s.491.738,0,1.133a3.8,3.8,0,0,0-.487,2.516.159.159,0,0,0,0,.03c.107.623-.5,9.909-.5,9.909s-.57,1.42-1.022,2.9-.792,2.925-.368,3.2a3.562,3.562,0,0,0,1.279.321v.188a5.145,5.145,0,0,1-.281,1.56,16.883,16.883,0,0,0-.5,3.32v.118a10.318,10.318,0,0,0-.523,1.409s-1.545,3.6-1.022,4.549a.752.752,0,0,0,.194.221h0a.285.285,0,0,0,.052.044,7.583,7.583,0,0,0,3.287.7l-.024.893v.063h.883v-.022c0-.114.02-.631.047-1.324v-.686a5.2,5.2,0,0,0,.4-2.01,8.194,8.194,0,0,1,.341-2.332,6.005,6.005,0,0,1,.448-1.136,4.839,4.839,0,0,0-.111-2.313,1.579,1.579,0,0,0-.317-.52.774.774,0,0,0,0-.1v-.207a7.945,7.945,0,0,1,.206-1.929.067.067,0,0,1,0-.03.527.527,0,0,1,.04-.155v-.033h.285c.875.026,1.521.026,1.521.026a28.216,28.216,0,0,0,.63-4.8v-.2a17.461,17.461,0,0,1,.424-3.39l.558-5.091a2.547,2.547,0,0,1,0-1.512c.174-.369.531-1.107.792-1.6.115-.232.21-.413.25-.491v-.041a1.223,1.223,0,0,1-.25-.118h0c-.23-.144-.432-.421.25-.826,1.05-.631.7-2.213.7-2.213a1.065,1.065,0,0,1,.055-1.07c.364-.5,0-2.391,0-2.391a7.517,7.517,0,0,0,.717-1.572c.261-.738.919-4.427,1.228-6.209.1-.583.166-.959.166-.959v.192h0l.087.837v.111l.159,1.586a45.417,45.417,0,0,1,.123,5.8.064.064,0,0,1,0,.029,1.693,1.693,0,0,1-.119.494c-.368.786-.3,3.9-.281,4.582v.14a2.279,2.279,0,0,0-.2,1.062h0a.672.672,0,0,0,.127.317.754.754,0,0,1,.127.491h0v.218a3.958,3.958,0,0,1-.246.852,2.694,2.694,0,0,0-.234,1.4h0a.483.483,0,0,0,.1.17.4.4,0,0,1,.051.181h0c.131,1.015-.206,5.489-.4,7.935-.079.967-.139,1.619-.139,1.619l-.554,5.345.055.033c.063.044.182.114.341.2h0l-.024.162c-.079.516-.186,1.107-.3,1.572a.931.931,0,0,0-.028.1,1.62,1.62,0,0,0-.594.221c-1.188,1.948-.657,3.49,0,3.94a1.511,1.511,0,0,1,.4.918l.162,1.94v.225a.538.538,0,0,0,.032.177l.052.587.067.819h.535v-.933h.032c.848.03,2.21.063,2.808.018h.158a.322.322,0,0,0,.1-.026c.313-.14,1.1-2.213.4-2.686a2.942,2.942,0,0,1-.863-1.8c-.063-.177-.123-.343-.186-.5a.847.847,0,0,1,0-.1,7.736,7.736,0,0,1,.083-1.726,12.757,12.757,0,0,0,.186-2.062v-.192a2.494,2.494,0,0,0,.36-.107h.028a2.6,2.6,0,0,0,.6-.332l1.961-8.175.206-.952,1.188-5.4s-.416-1.885,0-2.213c.154-.114.2-.6.186-1.166a17.671,17.671,0,0,0-.186-2.213s.558-.815.84-1.321a3.824,3.824,0,0,0,0-1.822l.558-3.018a27.085,27.085,0,0,1,2.17-6.607c1.133-2.213.4-8.216-.329-11.41l-.059-.24,1.224-.553.17-.074c.574-.251,1.188-.509,1.727-.738h.036q.583-.236,1.188-.417a1.839,1.839,0,0,1,.368-.07C548.1,586.614,545.162,581.841,545.162,581.841Zm-21.871,10.233h.289c-.036.059-.067.118-.1.181a.924.924,0,0,0-.055.107,5.853,5.853,0,0,0-.285.623c.032-.225.071-.469.115-.738ZM522.5,596v-.022a.078.078,0,0,0-.028-.07l-.048-.144c.1-.029.2-.059.3-.1h0v.052c0,.018-.02.14-.028.21h0v.2c0,.055-.032.21-.044.314l-.1-.28c-.024-.066-.04-.118-.059-.166Z" transform="translate(-518.57 -548.429)" fill="url(#linear-gradient)"/>
      <path id="Tracé_213" data-name="Tracé 213" d="M574.829,558.22l-1.743.579-.634-.981c-.487-.738-1.16-1.782-1.656-2.531-.875-1.317.269-3.32.269-3.32s.2-2.007.943-2.634.943,2.634.943,2.634c2.959,1.251,1.374,4.2,1.374,4.2l.285,1.169Z" transform="translate(-549.913 -548.949)" fill="#be6f72"/>
      <path id="Tracé_214" data-name="Tracé 214" d="M577.856,571.971l-1.743.579-.634-.981v-.085a3.237,3.237,0,0,1,2.167-.4Z" transform="translate(-552.94 -562.7)" opacity="0.1"/>
      <path id="Tracé_215" data-name="Tracé 215" d="M574.36,578.891l.875-.69-.44-6.2a2.941,2.941,0,0,1,2.161-.377,2.768,2.768,0,0,1,1.776,1.207,14.876,14.876,0,0,0,0,1.756c.067.369-.471.738,0,1.107s0,1.63,0,1.63a5.684,5.684,0,0,0,.867,1.129c.337.251.673,2.32,0,2.759s-1.953,1.442-1.953,1.881-1.612,1.5-1.612,1.5l-1.422-1.749Z" transform="translate(-552.263 -563.024)" fill="#6c63ff"/>
      <path id="Tracé_216" data-name="Tracé 216" d="M522.869,679.894c-3.264-1.287-2.539-4.427-1.925-6.021a8.717,8.717,0,0,1,.432-.937l1.83-1.037s.372.889.772,2.081C524.9,676.733,525.97,681.119,522.869,679.894Z" transform="translate(-519.684 -626.351)" fill="#be6f72"/>
      <path id="Tracé_217" data-name="Tracé 217" d="M531.426,770.047a4.886,4.886,0,0,0-.487,1.269,8.431,8.431,0,0,0-.2,2.158,7.677,7.677,0,0,0,.059.83l-3.636,2.328s.02-.273.055-.675a17.445,17.445,0,0,1,.475-3.3,5.19,5.19,0,0,0,.273-1.557c.055-.646.079-1.243.079-1.243S532.408,768.331,531.426,770.047Z" transform="translate(-523.758 -687.777)" fill="#be6f72"/>
      <path id="Tracé_218" data-name="Tracé 218" d="M554.162,775.432s0,.646-.024,1.4a13.424,13.424,0,0,1-.174,2.055,7.649,7.649,0,0,0-.083,1.719c.024.738.083,1.428.083,1.428s-3.711-3.265-3.335-3.523a1.568,1.568,0,0,0,.3-.738c.111-.457.214-1.055.289-1.568.091-.609.146-1.107.146-1.107Z" transform="translate(-537.915 -691.48)" fill="#be6f72"/>
      <path id="Tracé_219" data-name="Tracé 219" d="M532.652,770.047a4.884,4.884,0,0,0-.487,1.269q-1.492-.036-2.974-.214c.055-.646.079-1.243.079-1.243S533.634,768.331,532.652,770.047Z" transform="translate(-524.984 -687.777)" opacity="0.1"/>
      <path id="Tracé_220" data-name="Tracé 220" d="M555.1,775.463s0,.646-.024,1.4a4.269,4.269,0,0,1-2.923-.609c.091-.609.147-1.107.147-1.107Z" transform="translate(-538.85 -691.512)" opacity="0.1"/>
      <path id="Tracé_221" data-name="Tracé 221" d="M546.746,666.151a27.718,27.718,0,0,0-2.087,6.585l-.539,3.007a3.973,3.973,0,0,1,0,1.819c-.269.5-.792,1.317-.792,1.317s.4,3.073,0,3.387,0,2.191,0,2.191l-1.347,6.334-1.881,8.138c-1.818,1.38-4.234-.369-4.234-.369l.535-5.331s.792-9.341.471-9.717.135-1.564.135-1.564.471-1.129.135-1.568.067-1.38.067-1.38-.135-3.826.269-4.7,0-6.308,0-6.308l-.17-1.69-.091-.937v-.092l-.162.959c-.3,1.767-.931,5.434-1.188,6.19a7.508,7.508,0,0,1-.693,1.564s.352,1.881,0,2.383a1.1,1.1,0,0,0-.052,1.066s.337,1.568-.673,2.213,0,.941,0,.941-.741,1.505-1.01,2.132a2.581,2.581,0,0,0,0,1.5l-.539,5.08a17.229,17.229,0,0,0-.4,3.575,29.471,29.471,0,0,1-.606,4.763s-5.181,0-5.981-.564,1.339-6.079,1.339-6.079.606-9.654.471-9.905a3.884,3.884,0,0,1,.471-2.508c.471-.376,0-1.129,0-1.129a8.592,8.592,0,0,1,0-1.881,6.343,6.343,0,0,0-.024-1.631s-.448-3.069-.515-4.825-.4-5.707-.4-5.707.349-2.438.4-3.6a3.979,3.979,0,0,1,.479-1.476,13.268,13.268,0,0,1,1-1.642s15.953-4.386,16.635-3.947a5.4,5.4,0,0,1,.689,2.044C547.138,657.979,547.835,663.937,546.746,666.151Z" transform="translate(-522.899 -614.238)" fill="#6c63ff"/>
      <path id="Tracé_222" data-name="Tracé 222" d="M546.746,666.151a27.718,27.718,0,0,0-2.087,6.585l-.539,3.007a3.973,3.973,0,0,1,0,1.819c-.269.5-.792,1.317-.792,1.317s.4,3.073,0,3.387,0,2.191,0,2.191l-1.347,6.334-1.881,8.138c-1.818,1.38-4.234-.369-4.234-.369l.535-5.331s.792-9.341.471-9.717.135-1.564.135-1.564.471-1.129.135-1.568.067-1.38.067-1.38-.135-3.826.269-4.7,0-6.308,0-6.308l-.17-1.69-.091-.937v-.092l-.162.959c-.3,1.767-.931,5.434-1.188,6.19a7.508,7.508,0,0,1-.693,1.564s.352,1.881,0,2.383a1.1,1.1,0,0,0-.052,1.066s.337,1.568-.673,2.213,0,.941,0,.941-.741,1.505-1.01,2.132a2.581,2.581,0,0,0,0,1.5l-.539,5.08a17.229,17.229,0,0,0-.4,3.575,29.471,29.471,0,0,1-.606,4.763s-5.181,0-5.981-.564,1.339-6.079,1.339-6.079.606-9.654.471-9.905a3.884,3.884,0,0,1,.471-2.508c.471-.376,0-1.129,0-1.129a8.592,8.592,0,0,1,0-1.881,6.343,6.343,0,0,0-.024-1.631s-.448-3.069-.515-4.825-.4-5.707-.4-5.707.349-2.438.4-3.6a3.979,3.979,0,0,1,.479-1.476,13.268,13.268,0,0,1,1-1.642s15.953-4.386,16.635-3.947a5.4,5.4,0,0,1,.689,2.044C547.138,657.979,547.835,663.937,546.746,666.151Z" transform="translate(-522.899 -614.238)" opacity="0.15"/>
      <ellipse id="Ellipse_188" data-name="Ellipse 188" cx="4.646" cy="4.327" rx="4.646" ry="4.327" transform="translate(9.375 4.948)" fill="#a1616a"/>
      <path id="Tracé_223" data-name="Tracé 223" d="M550.074,654.781c-.535.255-.891.432-.891.432s-7.525,3.32-9.688,3.136c-1.659-.148-5.893-.066-7.735-.022a13.3,13.3,0,0,1,1-1.642s15.953-4.386,16.635-3.947A6.168,6.168,0,0,1,550.074,654.781Z" transform="translate(-526.536 -614.238)" opacity="0.1"/>
      <path id="Tracé_224" data-name="Tracé 224" d="M531.938,590.411s-4.309.627-5.315,1.254-3.03,1.819-3.03,4.386a23.332,23.332,0,0,1-.741,5.958c-.269.738,4.242,6.832,4.242,6.832l-1.616,9.223s6.468-.188,8.618,0,9.688-3.136,9.688-3.136,4.44-2.191,5.383-2.254-1.885-4.829-1.885-4.829-4.357-7.71-3.632-8.964a16.451,16.451,0,0,0,1.279-3.073l-.792-6.393a2.807,2.807,0,0,0-2.222.314c-1.01.69-4.444.314-4.444.314Z" transform="translate(-521.149 -574.231)" fill="#6c63ff"/>
      <path id="Tracé_225" data-name="Tracé 225" d="M522.961,617.243l-1.683.439-.467,5.9s.6,1.568,0,2.07-.741,11.222-.741,11.222a4.671,4.671,0,0,0,4.238.314s-.337-1.192.673-5.534a31.922,31.922,0,0,0,1-6.5s0-5.39.471-6.271,0-3.073,0-3.073-.943-1.191-.875-1.631S522.961,617.243,522.961,617.243Z" transform="translate(-519.476 -589.903)" opacity="0.1"/>
      <path id="Tracé_226" data-name="Tracé 226" d="M524.784,673.981a4.584,4.584,0,0,1-3.034-.107,8.717,8.717,0,0,1,.432-.937l1.83-1.037S524.384,672.789,524.784,673.981Z" transform="translate(-520.49 -626.351)" opacity="0.1"/>
      <path id="Tracé_227" data-name="Tracé 227" d="M522.705,617.243l-1.683.439-.471,5.9s.606,1.568,0,2.07-.741,11.222-.741,11.222a4.68,4.68,0,0,0,4.242.314s-.337-1.192.673-5.534a32.183,32.183,0,0,0,1.006-6.5s0-5.39.471-6.271,0-3.073,0-3.073-.939-1.191-.871-1.631S522.705,617.243,522.705,617.243Z" transform="translate(-519.319 -589.903)" fill="#6c63ff"/>
      <path id="Tracé_228" data-name="Tracé 228" d="M565.384,625.09s-.875,7.009-3.434,8.337C561.97,633.427,567.673,631.922,565.384,625.09Z" transform="translate(-544.769 -596.809)" opacity="0.1"/>
      <path id="Tracé_229" data-name="Tracé 229" d="M538.16,626.79s3.169,1.442,2.424,2.442S538.16,626.79,538.16,626.79Z" transform="translate(-530.401 -597.882)" opacity="0.1"/>
      <path id="Tracé_230" data-name="Tracé 230" d="M538.16,634.6s2.02,1.944,1.616,2.634S538.16,634.6,538.16,634.6Z" transform="translate(-530.401 -602.811)" opacity="0.1"/>
      <path id="Tracé_231" data-name="Tracé 231" d="M579.29,590.93a6.348,6.348,0,0,1,.863,2.07C580.225,593.815,579.29,590.93,579.29,590.93Z" transform="translate(-555.241 -575.251)" opacity="0.1"/>
      <path id="Tracé_232" data-name="Tracé 232" d="M579.29,586.1s.4-.314,1.41,0S579.29,586.1,579.29,586.1Z" transform="translate(-555.241 -572.116)" opacity="0.1"/>
      <path id="Tracé_233" data-name="Tracé 233" d="M560.532,683.366a9.967,9.967,0,0,1-4.919-.587l-.852,2.022-.091-.937c.139-.786.4-1.627.943-1.845A8.584,8.584,0,0,0,560.532,683.366Z" transform="translate(-540.372 -632.738)" opacity="0.1"/>
      <path id="Tracé_234" data-name="Tracé 234" d="M534.62,692.81a31.7,31.7,0,0,0,5.3.657Z" transform="translate(-528.263 -639.547)" opacity="0.1"/>
      <path id="Tracé_235" data-name="Tracé 235" d="M535.7,695.539a9.2,9.2,0,0,1,2.65.258Z" transform="translate(-528.915 -641.266)" opacity="0.1"/>
      <path id="Tracé_236" data-name="Tracé 236" d="M536.21,697.39a16.519,16.519,0,0,0,2.448.306Z" transform="translate(-529.223 -642.438)" opacity="0.1"/>
      <path id="Tracé_237" data-name="Tracé 237" d="M536,720.006c.079-.048,3.537-.8,3.961-.258Z" transform="translate(-529.096 -656.425)" opacity="0.1"/>
      <path id="Tracé_238" data-name="Tracé 238" d="M536,723.21s3.006-.328,3.081,0S536,723.21,536,723.21Z" transform="translate(-529.096 -658.641)" opacity="0.1"/>
      <path id="Tracé_239" data-name="Tracé 239" d="M536,725.041a22.71,22.71,0,0,1,3.565-.469C539.921,724.716,536,725.041,536,725.041Z" transform="translate(-529.096 -659.579)" opacity="0.1"/>
      <path id="Tracé_240" data-name="Tracé 240" d="M530.8,780.854l-3.636,2.328s.02-.273.055-.675a9.2,9.2,0,0,1,1.862-2.83,1.6,1.6,0,0,1,1.659.347A7.676,7.676,0,0,0,530.8,780.854Z" transform="translate(-523.758 -694.32)" opacity="0.1"/>
      <path id="Tracé_241" data-name="Tracé 241" d="M528.765,783.084a7.916,7.916,0,0,0-.756,3.457,5.052,5.052,0,0,1-.792,2.785,2.693,2.693,0,0,1-.253.339s-2.527,0-3.41-.7a.816.816,0,0,1-.234-.262c-.507-.941.982-4.537.982-4.537a9.771,9.771,0,0,1,2.376-4.253C529.522,779.229,528.765,783.084,528.765,783.084Z" transform="translate(-521.375 -694.465)" fill="#35323e"/>
      <path id="Tracé_242" data-name="Tracé 242" d="M527.784,796.771a2.686,2.686,0,0,1-.253.339s-2.527,0-3.41-.7c.436-1.339,1.822-5.393,2.471-4.7S527.637,795.454,527.784,796.771Z" transform="translate(-521.922 -701.911)" opacity="0.1"/>
      <path id="Tracé_243" data-name="Tracé 243" d="M532.224,791.963l-.174,6.08h.848s.135-5.327.515-6.072S532.224,791.963,532.224,791.963Z" transform="translate(-526.711 -701.917)" fill="#35323e"/>
      <path id="Tracé_244" data-name="Tracé 244" d="M553.964,786.543s-3.711-3.265-3.335-3.523a1.567,1.567,0,0,0,.3-.738c.713-.118,1.933.162,2.955,2.815C553.9,785.853,553.964,786.543,553.964,786.543Z" transform="translate(-537.915 -695.999)" opacity="0.1"/>
      <path id="Tracé_245" data-name="Tracé 245" d="M553.1,790.385a.542.542,0,0,1-.091.026,27.709,27.709,0,0,1-2.943,0,.616.616,0,0,1-.618-.59v-.8c-.044-.926-.166-2.029-.519-2.28-.63-.446-1.133-1.985,0-3.925,0,0,2.17-1.542,3.735,3.1a2.975,2.975,0,0,0,.832,1.8C554.18,788.183,553.4,790.245,553.1,790.385Z" transform="translate(-536.5 -696.197)" fill="#35323e"/>
      <path id="Tracé_246" data-name="Tracé 246" d="M554.831,797.1a27.743,27.743,0,0,1-2.943,0,.616.616,0,0,1-.618-.59v-.8c.273-1.107.665-2.28,1.188-2.542C552.423,793.164,553.955,793,554.831,797.1Z" transform="translate(-538.319 -702.881)" opacity="0.1"/>
      <path id="Tracé_247" data-name="Tracé 247" d="M455.38,701.038l.4,5.054h.519V700.61Z" transform="translate(-442.69 -610.892)" fill="#35323e"/>
      <path id="Tracé_248" data-name="Tracé 248" d="M539.734,554.88a9.741,9.741,0,0,0-4.143,1.24,1.665,1.665,0,0,0-.792.738,2.285,2.285,0,0,0-.063.9c.044,2.582-3.062,4.556-2.963,7.146.04,1.029.594,1.985.693,3.01.17,1.708-.915,3.283-1.957,4.7a4.373,4.373,0,0,0,2.951-.911,19.456,19.456,0,0,1,.4,10.506h1.489a1.227,1.227,0,0,1,.436.052,1.032,1.032,0,0,1,.345.24c1.39,1.287,2.325,3.195,1.79,4.958l3.169-1.107a9.827,9.827,0,0,0,2.19-.97,2.96,2.96,0,0,0,1.351-1.815c.083-.45.059-.992.456-1.254a2.694,2.694,0,0,1,.626-.214,2.535,2.535,0,0,0,1.43-2.066,11.011,11.011,0,0,0,.2-3.143c-.139-1.76-.7-3.549-.238-5.264a13.638,13.638,0,0,0,.887-2.859c.075-1.642-1.3-3.058-1.509-4.692-.143-1.136.3-2.287.154-3.427a3.7,3.7,0,0,0-2.079-2.8c-.4-.188-.816-.314-1.188-.517a20.937,20.937,0,0,1-2.234-1.918c-.8-.587-2.127-.808-2.725-.044Z" transform="translate(-525.781 -552.5)" opacity="0.1"/>
      <path id="Tracé_249" data-name="Tracé 249" d="M539.734,554.37a9.743,9.743,0,0,0-4.143,1.24,1.664,1.664,0,0,0-.792.738,2.285,2.285,0,0,0-.063.9c.044,2.582-3.062,4.556-2.963,7.146.04,1.029.594,1.988.693,3.01.17,1.712-.915,3.283-1.957,4.7a4.375,4.375,0,0,0,2.966-.9,19.456,19.456,0,0,1,.4,10.506h1.489a1.228,1.228,0,0,1,.436.052,1.033,1.033,0,0,1,.345.24c1.39,1.287,2.325,3.195,1.79,4.958l3.168-1.107a9.827,9.827,0,0,0,2.19-.97,2.961,2.961,0,0,0,1.351-1.815c.083-.45.059-.992.455-1.254a2.686,2.686,0,0,1,.626-.214,2.535,2.535,0,0,0,1.43-2.066,11.011,11.011,0,0,0,.2-3.143c-.139-1.76-.7-3.549-.238-5.264a14,14,0,0,0,.887-2.859c.075-1.642-1.3-3.058-1.509-4.693-.143-1.136.3-2.287.154-3.427a3.7,3.7,0,0,0-2.079-2.8c-.4-.188-.816-.313-1.188-.516a20.951,20.951,0,0,1-2.234-1.918c-.8-.587-2.127-.808-2.725-.044Z" transform="translate(-525.781 -552.178)" fill="#a26565"/>
      <g id="Groupe_15" data-name="Groupe 15" transform="translate(4.753 4.438)" opacity="0.1">
        <path id="Tracé_250" data-name="Tracé 250" d="M541.2,560.46v.173C541.193,560.578,541.2,560.519,541.2,560.46Z" transform="translate(-536.987 -560.46)"/>
        <path id="Tracé_251" data-name="Tracé 251" d="M570.879,572.7a14.821,14.821,0,0,0,.178-2.394,14.766,14.766,0,0,0-.178,2.394Z" transform="translate(-554.914 -566.676)"/>
        <path id="Tracé_252" data-name="Tracé 252" d="M534.42,582.867c-.091-.933-.558-1.811-.669-2.737a3.158,3.158,0,0,0-.024.513c.04,1.018.582,1.966.689,2.981a3.435,3.435,0,0,0,0-.756Z" transform="translate(-532.475 -572.874)"/>
        <path id="Tracé_253" data-name="Tracé 253" d="M572.2,593.144a5.967,5.967,0,0,0-.166,1.87,5.411,5.411,0,0,1,.166-1.085,13.989,13.989,0,0,0,.887-2.859,2.986,2.986,0,0,0-.028-.531A20.754,20.754,0,0,1,572.2,593.144Z" transform="translate(-555.605 -579.443)"/>
        <path id="Tracé_254" data-name="Tracé 254" d="M533.513,597.83a4.381,4.381,0,0,1-2.376.907c-.186.266-.4.531-.566.786a4.375,4.375,0,0,0,2.943-.893,19.5,19.5,0,0,1,.939,5.629A19.4,19.4,0,0,0,533.513,597.83Z" transform="translate(-530.57 -584.044)"/>
        <path id="Tracé_255" data-name="Tracé 255" d="M558.514,617.178a2.536,2.536,0,0,1-1.434,2.066,2.535,2.535,0,0,0-.626.218c-.4.262-.372.8-.455,1.25a2.96,2.96,0,0,1-1.351,1.815,9.832,9.832,0,0,1-2.19.97l-3.022,1.055a3.607,3.607,0,0,1-.147.837l3.169-1.107a9.833,9.833,0,0,0,2.19-.97A2.96,2.96,0,0,0,556,621.5c.083-.45.059-.992.455-1.254a2.691,2.691,0,0,1,.626-.214,2.547,2.547,0,0,0,1.434-2.066,11.154,11.154,0,0,0,.226-2.663A11.53,11.53,0,0,1,558.514,617.178Z" transform="translate(-541.876 -595.069)"/>
        <path id="Tracé_256" data-name="Tracé 256" d="M541.309,626.578a1.089,1.089,0,0,0-.344-.24,1.227,1.227,0,0,0-.436-.052H539.21c-.052.262-.107.524-.17.782h1.489a1.227,1.227,0,0,1,.436.052,1.031,1.031,0,0,1,.344.24,5.814,5.814,0,0,1,1.921,3.523A5.38,5.38,0,0,0,541.309,626.578Z" transform="translate(-535.685 -602.001)"/>
      </g>
      <path id="Tracé_257" data-name="Tracé 257" d="M526.12,640.641s1.188-.472,1.473,0S526.12,640.641,526.12,640.641Z" transform="translate(-523.13 -606.491)" opacity="0.1"/>
      <path id="Tracé_258" data-name="Tracé 258" d="M527.17,642.8s1.188-.472,1.473,0S527.17,642.8,527.17,642.8Z" transform="translate(-523.764 -607.854)" opacity="0.1"/>
    </g>
    <path id="Tracé_259" data-name="Tracé 259" d="M311.82,142.088l.107.775,3.616.476s.3-.207.76-.487a11.725,11.725,0,0,1,3.521-1.524c1.889-.347,7.921-2.866,5.973-3.032s-1.739.21-1.739.21a3.371,3.371,0,0,0-4.357-.166c-1.675,1.358-5.363,2.815-7.038,3.438Z" transform="translate(-226.039 -120.409)" fill="#efb7b9"/>
    <path id="Tracé_260" data-name="Tracé 260" d="M340.118,124.856a6.67,6.67,0,0,1,1.731-.413,2.223,2.223,0,0,1,1.652.513c.234.225.4.513.61.738,1.1,1.107,3.24.277,4.567,1.133a4.115,4.115,0,0,1,1.358,2.405c.289.885.816,1.863,1.79,2.051a5.7,5.7,0,0,0,1.414-.052,1.443,1.443,0,0,1,1.267.435c.452.635-.17,1.7.483,2.158.582.4,1.644-.162,2.052.4a.793.793,0,0,1-.139.922,6.512,6.512,0,0,0-.665.775,1.109,1.109,0,0,0,.07,1.206,1.3,1.3,0,0,0,1.173.513c.4-.037.852-.258,1.212-.066a.794.794,0,0,1,.364.631,1.7,1.7,0,0,1-1.584,1.752,4.226,4.226,0,0,1-1.98-.612,2.654,2.654,0,0,0-2.016-.306,3.226,3.226,0,0,0-.812.535,9.113,9.113,0,0,1-2.491,1.376,3.311,3.311,0,0,1-2.487.1c-.859-.409-1.3-1.409-2.214-1.712s-1.953.262-2.824.738-2.04.885-2.828.291-.586-1.918-1.105-2.811a2.814,2.814,0,0,0-.828-.848c-.582-.421-1.244-.738-1.826-1.144a2.861,2.861,0,0,1-1.252-1.631,3.169,3.169,0,0,1,.713-2.317,6.656,6.656,0,0,0,1.188-2.191c.111-.6,0-1.236.147-1.845a2.343,2.343,0,0,1,1.584-1.549c.428-.136.507-.1.721-.454a1.538,1.538,0,0,1,.955-.727Z" transform="translate(-239.9 -112.108)" fill="#f86d70"/>
    <g id="Groupe_16" data-name="Groupe 16" transform="translate(94.894 19.808)" opacity="0.1">
      <path id="Tracé_261" data-name="Tracé 261" d="M384.819,144.72a2.874,2.874,0,0,1,.067,1.081A2.676,2.676,0,0,1,384.819,144.72Z" transform="translate(-365.003 -144.72)"/>
      <path id="Tracé_262" data-name="Tracé 262" d="M388.659,152.81a1.1,1.1,0,0,0-.127.395,1.125,1.125,0,0,1,.044-1,6.5,6.5,0,0,1,.665-.775,1.188,1.188,0,0,0,.194-.35.264.264,0,0,1,.028.033.779.779,0,0,1-.139.922,6.976,6.976,0,0,0-.665.775Z" transform="translate(-367.204 -148.734)"/>
      <path id="Tracé_263" data-name="Tracé 263" d="M336.021,150.678c.582.413,1.244.738,1.826,1.144a2.864,2.864,0,0,1,.828.848c.519.893.257,2.173,1.1,2.811s1.961.2,2.828-.291,1.869-1.059,2.824-.738,1.355,1.3,2.214,1.712a3.277,3.277,0,0,0,2.487-.1,9.113,9.113,0,0,0,2.491-1.376,3.226,3.226,0,0,1,.812-.535,2.617,2.617,0,0,1,2.016.306,4.1,4.1,0,0,0,1.98.612,1.733,1.733,0,0,0,1.584-1.476,1.108,1.108,0,0,1,.083.317,1.692,1.692,0,0,1-1.584,1.752,4.2,4.2,0,0,1-1.98-.612,2.661,2.661,0,0,0-2.02-.306,3.271,3.271,0,0,0-.792.535,9.168,9.168,0,0,1-2.491,1.376,3.311,3.311,0,0,1-2.487.1c-.863-.409-1.3-1.409-2.218-1.712s-1.953.262-2.82.738-2.04.882-2.828.291c-.852-.638-.59-1.918-1.109-2.811a2.769,2.769,0,0,0-.828-.848c-.578-.421-1.24-.738-1.826-1.144a2.838,2.838,0,0,1-1.248-1.631,1.77,1.77,0,0,1-.04-.432A3.017,3.017,0,0,0,336.021,150.678Z" transform="translate(-334.828 -147.554)"/>
    </g>
    <path id="Tracé_264" data-name="Tracé 264" d="M339.751,203.265l-1.311.262a2.325,2.325,0,0,0,3.287.682C343.72,202.91,339.751,203.265,339.751,203.265Z" transform="translate(-242.116 -161.831)" fill="#4c4981"/>
    <path id="Tracé_265" data-name="Tracé 265" d="M339.751,203.265l-1.311.262a2.325,2.325,0,0,0,3.287.682C343.72,202.91,339.751,203.265,339.751,203.265Z" transform="translate(-242.116 -161.831)" opacity="0.1"/>
    <path id="Tracé_266" data-name="Tracé 266" d="M413.65,248.508s1.818.874,3.513,1.889a9.664,9.664,0,0,1,2.745,2.118c.9,1.428,5.288,2.97,5.288,2.97l4.357,3.088a6.074,6.074,0,0,1,2.432,2c.127.159.194.258.194.258l1.747-.21.919-1.107s.234-2.453-1.584-2.424a2.748,2.748,0,0,1-1.022-.243,21.658,21.658,0,0,1-4.678-3.32s-4.638-5.4-6.024-5.574a2.41,2.41,0,0,1-.436-.1,14.21,14.21,0,0,1-3.43-2.154Z" transform="translate(-287.538 -188.633)" fill="#efb7b9"/>
    <path id="Tracé_267" data-name="Tracé 267" d="M368.111,284.865a36.9,36.9,0,0,0,3.248,8.573,13.021,13.021,0,0,1,1.283,3.84l.246,1.778a2.029,2.029,0,0,0,.273.712,4.025,4.025,0,0,0,.242.369l3.493-1s-.2-.738-.507-1.608a7.132,7.132,0,0,0-1.188-2.335c-.852-.782-.982-3.534-.982-3.534s-.709-5.3-.927-5.961a8.51,8.51,0,0,1-.4-1.955c-.032-.369-.055-.76-.059-1.221a23.46,23.46,0,0,0-.551-3.932l-4.076.69-.107,4.239a2.651,2.651,0,0,0,.008,1.346Z" transform="translate(-259.98 -209.396)" fill="#efb7b9"/>
    <path id="Tracé_268" data-name="Tracé 268" d="M459.93,279.626c.127.159.194.258.194.258l1.747-.21.919-1.107s.234-2.453-1.584-2.424a2.748,2.748,0,0,1-1.022-.243c-.147.738.737,1.343.737,1.343s.364.247.277,1.4C461.146,279.43,460.4,279.6,459.93,279.626Z" transform="translate(-315.488 -207.699)" opacity="0.1"/>
    <path id="Tracé_269" data-name="Tracé 269" d="M459.45,274.157c.115.395,1.216.978,1.98,1.339.376.181.669.306.729.332.178.081,1.1-.878,1.228-1.649S465.72,271,465.72,271a8.158,8.158,0,0,0,.82-3.01c.083-1.051-.4-1.133-.939-.9a3.729,3.729,0,0,0-1.05.767,2.848,2.848,0,0,1-1.355.653,6.905,6.905,0,0,0-1.957.778c-.535.321-1.054.712-1.149,1.059-.2.756.725,1.4.725,1.4s.364.251.281,1.4S459.438,274.12,459.45,274.157Z" transform="translate(-315.198 -202.071)" fill="#ff6484"/>
    <path id="Tracé_270" data-name="Tracé 270" d="M464.45,275.5c.376.181.669.306.729.332.178.081,1.1-.878,1.228-1.649s2.333-3.18,2.333-3.18a8.158,8.158,0,0,0,.82-3.01c.083-1.051-.4-1.133-.939-.9a10.4,10.4,0,0,1-.792,3.3C467.3,271.394,465.064,274.622,464.45,275.5Z" transform="translate(-318.218 -202.071)" opacity="0.1"/>
    <path id="Tracé_271" data-name="Tracé 271" d="M380.836,331.987a.468.468,0,0,1-.032.063,4.027,4.027,0,0,0,.242.369l3.493-1s-.2-.738-.507-1.608c-1.382-.369-3.363,1.892-3.363,1.892Z" transform="translate(-267.62 -241.696)" opacity="0.1"/>
    <path id="Tracé_272" data-name="Tracé 272" d="M380.4,334.655a15.1,15.1,0,0,0,4.226.8c.994-.111,1.038-.542.97-1.428-.024-.28-.055-.609-.071-.989-.067-1.568-.745-1.881-.745-1.881-1.109-2.711-4.305.926-4.305.926l.17.3a3.045,3.045,0,0,0-.329,1.476A3.915,3.915,0,0,0,380.4,334.655Z" transform="translate(-267.406 -241.94)" fill="#ff6484"/>
    <path id="Tracé_273" data-name="Tracé 273" d="M380.4,340.993a15.1,15.1,0,0,0,4.226.8c.994-.111,1.038-.542.97-1.428a3.238,3.238,0,0,1-2.376.638,9.932,9.932,0,0,1-2.9-.808A3.915,3.915,0,0,0,380.4,340.993Z" transform="translate(-267.409 -248.278)" opacity="0.1"/>
    <path id="Tracé_274" data-name="Tracé 274" d="M344,155.638l1.133,4.645.23.955,2.111.247,2.17.258,2.376-.8a6.894,6.894,0,0,0,.115-3.663,2.339,2.339,0,0,0-1.093-1.343,2.2,2.2,0,0,1-.455-.332,1.783,1.783,0,0,1-.4-.505,2.024,2.024,0,0,1-.206-.738,5,5,0,0,1,.733-2.619s-5.014-1.594-4.622-.564c.254.668-.451,1.845-.978,2.56-.285.4-.519.671-.519.671Z" transform="translate(-245.474 -128.769)" fill="#efb7b9"/>
    <ellipse id="Ellipse_189" data-name="Ellipse 189" cx="4.353" cy="4.054" rx="4.353" ry="4.054" transform="translate(98.709 16.979)" opacity="0.1"/>
    <ellipse id="Ellipse_190" data-name="Ellipse 190" cx="4.353" cy="4.054" rx="4.353" ry="4.054" transform="translate(98.685 16.828)" fill="#efb7b9"/>
    <path id="Tracé_275" data-name="Tracé 275" d="M344.174,178.351a9.555,9.555,0,0,0,1.153,2.3l6.076,1.391,4.357-4.22v-.026c-.135-.395-1.794-5.386-.594-6.618s.792-4.884.792-4.884-2.17-2.328-2.606-2.889-3.256-1-3.256-1c.139.177.269.347.4.505a4.956,4.956,0,0,1,.693,1.372,1.914,1.914,0,0,1-.059,1.476,1.7,1.7,0,0,0-.147.369c-.475,1.937-2.638,1.667-3.5,1.476-.222-.052-.356-.1-.356-.1l-2.071.063-1.3.041s.59,9.54.452,10.3a1.033,1.033,0,0,0-.028.446Z" transform="translate(-245.323 -136.069)" fill="#ff6484"/>
    <path id="Tracé_276" data-name="Tracé 276" d="M343.638,176.9l3.771-.461h-.071q-.181-.038-.357-.092l-2.071.063-1.3.041S343.622,176.608,343.638,176.9Z" transform="translate(-245.238 -144.873)" fill="#925978"/>
    <path id="Tracé_277" data-name="Tracé 277" d="M259.12,121.494l1.636.373,2.57-.314L264,120.9Z" transform="translate(-156.494 -76.301)" fill="#925978"/>
    <path id="Tracé_278" data-name="Tracé 278" d="M265.98,123.975l.741.17.3-.3Z" transform="translate(-160.637 -78.163)" fill="#925978"/>
    <path id="Tracé_279" data-name="Tracé 279" d="M344.071,175.991c.97.092,1.865.136,1.865.136l5.006-.173v-4.873a7.594,7.594,0,0,0-2.016-1.24c-.871-.28-1.9-1.14-1.707-3.416a3,3,0,0,1,.044-.406,5.154,5.154,0,0,0,.044-.764,3.967,3.967,0,0,0-1.386-3l-.075-.059-.816-3.534a.983.983,0,0,0-.162.018c-.285.4-.519.671-.519.671l-.6,1.228,1.133,4.645-1.3.041s.59,9.54.452,10.3a1.035,1.035,0,0,0,.04.428Z" transform="translate(-245.22 -133.709)" opacity="0.1"/>
    <path id="Tracé_280" data-name="Tracé 280" d="M337.826,176.159l5.006-.173v-4.87a7.467,7.467,0,0,0-2-1.251c-.923-.3-2.02-1.243-1.664-3.826a4.059,4.059,0,0,0-1.343-3.767l-.075-.059-.816-3.534a1.806,1.806,0,0,0-1.291.69,3.389,3.389,0,0,1-.3.391.825.825,0,0,1-1.006.28c-.527-.218-2.8-1.107-3.307-.236s-.606,6.094-.606,6.094a3.96,3.96,0,0,1,1.473,2.258c.349,1.476.931,1.527.931,1.527l.626,4.279s.57.93.147,1.442" transform="translate(-237.272 -133.722)" fill="#444053"/>
    <path id="Tracé_281" data-name="Tracé 281" d="M342.84,159.791l.852,2.379,1.632.133-.075-.059-.816-3.534a1.806,1.806,0,0,0-1.291.69A3.392,3.392,0,0,1,342.84,159.791Z" transform="translate(-244.773 -133.741)" fill="#444053"/>
    <path id="Tracé_282" data-name="Tracé 282" d="M311.82,149.228l.107.775,3.616.476s.3-.207.76-.487c-.4-.081-2.178-.446-3.121-.738-.345-.1-.578-.184-.586-.243s.024-.066.079-.111Z" transform="translate(-226.039 -127.549)" opacity="0.1"/>
    <path id="Tracé_283" data-name="Tracé 283" d="M299.624,152.466s4.1,2.9,6.634,3.364c0,0,3.565.985,4.975,2.121l1.541-5.493-.915-.6a3.452,3.452,0,0,1-2.087.432c-.966-.214-2.028-.339-2.028-.339a16.846,16.846,0,0,0-2.6-.664c-.689-.052-.4-.885.277-1.328a2.317,2.317,0,0,1,.289-.151.924.924,0,0,0,1.16.243,2.52,2.52,0,0,0,.673-.583h0a7.642,7.642,0,0,0,.76-1.074s-2.135-.424-3.2-.738c-.345-.1-.578-.184-.586-.24-.032-.229,1.905-.948,1.905-.948s-1.66-.738-2.333-.207c0,0,.432.306.083.605s-4.6,3.339-4.6,3.339S297.461,151.167,299.624,152.466Z" transform="translate(-218.085 -125.763)" fill="#444053"/>
    <path id="Tracé_284" data-name="Tracé 284" d="M310,152.666l2.266.3a2.319,2.319,0,0,1,.289-.151.924.924,0,0,0,1.16.243,2.521,2.521,0,0,0,.673-.583h0a7.906,7.906,0,0,0,.622-.9s-2.139-.428-3.2-.738Z" transform="translate(-224.94 -128.774)" opacity="0.1"/>
    <path id="Tracé_285" data-name="Tracé 285" d="M310.33,152.193l2.416.321a.924.924,0,0,0,1.16.243,5.364,5.364,0,0,0,1.434-1.66s-2.135-.424-3.2-.738Z" transform="translate(-225.139 -128.471)" fill="#444053"/>
    <path id="Tracé_286" data-name="Tracé 286" d="M417.67,245.65l-4.02,2.833s1.818.874,3.513,1.889c1.481-.933,2.879-1.793,3.937-2.582A13.853,13.853,0,0,1,417.67,245.65Z" transform="translate(-287.538 -188.608)" opacity="0.1"/>
    <path id="Tracé_287" data-name="Tracé 287" d="M368.109,284.815a14.581,14.581,0,0,0,2.947-.657s.741-.151,1.842-.494c-.032-.369-.055-.76-.059-1.221a23.46,23.46,0,0,0-.551-3.932l-4.076.69-.107,4.239A2.652,2.652,0,0,0,368.109,284.815Z" transform="translate(-259.977 -209.346)" opacity="0.1"/>
    <path id="Tracé_288" data-name="Tracé 288" d="M346.214,219.085c.824,1.133,3.062,5.928,3.062,5.928a19.935,19.935,0,0,0,1.7,2.446c.891,1.048,1.509,3.394,2.186,5.272s-.2,1.524-.1,2.512,3.921-.284,3.921-.284,7.826-1.6,10.214-6.05,11.937-8.485,13.862-10.99-.551-1.476-.452-2.826a3.709,3.709,0,0,0-1.01-2.494s-3.6-.944-4.186-1.6a25.2,25.2,0,0,0-3.462-2.309,20.849,20.849,0,0,1-3.054-1.476,21.819,21.819,0,0,0-4.543-1.793,4.548,4.548,0,0,1-1.949-1.531s-.61.074-1.509-.738-4.666-1.509-4.666-1.509c-6.444,4.4-10.892,3.77-10.892,3.77l-.1.834C341.818,210.394,345.4,217.957,346.214,219.085Z" transform="translate(-245.343 -160.834)" fill="#ff6484"/>
    <path id="Tracé_289" data-name="Tracé 289" d="M347.47,206.254s5.545,1.708,10.995-4.6c-6.444,4.4-10.892,3.77-10.892,3.77Z" transform="translate(-247.569 -160.84)" opacity="0.1"/>
    <path id="Tracé_290" data-name="Tracé 290" d="M371.65,222.128s7.474,10.045,7.921,10.414S372.042,222,371.65,222.128Z" transform="translate(-262.172 -173.763)" opacity="0.1"/>
    <path id="Tracé_291" data-name="Tracé 291" d="M362.93,220s5.177,7.485,5.07,8.485C368,228.507,362.989,221.313,362.93,220Z" transform="translate(-256.906 -172.421)" opacity="0.1"/>
    <path id="Tracé_292" data-name="Tracé 292" d="M354.583,225.61s.955,4.187-.483,6.555Z" transform="translate(-251.573 -175.961)" opacity="0.1"/>
    <path id="Tracé_293" data-name="Tracé 293" d="M349.539,226.27s-.063,3.619-.5,4.364Z" transform="translate(-248.517 -176.377)" opacity="0.1"/>
    <path id="Tracé_294" data-name="Tracé 294" d="M287.07,126.49,293.942,129l-2.515.306Z" transform="translate(-173.374 -79.829)" opacity="0.1"/>
    <path id="Tracé_295" data-name="Tracé 295" d="M345.967,137.3c.345.21.63.553,1.038.6a1.7,1.7,0,0,0,.844-.2,3.325,3.325,0,0,1,2.17-.273c1.01.314,1.564,1.394,2.57,1.715a1.91,1.91,0,0,0,1.505-.155,1.669,1.669,0,0,0,.792-1.014,2.029,2.029,0,0,0-.792-1.974,4.886,4.886,0,0,0-2.135-.9,22.806,22.806,0,0,0-6.183-.133.959.959,0,0,0-.483.118,2.588,2.588,0,0,0-.737,1.682C344.724,137.258,345.912,136.882,345.967,137.3Z" transform="translate(-245.801 -118.664)" opacity="0.1"/>
    <path id="Tracé_296" data-name="Tracé 296" d="M345.912,136.885c.345.21.63.553,1.042.6a1.715,1.715,0,0,0,.844-.2,3.316,3.316,0,0,1,2.166-.273c1.01.314,1.564,1.394,2.574,1.715a1.91,1.91,0,0,0,1.505-.155,1.65,1.65,0,0,0,.792-1.014,2.025,2.025,0,0,0-.792-1.974,4.882,4.882,0,0,0-2.139-.9,22.78,22.78,0,0,0-6.179-.133.959.959,0,0,0-.483.118,2.569,2.569,0,0,0-.737,1.682C344.656,136.841,345.857,136.472,345.912,136.885Z" transform="translate(-245.77 -118.405)" fill="#f86d70"/>
    <path id="Tracé_297" data-name="Tracé 297" d="M415.28,141.462l.657,2.475.855-.48,4.634-2.608s3.509-.118,3.782-2.748-3.9-.026-4.123.177-.729.55-.729.55l-4.317,2.239Z" transform="translate(-288.522 -119.997)" fill="#efb7b9"/>
    <path id="Tracé_298" data-name="Tracé 298" d="M415.28,148.535l.657,2.475.855-.48a5.943,5.943,0,0,0-.753-2.39Z" transform="translate(-288.522 -127.07)" opacity="0.1"/>
    <path id="Tracé_299" data-name="Tracé 299" d="M357.51,172.434l.943,5.165,5.592-1.107c-.135-.395-1.794-5.386-.594-6.618s.792-4.884.792-4.884-2.17-2.328-2.606-2.889-3.256-1-3.256-1a2.023,2.023,0,0,1-.206-.738,2.714,2.714,0,0,0-.214.55,2.071,2.071,0,0,0,1.493,2.066l.3.122c.17.063.356.122.555.181l.091.026a3.087,3.087,0,0,1,2.19,1.5,3.639,3.639,0,0,1,.82,2.708C363.209,169.129,357.51,172.434,357.51,172.434Z" transform="translate(-253.633 -134.782)" opacity="0.1"/>
    <path id="Tracé_300" data-name="Tracé 300" d="M358.33,164.666l.943,5.165,6.293-1.225a10.012,10.012,0,0,0-.63-2.745c-.44-.793-.353-3.877-.353-3.877,2.677-2.686,1.271-4.873,1.271-4.873s7.866-1.184,8-1.406a26.164,26.164,0,0,1,2.772-1.542,15.854,15.854,0,0,0,3.236-1.059,3.809,3.809,0,0,1,.467-.395,1.3,1.3,0,0,1,.155-.092l.21,1.693h.079a2.669,2.669,0,0,0,1.267-.465c.65-.465-.17-5.534-.792-5.722a.806.806,0,0,0-.364,0,4.06,4.06,0,0,0-1.358.682l-.107.081-.04.03a27.724,27.724,0,0,0-4.274,1.9c-.709.6-6.25,1.361-6.25,1.361s-2.483.546-2.8.214-4.111-.871-4.428-.369-1.188.428-1.188.428c-.626-.668-1.057-.409-1.323-.026a2.525,2.525,0,0,0-.333.738c0,1.029.483,1.7,1.794,2.188a6.388,6.388,0,0,0,.646.207,3.087,3.087,0,0,1,2.19,1.5,3.653,3.653,0,0,1,.82,2.711C364.029,161.346,358.33,164.666,358.33,164.666Z" transform="translate(-254.128 -127.047)" fill="#444053"/>
    <path id="Tracé_301" data-name="Tracé 301" d="M413.025,148.106a.607.607,0,0,1,.2,0c.63.181,1.45,5.257.792,5.722a2.628,2.628,0,0,1-1.105.446h-.1l-.21-1.693a1.3,1.3,0,0,0-.154.092v-.07a4.2,4.2,0,0,0-.9-3.759Z" transform="translate(-286.275 -127.043)" opacity="0.1"/>
    <path id="Tracé_302" data-name="Tracé 302" d="M412.793,152.582l.21,1.693a2.663,2.663,0,0,0,1.362-.472c.65-.465-.17-5.534-.792-5.722-.5-.144-1.374.435-1.723.682A4.172,4.172,0,0,1,412.793,152.582Z" transform="translate(-286.451 -127.019)" fill="#444053"/>
    <path id="Tracé_303" data-name="Tracé 303" d="M361.246,162.7l.9-.793-2.376-2.136a2.526,2.526,0,0,0-.333.738C359.44,161.541,359.919,162.212,361.246,162.7Z" transform="translate(-254.798 -134.41)" fill="#444053"/>
    <path id="Tracé_304" data-name="Tracé 304" d="M345.91,139.5c.345.21.63.553,1.038.6a1.7,1.7,0,0,0,.844-.2,3.325,3.325,0,0,1,2.17-.273c1.01.314,1.584,1.394,2.57,1.715a1.91,1.91,0,0,0,1.505-.155,1.669,1.669,0,0,0,.792-1.014,1.569,1.569,0,0,0,.044-.45,1.611,1.611,0,0,1,0,.738,1.694,1.694,0,0,1-1.331,1.217,1.929,1.929,0,0,1-.962-.048c-1.01-.321-1.564-1.4-2.57-1.715a3.348,3.348,0,0,0-2.17.273,1.7,1.7,0,0,1-.844.2c-.4-.048-.7-.391-1.042-.6-.055-.413-1.252-.037-1.4-.531a.52.52,0,0,1,0-.225C344.777,139.421,345.846,139.111,345.91,139.5Z" transform="translate(-245.799 -121.321)" opacity="0.1"/>
    <path id="Tracé_305" data-name="Tracé 305" d="M355.89,171.91s-.5,1.313.135,1.752c0,0-.7-1.734-1.105-1.7" transform="translate(-252.068 -142.071)" opacity="0.1"/>
    <path id="Tracé_306" data-name="Tracé 306" d="M433.337,137.3s-3.236,2.6-.9,3.021S433.337,137.3,433.337,137.3Z" transform="translate(-298.372 -120.229)" fill="#efb7b9"/>
    <path id="Tracé_307" data-name="Tracé 307" d="M308.93,52.16l.622,15.254L327.565,52.16Z" transform="translate(-186.576 -32.92)" fill="#fff"/>
    <path id="Tracé_308" data-name="Tracé 308" d="M308.93,52.16l.622,15.254L327.565,52.16Z" transform="translate(-186.576 -32.92)" opacity="0.03"/>
    <ellipse id="Ellipse_191" data-name="Ellipse 191" cx="13.387" cy="2.398" rx="13.387" ry="2.398" transform="translate(322.263 252.929)" fill="#6c63ff"/>
    <ellipse id="Ellipse_192" data-name="Ellipse 192" cx="1.56" cy="1.9" rx="1.56" ry="1.9" transform="translate(333.864 252.409)" fill="#3f3d56"/>
    <ellipse id="Ellipse_193" data-name="Ellipse 193" cx="1.56" cy="1.9" rx="1.56" ry="1.9" transform="translate(333.864 250.085)" fill="#3f3d56"/>
    <ellipse id="Ellipse_194" data-name="Ellipse 194" cx="1.56" cy="1.9" rx="1.56" ry="1.9" transform="translate(333.864 247.761)" fill="#3f3d56"/>
    <ellipse id="Ellipse_195" data-name="Ellipse 195" cx="1.56" cy="1.9" rx="1.56" ry="1.9" transform="translate(333.864 245.441)" fill="#3f3d56"/>
    <ellipse id="Ellipse_196" data-name="Ellipse 196" cx="1.56" cy="1.9" rx="1.56" ry="1.9" transform="translate(333.864 243.117)" fill="#3f3d56"/>
    <ellipse id="Ellipse_197" data-name="Ellipse 197" cx="1.56" cy="1.9" rx="1.56" ry="1.9" transform="translate(333.864 240.792)" fill="#3f3d56"/>
    <ellipse id="Ellipse_198" data-name="Ellipse 198" cx="1.56" cy="1.9" rx="1.56" ry="1.9" transform="translate(333.864 238.472)" fill="#3f3d56"/>
    <path id="Tracé_309" data-name="Tracé 309" d="M936.517,680.306a7.757,7.757,0,0,0,.578-.8L933,678.882l4.428.029a6.508,6.508,0,0,0,.143-5.508l-5.941,2.87,5.482-3.752a7.612,7.612,0,0,0-6.817-3.439,7.487,7.487,0,0,0-6.418,4.051,6.567,6.567,0,0,0,.9,7.172,7.164,7.164,0,0,0-.852,1.265l5.319,2.582-5.672-1.774a6.6,6.6,0,0,0,1.188,6.533,6.616,6.616,0,0,0,.8,9.406,7.875,7.875,0,0,0,10.13,0,6.616,6.616,0,0,0,.8-9.406,6.59,6.59,0,0,0,0-8.6Z" transform="translate(-595.255 -455.83)" fill="#6c63ff"/>
    <path id="Tracé_310" data-name="Tracé 310" d="M923.182,710.994a6.648,6.648,0,0,0,1.584,4.3,6.616,6.616,0,0,0,.8,9.406,7.875,7.875,0,0,0,10.13,0,6.616,6.616,0,0,0,.8-9.406C937.515,714.111,923.182,710.212,923.182,710.994Z" transform="translate(-595.255 -482.221)" opacity="0.1"/>
  </g>
</svg>
