<svg id="Groupe_19" data-name="Groupe 19" xmlns="http://www.w3.org/2000/svg" width="320.83" height="291.533" viewBox="0 0 320.83 291.533">
  <path id="Tracé_387" data-name="Tracé 387" d="M575.528,156.839C558.273,95.031,498.654,50.413,428.673,48.624c-37-.946-75.928,10.232-104.272,49.347-50.669,69.923,3.114,118.242,40.61,141.2a228.7,228.7,0,0,1,48.5,39.707c25.327,27.379,74.051,61.4,132.079,8.094C587.643,248.336,587.021,198.01,575.528,156.839Z" transform="translate(-261.407 -48.569)" fill="#f2f2f2"/>
  <ellipse id="Ellipse_201" data-name="Ellipse 201" cx="156.252" cy="17.974" rx="156.252" ry="17.974" transform="translate(0 255.585)" fill="#3f3d56"/>
  <ellipse id="Ellipse_202" data-name="Ellipse 202" cx="138.714" cy="12.608" rx="138.714" ry="12.608" transform="translate(17.539 257.603)" opacity="0.1"/>
  <rect id="Rectangle_90" data-name="Rectangle 90" width="8.143" height="112.761" transform="translate(79.623 163.566)" fill="#3f3d56"/>
  <path id="Tracé_388" data-name="Tracé 388" d="M181.31,420.156v2.967L48.573,424.608V421.64l.187-.111,23.429-13.984h98.535Z" transform="translate(-29.212 -259.558)" fill="#3f3d56"/>
  <path id="Tracé_389" data-name="Tracé 389" d="M487.393,441.813s-29.316,2.226-19.544,8.9,19.544-4.451,19.544-4.451Z" transform="translate(-358.911 -299.019)" fill="#ffb9b9"/>
  <path id="Tracé_390" data-name="Tracé 390" d="M181.31,442.521V445.4L48.573,446.883v-2.967l.187-.111Z" transform="translate(-29.212 -281.833)" opacity="0.1"/>
  <path id="Tracé_391" data-name="Tracé 391" d="M559.8,337.435l.713-2.435s-9.671,15.789-10.485,17.272-14.658,14.1-16.287,16.321a15.982,15.982,0,0,1-4.072,3.709H514.2s-3.257,9.644,1.629,10.386,20.359,3.709,23.616,3.709,23.616-17.063,23.616-17.063Z" transform="translate(-387.345 -230.992)" fill="#575a89"/>
  <path id="Tracé_392" data-name="Tracé 392" d="M433.455,586.769l-4.886,62.315h4.886l5.7-63.8Z" transform="translate(-257.74 -372.757)" fill="#3f3d56"/>
  <path id="Tracé_393" data-name="Tracé 393" d="M582.593,566.339l-4.886,62.315h4.886l5.7-63.8Z" transform="translate(-347.431 -359.746)" fill="#3f3d56"/>
  <path id="Tracé_394" data-name="Tracé 394" d="M605.066,586.769l-4.886,62.315h4.886l5.7-63.8Z" transform="translate(-360.947 -372.757)" fill="#3f3d56"/>
  <path id="Tracé_395" data-name="Tracé 395" d="M415.068,570.425l-4.886,62.315h4.886l5.7-63.8Z" transform="translate(-246.682 -362.348)" fill="#3f3d56"/>
  <path id="Tracé_396" data-name="Tracé 396" d="M514.446,354.427,500.6,444.932l-82.248-2.967.554-8.353,1.075-16.128,63.519,2.967,10.586-66.024Z" transform="translate(-251.597 -225.728)" fill="#3f3d56"/>
  <path id="Tracé_397" data-name="Tracé 397" d="M712,403,698.159,493.5l-82.248-2.967.554-8.353c17.166.6,75.18-2.775,75.18-2.775,0-11.84,11.417-58.19,16.026-76.41Z" transform="translate(-449.153 -274.298)" opacity="0.1"/>
  <path id="Tracé_398" data-name="Tracé 398" d="M483.369,705.359s-2.443,17.063-7.329,20.03,20.359,6.677,20.359,6.677l1.629-22.255Z" transform="translate(-364.658 -466.867)" fill="#ffb9b9"/>
  <path id="Tracé_399" data-name="Tracé 399" d="M701.716,715.38s4.072,4.451,4.886,7.418,13.029,4.451,13.029,4.451l8.958-8.9s-11.4-8.9-14.658-8.9S701.716,715.38,701.716,715.38Z" transform="translate(-500.757 -469.469)" fill="#ffb9b9"/>
  <ellipse id="Ellipse_203" data-name="Ellipse 203" cx="19.544" cy="17.804" rx="19.544" ry="17.804" transform="translate(159.835 57.111)" fill="#ffb9b9"/>
  <path id="Tracé_400" data-name="Tracé 400" d="M634.3,270.533s9.772,17.063,8.143,20.03,21.173-14.1,21.173-14.1-8.143-11.87-8.143-15.579S634.3,270.533,634.3,270.533Z" transform="translate(-460.211 -183.377)" fill="#ffb9b9"/>
  <path id="Tracé_401" data-name="Tracé 401" d="M540.022,523.156s-62.7-8.9-65.147,11.87-11.4,47.478-12.215,49.7,26.873,14.837,30.131,10.386,8.958-40.06,7.329-43.027-2.443-6.677.814-5.935,39.088,7.418,46.417,5.193,26.059-31.9,26.059-31.9Z" transform="translate(-356.978 -348.463)" fill="#2f2e41"/>
  <path id="Tracé_402" data-name="Tracé 402" d="M540.022,523.156s-62.7-8.9-65.147,11.87-11.4,47.478-12.215,49.7,26.873,14.837,30.131,10.386,8.958-40.06,7.329-43.027-2.443-6.677.814-5.935,39.088,7.418,46.417,5.193,26.059-31.9,26.059-31.9Z" transform="translate(-356.978 -348.463)" opacity="0.1"/>
  <path id="Tracé_403" data-name="Tracé 403" d="M614.549,508.842l2.443,18.546s-39.088,13.353-24.43,34.867,30.945,33.383,30.945,33.383,26.059-13.353,26.059-17.062-31.759-24.481-27.688-24.481,62.7-2.967,50.489-32.641S614.549,508.842,614.549,508.842Z" transform="translate(-433.133 -338.6)" fill="#2f2e41"/>
  <path id="Tracé_404" data-name="Tracé 404" d="M443.026,753.078s-6.515-6.677-6.515-5.193-18.73,10.386-21.987,11.128-8.143,2.226-1.629,4.451,48.046,2.967,48.046,1.484,1.629-15.579-1.629-14.1S443.841,756.045,443.026,753.078Z" transform="translate(-325.13 -493.813)" fill="#2f2e41"/>
  <path id="Tracé_405" data-name="Tracé 405" d="M696.421,733.873s-8.958-2.226-9.772,0-1.629,11.128-8.958,14.1-9.772,7.418,0,8.16,36.645-16.321,36.645-19.288-3.257-11.87-4.886-11.128S703.75,733.131,696.421,733.873Z" transform="translate(-482.432 -479.801)" fill="#2f2e41"/>
  <rect id="Rectangle_91" data-name="Rectangle 91" width="37.46" height="13.353" transform="translate(64.964 263.715)" fill="#3f3d56"/>
  <path id="Tracé_406" data-name="Tracé 406" d="M655.049,284.968S652,277.543,646.6,282s-15.984,15.582-15.984,15.582-6.515,2.226-8.958,5.935-2.443,28.19,2.443,36.35,4.886,22.255,6.515,25.965,0,7.418,5.7,7.418-3.257-5.935,15.472,0,39.9,13.353,41.531,8.16-2.443-8.16,0-10.386,0-2.967-1.629-8.16-3.257-5.935-4.072-12.611,0-13.353-1.629-16.321-1.629-7.418-1.629-14.837-4.886-22.255-13.844-26.707S655.049,284.968,655.049,284.968Z" transform="translate(-451.647 -196.329)" fill="#575a89"/>
  <path id="Tracé_407" data-name="Tracé 407" d="M594.836,181.3c4.539-4.037,9.31-8.2,15.353-9.962,8.066-2.347,17.057.116,24,4.529a9.286,9.286,0,0,1,5.241,7.855c.922,5.309,1.677,10.689,1.227,16.048a26.251,26.251,0,0,1-5.808,14.989,30.59,30.59,0,0,1-7.239-10.865,8.333,8.333,0,0,0-1.616-3.036,2.921,2.921,0,0,0-3.345-.68c-1.453.852-1.27,3.127-2.8,3.852a2.909,2.909,0,0,1-1.677.16c-4-.628-5.392-5.091-7.995-7.928-3.836-4.181-9.208-3.916-14.45-5.118C589.64,189.749,591.146,184.579,594.836,181.3Z" transform="translate(-434.54 -126.181)" fill="#2f2e41"/>
  <ellipse id="Ellipse_204" data-name="Ellipse 204" cx="16.74" cy="3.315" rx="16.74" ry="3.315" transform="translate(110.483 149.017)" fill="#6c63ff"/>
  <path id="Tracé_408" data-name="Tracé 408" d="M512.768,372.923l-.328-15.785c-.073-3.531.065-7.533,2.947-9.9,1.821-1.493,4.559-2.135,5.7-4.109a6.938,6.938,0,0,0,.632-3.563l-.046-21.486" transform="translate(-386.919 -220.219)" fill="none" stroke="#6c63ff" stroke-miterlimit="10" stroke-width="6"/>
  <rect id="Rectangle_92" data-name="Rectangle 92" width="7.763" height="13.702" rx="3.882" transform="translate(130.377 91.114)" fill="#6c63ff"/>
  <path id="Tracé_409" data-name="Tracé 409" d="M546.227,453.927s-26.99-6.522-29.192-.912,23.043,10.8,23.043,10.8h10.586Z" transform="translate(-389.608 -304.703)" fill="#ffb9b9"/>
  <path id="Tracé_410" data-name="Tracé 410" d="M642.293,325.363s-12.215,8.16-15.472,20.03-5.7,24.481-5.7,24.481l-37.46,4.451s-3.257,11.87,1.629,12.611,41.531,2.967,47.232,0,25.245-40.06,24.43-43.769S654.509,326.1,642.293,325.363Z" transform="translate(-429.119 -224.854)" fill="#575a89"/>
  <path id="Tracé_411" data-name="Tracé 411" d="M361.306,451.443l13.232.967,18.868-1.116-.328-.028L375.6,449.732c-4-1.339-1.225-9.227-1.225-9.227l-13.392.621-1.065.049C355.18,451.294,361.306,451.443,361.306,451.443Z" transform="translate(-294.119 -298.186)" fill="#d1d9ec"/>
  <path id="Tracé_412" data-name="Tracé 412" d="M361.306,452.532l13.232.967,18.868-1.116-.328-.028-19.07.624-12.783-1.265c-3.627-.869-1.55-6.606-.242-9.5l-1.065.049C355.18,452.383,361.306,452.532,361.306,452.532Z" transform="translate(-294.119 -299.274)" opacity="0.1"/>
  <path id="Tracé_413" data-name="Tracé 413" d="M310.514,266.15l3.963,52.347v6.318c.121,1.588.95,4.352,2.7,4.342l3.247-2.537h58.453c1.006-.006-2.377-1.344-2.477-2.256l4.1-1.95-4.29-38.384a3.273,3.273,0,0,0-2.343-2.7l-58.072-18.319a5.923,5.923,0,0,0-5.245.551C309.685,264.216,310.414,264.846,310.514,266.15Z" transform="translate(-265.258 -184.921)" fill="#4c4c56"/>
  <path id="Tracé_414" data-name="Tracé 414" d="M318.134,418.944l.531,6.941a3.2,3.2,0,0,0,3.323,2.805l1.228-.007,60.929-.336a1.786,1.786,0,0,0,1.259-.516,1.47,1.47,0,0,0,.43-1.2l-.524-4.688Z" transform="translate(-270.071 -284.454)" fill="#dfe6f5"/>
  <ellipse id="Ellipse_205" data-name="Ellipse 205" cx="0.817" cy="1.488" rx="0.817" ry="1.488" transform="translate(88.097 138.748)" fill="#fff"/>
  <path id="Tracé_415" data-name="Tracé 415" d="M313.749,470.018s-16.663-5.729-21.155-1.563c0,0-.735,1.265,2.287,1.563l12.212.893S312.116,471.357,313.749,470.018Z" transform="translate(-254.665 -315.02)" fill="#d1d9ec"/>
  <path id="Tracé_416" data-name="Tracé 416" d="M315.354,466.977c-3.273-1.218-13.127-4.37-19.431-.882,0,0,6.976-.7,10.809,1.314s9.066,1.058,9.066,1.058l.078-.127a.887.887,0,0,0,.076-.789A1.008,1.008,0,0,0,315.354,466.977Z" transform="translate(-256.714 -313.47)" fill="#dfe6f5"/>
  <path id="Tracé_417" data-name="Tracé 417" d="M307.949,268.1l4.576,59.834a3.2,3.2,0,0,0,3.323,2.805l1.229-.007a10.91,10.91,0,0,1-2.13-2.5s-4.492-60.122-4.819-61.61a2.971,2.971,0,0,0-.907-1.472A3.223,3.223,0,0,0,307.949,268.1Z" transform="translate(-263.931 -186.502)" fill="#dfe6f5"/>
  <path id="Tracé_418" data-name="Tracé 418" d="M307.949,268.1l4.576,59.834a3.2,3.2,0,0,0,3.323,2.805l1.229-.007a10.91,10.91,0,0,1-2.13-2.5s-4.492-60.122-4.819-61.61a2.971,2.971,0,0,0-.907-1.472A3.223,3.223,0,0,0,307.949,268.1Z" transform="translate(-263.931 -186.502)" opacity="0.1"/>
  <path id="Tracé_419" data-name="Tracé 419" d="M349.757,350.6a43.139,43.139,0,0,1-7.317,3.391,9.021,9.021,0,0,1-5.174.638c-1.705-.441-3.1-2.183-2.424-3.674a3.018,3.018,0,0,1,2.477-1.547,5.741,5.741,0,0,1,3.021.652,8.417,8.417,0,0,1,3.824,3.7,5.862,5.862,0,0,0,1.458,2.285,5.043,5.043,0,0,0,2.065.732,16.18,16.18,0,0,0,5.268.449,5.008,5.008,0,0,0,4.1-2.71" transform="translate(-280.014 -240.16)" fill="none" stroke="#f2f2f2" stroke-miterlimit="10" stroke-width="2"/>
  <path id="Tracé_420" data-name="Tracé 420" d="M405.142,335.217q-.5,7.192-1.63,14.333l3.789-.338c1.4-.124,2.995-.358,3.728-1.448a2.666,2.666,0,0,0-.62-3.282,9.373,9.373,0,0,0-3.338-1.825l-1.976-.756" transform="translate(-321.417 -231.13)" fill="none" stroke="#f2f2f2" stroke-miterlimit="10" stroke-width="2"/>
  <path id="Tracé_421" data-name="Tracé 421" d="M444.452,353.417a14.386,14.386,0,0,0-4.089-.45,4.691,4.691,0,0,0-3.506,1.736c-1.354,1.966.161,4.645,2.289,5.921a9.965,9.965,0,0,0,5.993,1.328" transform="translate(-341.162 -242.419)" fill="none" stroke="#f2f2f2" stroke-miterlimit="10" stroke-width="2"/>
</svg>
