<svg id="Groupe_18" data-name="Groupe 18" xmlns="http://www.w3.org/2000/svg" width="329.83" height="272.233" viewBox="0 0 329.83 272.233">
  <path id="Tracé_319" data-name="Tracé 319" d="M354.943,150.8h-1.665V109.827c0-13.1-11.817-23.716-26.395-23.716H230.262c-14.578,0-26.4,10.618-26.4,23.716v224.8c0,13.1,11.817,23.716,26.395,23.716h96.62c14.578,0,26.4-10.618,26.4-23.716V179.972h1.665Z" transform="translate(-203.867 -86.111)" fill="#e6e6e6"/>
  <path id="Tracé_320" data-name="Tracé 320" d="M338.159,102.606H325.547a7.692,7.692,0,0,1-.9,7.871,9.692,9.692,0,0,1-7.772,3.721H261.524a9.692,9.692,0,0,1-7.772-3.72,7.692,7.692,0,0,1-.9-7.872h-11.78c-10.886,0-19.711,7.929-19.711,17.711V344.788c0,9.781,8.825,17.711,19.711,17.711h97.086c10.886,0,19.712-7.929,19.712-17.711h0V120.317c0-9.781-8.825-17.711-19.711-17.711Z" transform="translate(-214.079 -96.436)" fill="#fff"/>
  <path id="Tracé_321" data-name="Tracé 321" d="M249.728,361.88a.4.4,0,0,1-.416-.374V348.413a.419.419,0,0,1,.833,0v13.092A.4.4,0,0,1,249.728,361.88Z" transform="translate(-230.393 -250.062)" fill="#ccc"/>
  <path id="Tracé_322" data-name="Tracé 322" d="M256.728,360.494a.4.4,0,0,1-.416-.374V342.913a.419.419,0,0,1,.833,0V360.12A.4.4,0,0,1,256.728,360.494Z" transform="translate(-234.479 -246.62)" fill="#ccc"/>
  <path id="Tracé_323" data-name="Tracé 323" d="M263.728,359.613a.4.4,0,0,1-.416-.374V339.413a.419.419,0,0,1,.833,0v19.825A.4.4,0,0,1,263.728,359.613Z" transform="translate(-238.564 -244.429)" fill="#ccc"/>
  <path id="Tracé_324" data-name="Tracé 324" d="M270.728,357.346a.4.4,0,0,1-.416-.374V330.413a.419.419,0,0,1,.833,0v26.558A.4.4,0,0,1,270.728,357.346Z" transform="translate(-242.65 -238.795)" fill="#ccc"/>
  <path id="Tracé_325" data-name="Tracé 325" d="M277.728,353.945a.4.4,0,0,1-.416-.374V316.913a.419.419,0,0,1,.833,0v36.658A.4.4,0,0,1,277.728,353.945Z" transform="translate(-246.736 -230.345)" fill="#ccc"/>
  <path id="Tracé_326" data-name="Tracé 326" d="M284.728,357.346a.4.4,0,0,1-.416-.374V330.413a.419.419,0,0,1,.833,0v26.558A.4.4,0,0,1,284.728,357.346Z" transform="translate(-250.822 -238.795)" fill="#ccc"/>
  <path id="Tracé_327" data-name="Tracé 327" d="M291.728,355.709a.4.4,0,0,1-.416-.374V323.913a.419.419,0,0,1,.833,0v31.421A.4.4,0,0,1,291.728,355.709Z" transform="translate(-254.908 -234.727)" fill="#ccc"/>
  <path id="Tracé_328" data-name="Tracé 328" d="M298.728,359.991a.4.4,0,0,1-.416-.374v-18.7a.419.419,0,0,1,.833,0v18.7A.4.4,0,0,1,298.728,359.991Z" transform="translate(-258.993 -245.368)" fill="#ccc"/>
  <path id="Tracé_329" data-name="Tracé 329" d="M305.728,358.983a.4.4,0,0,1-.416-.374v-21.7a.419.419,0,0,1,.833,0v21.7A.4.4,0,0,1,305.728,358.983Z" transform="translate(-263.079 -242.864)" fill="#ccc"/>
  <path id="Tracé_330" data-name="Tracé 330" d="M312.728,361.88a.4.4,0,0,1-.416-.374V348.413a.419.419,0,0,1,.833,0v13.092A.4.4,0,0,1,312.728,361.88Z" transform="translate(-267.165 -250.062)" fill="#ccc"/>
  <path id="Tracé_331" data-name="Tracé 331" d="M318.728,361.88a.4.4,0,0,1-.416-.374V348.413a.419.419,0,0,1,.833,0v13.092A.4.4,0,0,1,318.728,361.88Z" transform="translate(-270.667 -250.062)" fill="#ccc"/>
  <path id="Tracé_332" data-name="Tracé 332" d="M325.728,360.494a.4.4,0,0,1-.416-.374V342.913a.419.419,0,0,1,.833,0V360.12A.4.4,0,0,1,325.728,360.494Z" transform="translate(-274.753 -246.62)" fill="#ccc"/>
  <path id="Tracé_333" data-name="Tracé 333" d="M332.728,359.613a.4.4,0,0,1-.416-.374V339.413a.419.419,0,0,1,.833,0v19.825A.4.4,0,0,1,332.728,359.613Z" transform="translate(-278.839 -244.429)" fill="#ccc"/>
  <path id="Tracé_334" data-name="Tracé 334" d="M339.728,357.346a.4.4,0,0,1-.416-.374V330.413a.419.419,0,0,1,.833,0v26.558A.4.4,0,0,1,339.728,357.346Z" transform="translate(-282.925 -238.795)" fill="#ccc"/>
  <path id="Tracé_335" data-name="Tracé 335" d="M346.728,349.915a.4.4,0,0,1-.416-.374V300.913a.419.419,0,0,1,.833,0v48.628A.4.4,0,0,1,346.728,349.915Z" transform="translate(-287.01 -220.33)" fill="#ccc"/>
  <path id="Tracé_336" data-name="Tracé 336" d="M353.728,357.346a.4.4,0,0,1-.416-.374V330.413a.419.419,0,0,1,.833,0v26.558A.4.4,0,0,1,353.728,357.346Z" transform="translate(-291.096 -238.795)" fill="#ccc"/>
  <path id="Tracé_337" data-name="Tracé 337" d="M360.728,355.709a.4.4,0,0,1-.416-.374V323.913a.419.419,0,0,1,.833,0v31.421A.4.4,0,0,1,360.728,355.709Z" transform="translate(-295.182 -234.727)" fill="#ccc"/>
  <path id="Tracé_338" data-name="Tracé 338" d="M367.728,359.991a.4.4,0,0,1-.416-.374v-18.7a.419.419,0,0,1,.833,0v18.7A.4.4,0,0,1,367.728,359.991Z" transform="translate(-299.268 -245.368)" fill="#ccc"/>
  <path id="Tracé_339" data-name="Tracé 339" d="M374.728,358.983a.4.4,0,0,1-.416-.374v-21.7a.419.419,0,0,1,.833,0v21.7A.4.4,0,0,1,374.728,358.983Z" transform="translate(-303.354 -242.864)" fill="#ccc"/>
  <path id="Tracé_340" data-name="Tracé 340" d="M381.728,361.88a.4.4,0,0,1-.416-.374V348.413a.419.419,0,0,1,.833,0v13.092A.4.4,0,0,1,381.728,361.88Z" transform="translate(-307.44 -250.062)" fill="#ccc"/>
  <path id="Tracé_341" data-name="Tracé 341" d="M387.728,361.88a.4.4,0,0,1-.416-.374V348.413a.419.419,0,0,1,.833,0v13.092A.4.4,0,0,1,387.728,361.88Z" transform="translate(-310.942 -250.062)" fill="#ccc"/>
  <path id="Tracé_342" data-name="Tracé 342" d="M394.728,360.494a.4.4,0,0,1-.416-.374V342.913a.419.419,0,0,1,.833,0V360.12A.4.4,0,0,1,394.728,360.494Z" transform="translate(-315.027 -246.62)" fill="#ccc"/>
  <path id="Tracé_343" data-name="Tracé 343" d="M401.728,359.613a.4.4,0,0,1-.416-.374V339.413a.419.419,0,0,1,.833,0v19.825A.4.4,0,0,1,401.728,359.613Z" transform="translate(-319.113 -244.429)" fill="#ccc"/>
  <path id="Tracé_344" data-name="Tracé 344" d="M408.728,357.346a.4.4,0,0,1-.416-.374V330.413a.419.419,0,0,1,.833,0v26.558A.4.4,0,0,1,408.728,357.346Z" transform="translate(-323.199 -238.795)" fill="#ccc"/>
  <path id="Tracé_345" data-name="Tracé 345" d="M415.728,353.945a.4.4,0,0,1-.416-.374V316.913a.419.419,0,0,1,.833,0v36.658A.4.4,0,0,1,415.728,353.945Z" transform="translate(-327.285 -230.345)" fill="#ccc"/>
  <path id="Tracé_346" data-name="Tracé 346" d="M420.728,342.8a.4.4,0,0,1-.416-.374V272.663a.419.419,0,0,1,.833,0v69.762A.4.4,0,0,1,420.728,342.8Z" transform="translate(-330.203 -202.647)" fill="#6c63ff"/>
  <path id="Tracé_347" data-name="Tracé 347" d="M422.728,357.346a.4.4,0,0,1-.416-.374V330.413a.419.419,0,0,1,.833,0v26.558A.4.4,0,0,1,422.728,357.346Z" transform="translate(-331.371 -238.795)" fill="#ccc"/>
  <path id="Tracé_348" data-name="Tracé 348" d="M429.728,355.709a.4.4,0,0,1-.416-.374V323.913a.419.419,0,0,1,.833,0v31.421A.4.4,0,0,1,429.728,355.709Z" transform="translate(-335.457 -234.727)" fill="#ccc"/>
  <path id="Tracé_349" data-name="Tracé 349" d="M436.728,359.991a.4.4,0,0,1-.416-.374v-18.7a.419.419,0,0,1,.833,0v18.7A.4.4,0,0,1,436.728,359.991Z" transform="translate(-339.542 -245.368)" fill="#ccc"/>
  <path id="Tracé_350" data-name="Tracé 350" d="M443.728,358.983a.4.4,0,0,1-.416-.374v-21.7a.419.419,0,0,1,.833,0v21.7A.4.4,0,0,1,443.728,358.983Z" transform="translate(-343.628 -242.864)" fill="#ccc"/>
  <path id="Tracé_351" data-name="Tracé 351" d="M450.728,361.88a.4.4,0,0,1-.416-.374V348.413a.419.419,0,0,1,.833,0v13.092A.4.4,0,0,1,450.728,361.88Z" transform="translate(-347.714 -250.062)" fill="#ccc"/>
  <path id="Tracé_352" data-name="Tracé 352" d="M456.728,361.88a.4.4,0,0,1-.416-.374V348.413a.419.419,0,0,1,.833,0v13.092A.4.4,0,0,1,456.728,361.88Z" transform="translate(-351.216 -250.062)" fill="#ccc"/>
  <path id="Tracé_353" data-name="Tracé 353" d="M463.728,360.494a.4.4,0,0,1-.416-.374V342.913a.419.419,0,0,1,.833,0V360.12A.4.4,0,0,1,463.728,360.494Z" transform="translate(-355.302 -246.62)" fill="#ccc"/>
  <path id="Tracé_354" data-name="Tracé 354" d="M470.728,359.613a.4.4,0,0,1-.416-.374V339.413a.419.419,0,0,1,.833,0v19.825A.4.4,0,0,1,470.728,359.613Z" transform="translate(-359.388 -244.429)" fill="#ccc"/>
  <path id="Tracé_355" data-name="Tracé 355" d="M477.728,357.346a.4.4,0,0,1-.416-.374V330.413a.419.419,0,0,1,.833,0v26.558A.4.4,0,0,1,477.728,357.346Z" transform="translate(-363.474 -238.795)" fill="#ccc"/>
  <path id="Tracé_356" data-name="Tracé 356" d="M484.728,349.915a.4.4,0,0,1-.416-.374V300.913a.419.419,0,0,1,.833,0v48.628A.4.4,0,0,1,484.728,349.915Z" transform="translate(-367.559 -220.33)" fill="#ccc"/>
  <path id="Tracé_357" data-name="Tracé 357" d="M491.728,357.346a.4.4,0,0,1-.416-.374V330.413a.419.419,0,0,1,.833,0v26.558A.4.4,0,0,1,491.728,357.346Z" transform="translate(-371.645 -238.795)" fill="#ccc"/>
  <path id="Tracé_358" data-name="Tracé 358" d="M498.728,355.709a.4.4,0,0,1-.416-.374V323.913a.419.419,0,0,1,.833,0v31.421A.4.4,0,0,1,498.728,355.709Z" transform="translate(-375.731 -234.727)" fill="#ccc"/>
  <path id="Tracé_359" data-name="Tracé 359" d="M505.728,359.991a.4.4,0,0,1-.416-.374v-18.7a.419.419,0,0,1,.833,0v18.7A.4.4,0,0,1,505.728,359.991Z" transform="translate(-379.817 -245.368)" fill="#ccc"/>
  <path id="Tracé_360" data-name="Tracé 360" d="M512.728,358.983a.4.4,0,0,1-.416-.374v-21.7a.419.419,0,0,1,.833,0v21.7A.4.4,0,0,1,512.728,358.983Z" transform="translate(-383.903 -242.864)" fill="#ccc"/>
  <path id="Tracé_361" data-name="Tracé 361" d="M519.728,361.88a.4.4,0,0,1-.416-.374V348.413a.419.419,0,0,1,.833,0v13.092A.4.4,0,0,1,519.728,361.88Z" transform="translate(-387.988 -250.062)" fill="#ccc"/>
  <path id="Tracé_362" data-name="Tracé 362" d="M278.312,626.562v13.354l11.657-6.677Z" transform="translate(-247.32 -424.4)" fill="#3f3d56"/>
  <path id="Tracé_386" data-name="Tracé 386" d="M7.651.185a9,9,0,0,1,8.312,8.337A6.956,6.956,0,0,1,8.5,16.017,9,9,0,0,1,.186,7.68,6.956,6.956,0,0,1,7.651.185Z" transform="matrix(0.707, -0.707, 0.707, 0.707, 63.268, 208.811)" fill="#6c63ff"/>
  <path id="Tracé_363" data-name="Tracé 363" d="M464.6,640.378H461.75a1.362,1.362,0,0,1-1.428-1.279v-9.4a1.365,1.365,0,0,1,1.428-1.283H464.6a1.361,1.361,0,0,1,1.428,1.283V639.1A1.359,1.359,0,0,1,464.6,640.378Zm9.038-1.276v-9.408a1.361,1.361,0,0,0-1.424-1.283H469.36a1.365,1.365,0,0,0-1.428,1.283V639.1a1.362,1.362,0,0,0,1.428,1.279h2.856a1.357,1.357,0,0,0,1.424-1.279Z" transform="translate(-353.557 -425.558)" fill="#3f3d56"/>
  <path id="Tracé_364" data-name="Tracé 364" d="M369.947,486.062H296.97a.448.448,0,1,1,0-.891h72.977a.448.448,0,1,1,0,.891Z" transform="translate(-257.921 -335.899)" fill="#ccc"/>
  <path id="Tracé_365" data-name="Tracé 365" d="M369.947,246.062H296.97a.448.448,0,1,1,0-.891h72.977a.448.448,0,1,1,0,.891Z" transform="translate(-257.921 -185.673)" fill="#ccc"/>
  <path id="Tracé_366" data-name="Tracé 366" d="M734.893,379.45a1.31,1.31,0,0,1-.152-.009l-14.235-1.679a1.162,1.162,0,0,1-.941-.664.974.974,0,0,1,.194-1.062l9.923-10.625a1.25,1.25,0,0,1,1.132-.363,1.139,1.139,0,0,1,.894.721l4.308,12.3a.97.97,0,0,1-.172.943,1.224,1.224,0,0,1-.949.433Z" transform="translate(-504.827 -260.697)" fill="#f2f2f2"/>
  <path id="Tracé_367" data-name="Tracé 367" d="M690.549,530.777a1.124,1.124,0,0,1-1.176-1.043l-.184-13.868a1.04,1.04,0,0,1,.595-.938,1.289,1.289,0,0,1,1.2.022l12.194,6.808a1,1,0,0,1,.026,1.783l-12.013,7.064a1.271,1.271,0,0,1-.626.172Z" transform="translate(-487.144 -354.439)" fill="#f2f2f2"/>
  <path id="Tracé_368" data-name="Tracé 368" d="M962.549,587.777a1.124,1.124,0,0,1-1.176-1.043l-.184-13.868a1.04,1.04,0,0,1,.595-.938,1.29,1.29,0,0,1,1.2.022l12.194,6.808a1,1,0,0,1,.026,1.783l-12.013,7.064a1.271,1.271,0,0,1-.626.172Z" transform="translate(-645.907 -390.117)" fill="#f2f2f2"/>
  <path id="Tracé_369" data-name="Tracé 369" d="M814.382,455.69c-3.376-1.394-5.6-5.378-5.469-9.307a11.7,11.7,0,0,1,5.6-9.478,12.186,12.186,0,0,1,10.5-.713c3.406,1.3,7.98,1.658,10.028,4.9,1.574,2.489,1.007,8.04-.107,10.807-.963,2.392-3.317,3.739-5.613,4.493a20.788,20.788,0,0,1-15.616-1.13" transform="translate(-557.022 -304.701)" fill="#2f2e41"/>
  <path id="Tracé_370" data-name="Tracé 370" d="M688.368,669.664l-4.783,1.6-9.143-15.816,7.059-2.361Z" transform="translate(-393.664 -408.792)" fill="#ffb8b8"/>
  <path id="Tracé_371" data-name="Tracé 371" d="M6,.093l9.722.327.206,5.645L.089,5.532h0C-.025,2.415,2.624-.021,6,.093Z" transform="matrix(0.937, -0.349, 0.349, 0.937, 280.335, 264.392)" fill="#2f2e41"/>
  <path id="Tracé_372" data-name="Tracé 372" d="M587.116,679.613h-5.1l-2.428-17.688h7.533Z" transform="translate(-338.296 -414.324)" fill="#ffb8b8"/>
  <path id="Tracé_373" data-name="Tracé 373" d="M567.97,705.709h9.843v5.569H561.772C561.772,708.2,564.547,705.709,567.97,705.709Z" transform="translate(-327.9 -441.731)" fill="#2f2e41"/>
  <path id="Tracé_374" data-name="Tracé 374" d="M757.247,569.223a4.573,4.573,0,0,0,3.238-1.759,3.679,3.679,0,0,0,.578-3.36l16.789-26.024-5.872-2.11L755.2,561.413a3.981,3.981,0,0,0-2.836,4.723,4.484,4.484,0,0,0,4.886,3.087Z" transform="translate(-523.946 -367.694)" fill="#ffb8b8"/>
  <path id="Tracé_375" data-name="Tracé 375" d="M792.192,530.464l-8.923-4.982,8.414-13.776a6.086,6.086,0,0,1,10.075-.024,4.724,4.724,0,0,1-.151,5.254Z" transform="translate(-542.057 -350.829)" fill="#2f2e41"/>
  <path id="Tracé_376" data-name="Tracé 376" d="M823.8,646.552a1.9,1.9,0,0,1-1.668-.927l-22.2-41.055a1.5,1.5,0,0,0-1.491-.706,1.4,1.4,0,0,0-1.235,1.031L789.3,644.025a1.846,1.846,0,0,1-1.835,1.344h-5.038a1.8,1.8,0,0,1-1.866-1.53c-3.1-30.518-1.42-52.726,4.978-66.006a1.952,1.952,0,0,1,2.206-.954l25.578,6.174a1.786,1.786,0,0,1,1.331,1.215l16.031,58.754a1.667,1.667,0,0,1-1.253,2.015l-5.063,1.437A2.083,2.083,0,0,1,823.8,646.552Z" transform="translate(-539.597 -393.266)" fill="#2f2e41"/>
  <ellipse id="Ellipse_200" data-name="Ellipse 200" cx="10.225" cy="9.187" rx="10.225" ry="9.187" transform="translate(254.111 136.34)" fill="#ffb8b8"/>
  <path id="Tracé_377" data-name="Tracé 377" d="M820.57,507.911s-9.159-4.489-16.236.374c0,0-8.951,8.042-6.037,15.9L791.011,542.7c5.765,9.821,22.641,8.231,30.807,0l-.624-17.768Z" transform="translate(-546.576 -348.95)" fill="#6c63ff"/>
  <path id="Tracé_378" data-name="Tracé 378" d="M863.211,555.839a10.583,10.583,0,0,1-4.6-.918c-2.249-1.084-3.633-3.123-4.113-6.059-.8-4.9-.141-11.647.559-18.785.911-9.283,1.852-18.883-.669-24.165a1.543,1.543,0,0,1,.256-1.7,1.983,1.983,0,0,1,1.786-.611l7.171,1.111a1.8,1.8,0,0,1,1.52,1.334l9.941,45.376a1.64,1.64,0,0,1-1.036,1.847A30.33,30.33,0,0,1,863.211,555.839Z" transform="translate(-583.42 -347.418)" fill="#2f2e41"/>
  <path id="Tracé_379" data-name="Tracé 379" d="M776.126,556.067a2.068,2.068,0,0,1-.748-.139c-1.18-.458-2.811-1.124-4.848-1.978-5.626-2.359,9.211-34.948,12.242-41.456a1.679,1.679,0,0,1,.467-.594l8.122-6.642a2.045,2.045,0,0,1,2.207-.062,1.6,1.6,0,0,1,.739,1.87c-1.425,4.292-3.95,11.486-6.622,19.1-4.218,12.021-8.579,24.45-9.745,28.628A1.845,1.845,0,0,1,776.126,556.067Z" transform="translate(-533.886 -348.249)" fill="#2f2e41"/>
  <path id="Tracé_380" data-name="Tracé 380" d="M893.89,564.487a3.664,3.664,0,0,0,.388-3.382,4.253,4.253,0,0,0-2.637-2.439l-13-27.719-5.412,2.94,12.49,27.365a3.924,3.924,0,0,0,2.487,4.879A4.768,4.768,0,0,0,893.89,564.487Z" transform="translate(-594.565 -364.551)" fill="#ffb8b8"/>
  <path id="Tracé_381" data-name="Tracé 381" d="M866.21,525.976l-7.168-14.334a4.741,4.741,0,0,1,.647-5.224,6.071,6.071,0,0,1,5.4-2.017,5.675,5.675,0,0,1,4.576,3.274l6.343,14.9Z" transform="translate(-585.99 -347.904)" fill="#2f2e41"/>
  <path id="Tracé_382" data-name="Tracé 382" d="M848.624,436.247a1.733,1.733,0,0,0,1.8-.9,2,2,0,0,0-.173-1.922,4.283,4.283,0,0,0-1.572-1.385,5.557,5.557,0,0,0-2.49-.77,3.309,3.309,0,0,0-2.412.823,1.859,1.859,0,0,0-.4,2.217,3.3,3.3,0,0,0,1.923,1.258,12.466,12.466,0,0,0,4.737.559" transform="translate(-577.018 -302.155)" fill="#2f2e41"/>
  <path id="Tracé_383" data-name="Tracé 383" d="M837.252,456.075c-1.593.417-1.507-.355-2.38-1.622s-2.009-2.76-3.666-2.68c-1.358.065-2.3,1.173-3.272,2.032a7.966,7.966,0,0,1-6.6,2.031c-2.367-.467-4.32-2.662-3.8-4.789a4.581,4.581,0,0,1,2.448-2.793,10.861,10.861,0,0,1,3.882-1.02,22.88,22.88,0,0,1,8.917.838c1.98.6,3.97,1.562,4.956,3.217s1.848,4.048-.072,4.786Z" transform="translate(-562.01 -312.076)" fill="#2f2e41"/>
  <path id="Tracé_384" data-name="Tracé 384" d="M851.71,420.276c-1.35-1.538-.841-3.96.732-5.316a8.4,8.4,0,0,1,6.084-1.605,12.326,12.326,0,0,1,10,6.462c1.372,2.82,1.361,6.046,2.6,8.915a12.754,12.754,0,0,0,7.458,6.791,14.77,14.77,0,0,0,10.615-.229c2.16-.895,4.217-2.647,4.093-4.781,1.365,4.73-1.094,10.142-5.755,12.661a24.8,24.8,0,0,1-9.126,2.321,18.7,18.7,0,0,1-6.191-.071,10.789,10.789,0,0,1-6.6-4.787,14.3,14.3,0,0,1-2.01-7.533c-.017-2.033.279-4.067.123-6.1a7.919,7.919,0,0,0-2.471-5.531,5.382,5.382,0,0,0-6.194-.63,14.275,14.275,0,0,1-2.063,1.59c-.813.367-2.1.082-2.151-.734Z" transform="translate(-581.51 -290.923)" fill="#2f2e41"/>
  <path id="Tracé_385" data-name="Tracé 385" d="M804.105,806.653H676.175a.448.448,0,1,1,0-.891h127.93a.448.448,0,1,1,0,.891Z" transform="translate(-479.258 -536.569)" fill="#3f3d56"/>
</svg>
