<svg id="Groupe_2" data-name="Groupe 2" xmlns="http://www.w3.org/2000/svg" width="530.754" height="333.657" viewBox="0 0 530.754 333.657">
  <path id="Tracé_1" data-name="Tracé 1" d="M867.07,192.252l-40.943.36c-1.925-8.557-8.391-31.008-2.567-37.132.552-4.788,5.177-8.337,10.5-8.054h0c6.346-8.971,16.916-7.624,24.06-2.021,7.19,2.241,9.9,6.221,8.953,11.623,5.325,4.209,6.307,9.331,3.917,15.16Z" transform="translate(-423.605 -140.947)" fill="#2f2e41"/>
  <path id="Tracé_2" data-name="Tracé 2" d="M867.5,250.2l-29.54-3.694-5.908-7.8c8.138-4.875,11.018-11.685,7.271-20.932l20.45-.41c-.958,8.235,2.057,14.611,10.452,18.47Z" transform="translate(-427.98 -176.113)" fill="#ffb9b9"/>
  <path id="Tracé_3" data-name="Tracé 3" d="M829.486,723.586l-1.13,13.946a4.2,4.2,0,0,0,1.405,3.443,5.218,5.218,0,0,0,3.795,1.312l7.931-.434a2.588,2.588,0,0,0,1.87-.921,2.091,2.091,0,0,0,.41-1.888l-4.4-15.9Z" transform="translate(-426.486 -408.869)" fill="#e6e6e6"/>
  <path id="Tracé_4" data-name="Tracé 4" d="M870.2,723.14l-4.4,15.9a2.091,2.091,0,0,0,.41,1.888,2.588,2.588,0,0,0,1.87.921l7.931.434a5.217,5.217,0,0,0,3.795-1.312,4.2,4.2,0,0,0,1.405-3.443l-1.13-13.946Z" transform="translate(-441.525 -408.869)" fill="#e6e6e6"/>
  <path id="Tracé_5" data-name="Tracé 5" d="M698.507,464.138l-10.7-.97L677.148,360.3,673.12,462.837,662.6,462.5,644.881,320.485h67.714Z" transform="translate(-259.438 -147.486)" fill="#6c63ff"/>
  <ellipse id="Ellipse_1" data-name="Ellipse 1" cx="20.45" cy="18.47" rx="20.45" ry="18.47" transform="translate(402.258 11.287)" fill="#ffb9b9"/>
  <path id="Tracé_6" data-name="Tracé 6" d="M875.228,367.442l-82.711.821c12.275-42.2,19.617-81.4,6.817-108.356l20.45-9.03c9.861,9.289,20.842,8.331,32.721-.821l19.542,4.515C868.7,289.913,870.2,327.764,875.228,367.442Z" transform="translate(-412.074 -191.159)" fill="#6c63ff"/>
  <path id="Tracé_7" data-name="Tracé 7" d="M754.5,358.926l51.353,18.47,11.481,3.05a4.349,4.349,0,0,0,3.094-.328,3.654,3.654,0,0,0,1.88-2.243h0a3.5,3.5,0,0,0-2.261-4.156l-11.922-3.3-35.9-18.88,7.5-17.854-15.679-7.593Z" transform="translate(-396.779 -226.149)" fill="#ffb9b9"/>
  <path id="Tracé_8" data-name="Tracé 8" d="M755.26,298.677a50.367,50.367,0,0,1,23.632,17.238l19.087-25.037L784.345,268.3Z" transform="translate(-397.085 -199.556)" fill="#6c63ff"/>
  <path id="Tracé_9" data-name="Tracé 9" d="M873.344,175.191c-8.3-1.932-16.461-2.2-24.394.253-5.053,2.21-11.122,2.007-17.871.186V157.2l36.435.877Z" transform="translate(-427.587 -148.428)" fill="#2f2e41"/>
  <path id="Tracé_10" data-name="Tracé 10" d="M836.057,347.053c-3.344,0-6.053,2.451-6.057,5.47l2.391,45.2c0,3.02,2.713,5.467,6.057,5.47h27.334c3.344,0,6.053-2.451,6.057-5.47l2.391-45.2c0-3.02-2.713-5.467-6.057-5.47Z" transform="translate(-427.153 -235.796)" fill="#3f3d56"/>
  <path id="Tracé_11" data-name="Tracé 11" d="M925.918,353.037l-44.761,16.1-3.377,1.215c-.108.038-.215.07-.329.1l-11.314,3.007c-1.446.383-3.449-1.376-4.62-2.591a3.048,3.048,0,0,1-.1-4.281,3.873,3.873,0,0,1,.514-.448,3.526,3.526,0,0,1,1.494-.594l11.3-2.008a4.047,4.047,0,0,0,1.153-.389l5.272-2.775,27.368-14.391a3.208,3.208,0,0,0,1.608-4.092l-5.224-12.443a3.216,3.216,0,0,1,1.715-4.146l8.655-4.189a4.068,4.068,0,0,1,3.238-.119,3.471,3.471,0,0,1,2.106,2.224l7.513,25.846A3.29,3.29,0,0,1,925.918,353.037Z" transform="translate(-439.459 -223.675)" fill="#ffb9b9"/>
  <path id="Tracé_12" data-name="Tracé 12" d="M945.486,289.614a50.367,50.367,0,0,0-23.632,17.238l-19.087-25.037L916.4,258.42Z" transform="translate(-456.428 -195.008)" fill="#6c63ff"/>
  <path id="Tracé_13" data-name="Tracé 13" d="M864.678,215.263c-8.946,3.361-18.327,3.224-28.092,0,2.841-4.38-1.406-7.81-3.586-12.232l36.459-.979C866.671,205.894,862.557,210.432,864.678,215.263Z" transform="translate(-428.36 -169.068)" fill="#fff"/>
  <path id="Tracé_14" data-name="Tracé 14" d="M737.069,58.466l-.423-.382.6-.54,3.571-3.764.454.351-3.586,3.779Z" transform="translate(-296.356 -24.75)" fill="#fff"/>
  <path id="Tracé_81" data-name="Tracé 81" d="M.17.037.734.066.956,4.549.392,4.52Z" transform="translate(401.619 31.95) rotate(-50.195)" fill="#fff"/>
  <path id="Tracé_82" data-name="Tracé 82" d="M.051.41,10.935.923l.026.581L.078.991Z" transform="matrix(0.537, -0.844, 0.844, 0.537, 435.093, 45.619)" fill="#fff"/>
  <path id="Tracé_83" data-name="Tracé 83" d="M.41.051.991.078,1.5,10.961l-.581-.026Z" transform="translate(401.922 37.354) rotate(-32.471)" fill="#fff"/>
  <path id="Tracé_15" data-name="Tracé 15" d="M881.547,392.768v9.779l-3.77,1.356c-.12.042-.24.078-.367.115l-12.63,3.356c-1.615.428-3.85-1.536-5.157-2.892a3.4,3.4,0,0,1-.107-4.778,4.339,4.339,0,0,1,.574-.5,3.937,3.937,0,0,1,1.668-.663l12.616-2.241a4.52,4.52,0,0,0,1.288-.434Z" transform="translate(-438.655 -256.834)" fill="#fff"/>
  <path id="Tracé_16" data-name="Tracé 16" d="M895.963,286.574H893.8c0-27.59-6.29-46.817-12.419-46.817l-.54-1.951c5.5,0,9,8,10.973,14.715C894.491,261.622,895.963,273.716,895.963,286.574Z" transform="translate(-447.608 -185.521)" fill="#3f3d56"/>
  <path id="Tracé_17" data-name="Tracé 17" d="M821.571,280.578h-2.16c0-25.268,6.333-40.965,15.659-40.965l-.54,1.951C828.08,241.564,821.571,253.627,821.571,280.578Z" transform="translate(-422.893 -186.353)" fill="#3f3d56"/>
  <ellipse id="Ellipse_2" data-name="Ellipse 2" cx="5.4" cy="4.877" rx="5.4" ry="4.877" transform="translate(441.876 96.663)" fill="#3f3d56"/>
  <path id="Tracé_18" data-name="Tracé 18" d="M807.116,326.374h-2.16c0-6.991,4.36-12.68,9.72-12.68v1.951C810.507,315.645,807.116,320.458,807.116,326.374Z" transform="translate(-417.078 -220.444)" fill="#3f3d56"/>
  <path id="Tracé_19" data-name="Tracé 19" d="M830.937,326.374h-2.16c0-5.916-3.391-10.729-7.56-10.729v-1.951C826.577,313.694,830.937,319.382,830.937,326.374Z" transform="translate(-423.62 -220.444)" fill="#3f3d56"/>
  <ellipse id="Ellipse_3" data-name="Ellipse 3" cx="2.16" cy="1.951" rx="2.16" ry="1.951" transform="translate(404.078 104.466)" fill="#3f3d56"/>
  <ellipse id="Ellipse_4" data-name="Ellipse 4" cx="2.16" cy="1.951" rx="2.16" ry="1.951" transform="translate(386.798 104.466)" fill="#3f3d56"/>
  <path id="Tracé_20" data-name="Tracé 20" d="M339.279,183.7l-37.933,5.8A3.87,3.87,0,0,1,297,187.01c-2.741-8.933-8.471-20.587-2.907-26.438.589-5.113,5.528-8.9,11.21-8.6h0c6.776-9.58,18.064-8.142,25.693-2.159,7.678,2.393,10.572,6.643,9.56,12.411,3.317,2.622,5.056,5.576,5.422,8.817a12.018,12.018,0,0,1-3.857,9.906Z" transform="translate(-210.612 -142.837)" fill="#2f2e41"/>
  <path id="Tracé_21" data-name="Tracé 21" d="M341.61,250.627,312.2,249.065c2.882-5.974,4.033-11.727,2.883-17.185H337C336.947,236.071,339.257,243.32,341.61,250.627Z" transform="translate(-218.841 -182.794)" fill="#9f616a"/>
  <path id="Tracé_22" data-name="Tracé 22" d="M301.358,720.83l-1.206,14.892a4.488,4.488,0,0,0,1.5,3.677,5.57,5.57,0,0,0,4.052,1.4l8.469-.463a2.763,2.763,0,0,0,2-.984,2.233,2.233,0,0,0,.438-2.016l-4.7-16.983Z" transform="translate(-213.987 -407.587)" fill="#e6e6e6"/>
  <path id="Tracé_23" data-name="Tracé 23" d="M344.837,720.353l-4.7,16.983a2.233,2.233,0,0,0,.438,2.016,2.763,2.763,0,0,0,2,.984l8.469.463a5.571,5.571,0,0,0,4.052-1.4,4.488,4.488,0,0,0,1.5-3.677l-1.206-14.892Z" transform="translate(-230.046 -407.587)" fill="#e6e6e6"/>
  <path id="Tracé_24" data-name="Tracé 24" d="M172.076,453.343l-11.429-1.036-11.379-109.85-4.3,109.5-11.229-.363L114.813,299.944H187.12Z" transform="translate(-46.19 -138.033)" fill="#6c63ff"/>
  <ellipse id="Ellipse_5" data-name="Ellipse 5" cx="21.838" cy="19.723" rx="21.838" ry="19.723" transform="translate(85.94 15.962)" fill="#9f616a"/>
  <path id="Tracé_25" data-name="Tracé 25" d="M347.124,178.531a72.05,72.05,0,0,0-26.049.183c-5.4,1.6-11.876,1.448-19.083.134v-13.3l38.907.633Z" transform="translate(-214.733 -152.268)" fill="#2f2e41"/>
  <path id="Tracé_26" data-name="Tracé 26" d="M337.87,224.344c-9.553,3.589-19.571,3.443-30,0,3.034-4.677-1.5-8.34-3.829-13.062l38.933-1.045C340,214.339,335.605,219.185,337.87,224.344Z" transform="translate(-215.558 -172.834)" fill="#fff"/>
  <path id="Tracé_84" data-name="Tracé 84" d="M.181.038.745.067.982,4.853.419,4.825Z" transform="translate(85.276 36.284) rotate(-50.195)" fill="#fff"/>
  <path id="Tracé_85" data-name="Tracé 85" d="M.054.438,11.676.986l.026.581L.08,1.019Z" transform="matrix(0.537, -0.844, 0.844, 0.537, 121.022, 50.902)" fill="#fff"/>
  <path id="Tracé_86" data-name="Tracé 86" d="M.438.053,1.019.08,1.567,11.7l-.581-.026Z" transform="translate(85.6 42.061) rotate(-32.471)" fill="#fff"/>
  <path id="Tracé_27" data-name="Tracé 27" d="M255.606,323.526l-16.722-9.374,14.261-37.721a18.391,18.391,0,0,1,8.613-9.239l4.8-2.512.418,38.053Z" transform="translate(-189.345 -197.888)" fill="#6c63ff"/>
  <path id="Tracé_28" data-name="Tracé 28" d="M336.914,334.742l-2.474-19.137a61.565,61.565,0,0,1,6.308-28.866l2.306-28.121-25.371-9.374c-.078.467-.144.934-.218,1.4l-11.891,5.369-11.6-2.38.064-3.348-23.064,9.374c7.627,32.026,3.467,65.283-9.649,104.565l30.385,7.5.253-13.177,27.08-1.747c.279,4.275.5,8.474.633,12.58,15.28,5.081,15.805,5,29.727-2.278A138.258,138.258,0,0,1,336.914,334.742Z" transform="translate(-198.374 -190.785)" fill="#6c63ff"/>
  <path id="Tracé_29" data-name="Tracé 29" d="M269.811,178.78l-15.568-4.687-24.9-26.182,7.6-22.248,34.6,43.744Z" transform="translate(-92.264 -57.83)" fill="#6c63ff"/>
  <path id="Tracé_30" data-name="Tracé 30" d="M371.347,396.273a4.36,4.36,0,0,0,5.173,2.947l13.215-2.7-1.91-7.618-13.216,2.7a3.917,3.917,0,0,0-3.263,4.672Z" transform="translate(-242.592 -255.053)" fill="#e6e6e6"/>
  <path id="Tracé_31" data-name="Tracé 31" d="M391.309,368.476l7.5,12.5c12.608-3.176,23.535-13.188,34.02-25l-2.883-8.332-17.875,4.166Z" transform="translate(-250.666 -236.069)" fill="#6c63ff"/>
  <path id="Tracé_32" data-name="Tracé 32" d="M71.79,172.661l14.39,2.321,32.892,42.238L101.6,213.506Z" transform="translate(-28.881 -79.458)" fill="#e6e6e6"/>
  <path id="Tracé_33" data-name="Tracé 33" d="M222.708,312.65a1.245,1.245,0,0,0-1.063.588,1.015,1.015,0,0,0,.059,1.125l30.745,42.13a1.227,1.227,0,0,0,.74.467l14.3,3.04a1.287,1.287,0,0,0,1.292-.456,1.017,1.017,0,0,0-.013-1.253l-33.756-43.348a1.235,1.235,0,0,0-.785-.451l-11.294-1.822A1.464,1.464,0,0,0,222.708,312.65Z" transform="translate(-182.352 -219.964)" fill="#3f3d56"/>
  <path id="Tracé_34" data-name="Tracé 34" d="M255.608,367.405l.854,7.773,13.484-1.209a4.032,4.032,0,0,0,3.876-4.272,4.232,4.232,0,0,0-4.73-3.5Z" transform="translate(-196.073 -244.597)" fill="#e6e6e6"/>
  <path id="Tracé_35" data-name="Tracé 35" d="M235.991,361.23c.041,5.517,5,9.972,11.11,9.978h2.217l1.614-12.149-13.365-4.345Z" transform="translate(-188.181 -239.322)" fill="#6c63ff"/>
  <path id="Tracé_36" data-name="Tracé 36" d="M211.115,67.536l-.423-.382.638-.577,3.814-4.02.454.351-3.829,4.035Z" transform="translate(-84.762 -28.789)" fill="#fff"/>
  <rect id="Rectangle_8" data-name="Rectangle 8" width="530.754" height="1.08" transform="translate(0 332.577)" fill="#3f3d56"/>
  <path id="Tracé_37" data-name="Tracé 37" d="M495,627.577H620.516V490.08c0-7.281-7.94-13.2-17.7-13.2H512.7c-9.76,0-17.7,5.923-17.7,13.2Z" transform="translate(-292.381 -295.54)" fill="#e6e6e6"/>
  <path id="Tracé_38" data-name="Tracé 38" d="M511,636.622H617.39V520.076c0-6.171-6.731-11.192-15-11.192H526c-8.273,0-15,5.021-15,11.192Z" transform="translate(-298.818 -310.27)" fill="#fff"/>
  <path id="Tracé_39" data-name="Tracé 39" d="M489.626,457.053c-3.1,0-5.627,1.883-5.627,4.2v12.115c0,2.314,2.524,4.2,5.627,4.2H617.039c3.1,0,5.626-1.883,5.626-4.2V461.25c0-2.314-2.524-4.2-5.626-4.2Z" transform="translate(-287.956 -286.417)" fill="#3f3d56"/>
  <path id="Tracé_40" data-name="Tracé 40" d="M533.481,717.836a5.266,5.266,0,0,0-5.5,4.964h0a5.266,5.266,0,0,0,5.5,4.964H543.77v-9.929Z" transform="translate(-305.651 -406.428)" fill="#3f3d56"/>
  <path id="Tracé_41" data-name="Tracé 41" d="M563.459,717.836H553.452v9.929h10.007a5.266,5.266,0,0,0,5.5-4.964h0A5.266,5.266,0,0,0,563.459,717.836Z" transform="translate(-315.897 -406.428)" fill="#6c63ff"/>
  <path id="Tracé_42" data-name="Tracé 42" d="M567.046,720.088a4.668,4.668,0,0,1,1.346,3.239h0a5.266,5.266,0,0,1-5.5,4.964h-9.443v.509h10.007a5.266,5.266,0,0,0,5.5-4.964h0a4.769,4.769,0,0,0-1.91-3.749Z" transform="translate(-315.897 -407.465)" opacity="0.2"/>
  <path id="Tracé_43" data-name="Tracé 43" d="M608.474,577.985a5.939,5.939,0,0,0-7.77-.207h0a4.646,4.646,0,0,0-.229,7.018l7.057,6.762,8-6.81Z" transform="translate(-334.214 -341.355)" fill="#3f3d56"/>
  <path id="Tracé_44" data-name="Tracé 44" d="M627.5,597.726l-6.864-6.577-8,6.81,6.864,6.576a5.939,5.939,0,0,0,7.77.207h0A4.646,4.646,0,0,0,627.5,597.726Z" transform="translate(-339.707 -348.128)" fill="#6c63ff"/>
  <path id="Tracé_45" data-name="Tracé 45" d="M628.983,606.426a4.772,4.772,0,0,1-1.687,3.107h0a5.939,5.939,0,0,1-7.77-.207l-6.477-6.206-.41.349,6.864,6.577a5.939,5.939,0,0,0,7.77.207h0A4.719,4.719,0,0,0,628.983,606.426Z" transform="translate(-339.707 -353.636)" opacity="0.2"/>
  <path id="Tracé_46" data-name="Tracé 46" d="M559.474,606.985a5.939,5.939,0,0,0-7.77-.207h0a4.646,4.646,0,0,0-.229,7.018l7.057,6.762,8-6.81Z" transform="translate(-314.501 -354.701)" fill="#3f3d56"/>
  <path id="Tracé_47" data-name="Tracé 47" d="M578.5,626.726l-6.864-6.577-8,6.811,6.864,6.577a5.939,5.939,0,0,0,7.77.207h0A4.646,4.646,0,0,0,578.5,626.726Z" transform="translate(-319.994 -361.474)" fill="#6c63ff"/>
  <path id="Tracé_48" data-name="Tracé 48" d="M579.983,635.425a4.772,4.772,0,0,1-1.687,3.107h0a5.939,5.939,0,0,1-7.77-.207l-6.477-6.206-.41.349,6.864,6.576a5.94,5.94,0,0,0,7.77.207h0a4.719,4.719,0,0,0,1.71-3.827Z" transform="translate(-319.995 -366.982)" opacity="0.2"/>
  <path id="Tracé_49" data-name="Tracé 49" d="M608.474,633.985a5.939,5.939,0,0,0-7.77-.207h0a4.646,4.646,0,0,0-.229,7.018l7.058,6.762,8-6.81Z" transform="translate(-334.214 -367.126)" fill="#3f3d56"/>
  <path id="Tracé_50" data-name="Tracé 50" d="M627.5,653.726l-6.864-6.576-8,6.81,6.864,6.577a5.939,5.939,0,0,0,7.77.207h0A4.646,4.646,0,0,0,627.5,653.726Z" transform="translate(-339.707 -373.899)" fill="#6c63ff"/>
  <path id="Tracé_51" data-name="Tracé 51" d="M628.983,662.425a4.772,4.772,0,0,1-1.687,3.107h0a5.939,5.939,0,0,1-7.77-.207l-6.477-6.206-.41.349,6.864,6.576a5.939,5.939,0,0,0,7.77.207h0A4.719,4.719,0,0,0,628.983,662.425Z" transform="translate(-339.707 -379.407)" opacity="0.2"/>
  <path id="Tracé_52" data-name="Tracé 52" d="M634.632,685.505a4.645,4.645,0,0,0,.135-7.02h0a5.94,5.94,0,0,0-7.772-.122l-7.4,6.456,7.637,7.142Z" transform="translate(-342.506 -387.625)" fill="#3f3d56"/>
  <path id="Tracé_53" data-name="Tracé 53" d="M614.742,704.271l7.2-6.279-7.638-7.141-7.2,6.279a4.645,4.645,0,0,0-.135,7.02h0A5.94,5.94,0,0,0,614.742,704.271Z" transform="translate(-336.809 -394.01)" fill="#6c63ff"/>
  <path id="Tracé_54" data-name="Tracé 54" d="M611.227,705.647a5.722,5.722,0,0,1-3.46-1.485h0a4.645,4.645,0,0,1,.135-7.02l6.792-5.925-.392-.366-7.2,6.279a4.645,4.645,0,0,0-.135,7.02h0A5.814,5.814,0,0,0,611.227,705.647Z" transform="translate(-336.809 -394.01)" opacity="0.2"/>
  <path id="Tracé_55" data-name="Tracé 55" d="M568.632,656.505a4.645,4.645,0,0,0,.135-7.02h0a5.94,5.94,0,0,0-7.772-.122l-7.4,6.456,7.638,7.142Z" transform="translate(-315.954 -374.279)" fill="#3f3d56"/>
  <path id="Tracé_56" data-name="Tracé 56" d="M548.742,675.271l7.2-6.279-7.637-7.142-7.2,6.279a4.645,4.645,0,0,0-.135,7.02h0A5.94,5.94,0,0,0,548.742,675.271Z" transform="translate(-310.257 -380.664)" fill="#6c63ff"/>
  <path id="Tracé_57" data-name="Tracé 57" d="M545.227,676.647a5.722,5.722,0,0,1-3.46-1.485h0a4.645,4.645,0,0,1,.135-7.02l6.792-5.925-.392-.366-7.2,6.279a4.645,4.645,0,0,0-.135,7.02h0A5.814,5.814,0,0,0,545.227,676.647Z" transform="translate(-310.257 -380.664)" opacity="0.2"/>
  <path id="Tracé_58" data-name="Tracé 58" d="M662.632,621.505a4.645,4.645,0,0,0,.135-7.02h0a5.94,5.94,0,0,0-7.772-.122l-7.4,6.456,7.638,7.142Z" transform="translate(-353.77 -358.172)" fill="#3f3d56"/>
  <path id="Tracé_59" data-name="Tracé 59" d="M642.742,640.271l7.2-6.279L642.3,626.85l-7.2,6.279a4.645,4.645,0,0,0-.135,7.02h0a5.94,5.94,0,0,0,7.772.122Z" transform="translate(-348.073 -364.557)" fill="#6c63ff"/>
  <path id="Tracé_60" data-name="Tracé 60" d="M639.227,641.647a5.722,5.722,0,0,1-3.46-1.485h0a4.645,4.645,0,0,1,.135-7.02l6.792-5.925-.392-.366-7.2,6.279a4.645,4.645,0,0,0-.135,7.02h0a5.814,5.814,0,0,0,4.257,1.5Z" transform="translate(-348.073 -364.557)" opacity="0.2"/>
  <path id="Tracé_61" data-name="Tracé 61" d="M645.474,699.985a5.94,5.94,0,0,0-7.77-.207h0a4.646,4.646,0,0,0-.229,7.018l7.057,6.762,8-6.81Z" transform="translate(-349.1 -397.499)" fill="#3f3d56"/>
  <path id="Tracé_62" data-name="Tracé 62" d="M664.5,719.726l-6.864-6.576-8,6.811,6.864,6.576a5.94,5.94,0,0,0,7.77.207h0A4.646,4.646,0,0,0,664.5,719.726Z" transform="translate(-354.593 -404.272)" fill="#6c63ff"/>
  <path id="Tracé_63" data-name="Tracé 63" d="M665.983,728.426a4.772,4.772,0,0,1-1.687,3.107h0a5.939,5.939,0,0,1-7.77-.207l-6.477-6.206-.41.349,6.864,6.576a5.939,5.939,0,0,0,7.77.207h0A4.72,4.72,0,0,0,665.983,728.426Z" transform="translate(-354.593 -409.78)" opacity="0.2"/>
  <path id="Tracé_64" data-name="Tracé 64" d="M580.474,698.985a5.94,5.94,0,0,0-7.77-.207h0a4.646,4.646,0,0,0-.229,7.018l7.057,6.762,8-6.81Z" transform="translate(-322.95 -397.039)" fill="#3f3d56"/>
  <path id="Tracé_65" data-name="Tracé 65" d="M599.5,718.726l-6.864-6.576-8,6.811,6.864,6.576a5.939,5.939,0,0,0,7.77.207h0A4.646,4.646,0,0,0,599.5,718.726Z" transform="translate(-328.443 -403.812)" fill="#6c63ff"/>
  <path id="Tracé_66" data-name="Tracé 66" d="M600.983,727.426a4.772,4.772,0,0,1-1.687,3.107h0a5.939,5.939,0,0,1-7.77-.207l-6.477-6.206-.41.349,6.864,6.576a5.939,5.939,0,0,0,7.77.207h0A4.719,4.719,0,0,0,600.983,727.426Z" transform="translate(-328.443 -409.32)" opacity="0.2"/>
  <path id="Tracé_67" data-name="Tracé 67" d="M594.486,661.213a7.382,7.382,0,0,1-6.344,7.017,8.85,8.85,0,0,1-3.169,0,7.052,7.052,0,0,1,0-14.033,8.846,8.846,0,0,1,3.171,0A7.381,7.381,0,0,1,594.486,661.213Z" transform="translate(-326.026 -377.076)" fill="#6c63ff"/>
  <path id="Tracé_68" data-name="Tracé 68" d="M592.413,654.2v14.033a8.849,8.849,0,0,1-3.171,0V654.2A8.849,8.849,0,0,1,592.413,654.2Z" transform="translate(-330.295 -377.076)" opacity="0.2"/>
  <path id="Tracé_69" data-name="Tracé 69" d="M600.486,608.212a7.382,7.382,0,0,1-6.344,7.017,8.849,8.849,0,0,1-3.169,0,7.052,7.052,0,0,1,0-14.033,8.849,8.849,0,0,1,3.171,0,7.381,7.381,0,0,1,6.342,7.016Z" transform="translate(-328.44 -352.686)" fill="#6c63ff"/>
  <path id="Tracé_70" data-name="Tracé 70" d="M598.413,601.2v14.033a8.847,8.847,0,0,1-3.171,0V601.2A8.855,8.855,0,0,1,598.413,601.2Z" transform="translate(-332.709 -352.686)" opacity="0.2"/>
  <path id="Tracé_71" data-name="Tracé 71" d="M600.486,684.213a7.382,7.382,0,0,1-6.343,7.017,8.849,8.849,0,0,1-3.169,0,7.052,7.052,0,0,1,0-14.033,8.85,8.85,0,0,1,3.171,0,7.381,7.381,0,0,1,6.342,7.016Z" transform="translate(-328.44 -387.66)" fill="#6c63ff"/>
  <path id="Tracé_72" data-name="Tracé 72" d="M598.413,677.2v14.033a8.85,8.85,0,0,1-3.171,0V677.2A8.85,8.85,0,0,1,598.413,677.2Z" transform="translate(-332.709 -387.66)" opacity="0.2"/>
  <path id="Tracé_73" data-name="Tracé 73" d="M633.486,721.213a7.382,7.382,0,0,1-6.344,7.017,8.85,8.85,0,0,1-3.169,0,7.052,7.052,0,0,1,0-14.033,8.848,8.848,0,0,1,3.171,0A7.381,7.381,0,0,1,633.486,721.213Z" transform="translate(-341.716 -404.688)" fill="#6c63ff"/>
  <path id="Tracé_74" data-name="Tracé 74" d="M631.413,714.2v14.033a8.846,8.846,0,0,1-3.171,0V714.2A8.855,8.855,0,0,1,631.413,714.2Z" transform="translate(-345.985 -404.688)" opacity="0.2"/>
  <path id="Tracé_75" data-name="Tracé 75" d="M664.27,657.53a6.656,6.656,0,0,1,1.192,8.993,7.622,7.622,0,0,1-2.2,2.062,8.583,8.583,0,0,1-9.995-.745,6.658,6.658,0,0,1-1.192-8.993,7.625,7.625,0,0,1,2.2-2.062,8.581,8.581,0,0,1,9.995.745Z" transform="translate(-355.076 -377.753)" fill="#6c63ff"/>
  <path id="Tracé_76" data-name="Tracé 76" d="M655.107,657.86l11.187,9.738a7.623,7.623,0,0,1-2.2,2.062l-11.187-9.738A7.626,7.626,0,0,1,655.107,657.86Z" transform="translate(-355.907 -378.828)" opacity="0.2"/>
  <path id="Tracé_77" data-name="Tracé 77" d="M668.27,686.53a6.656,6.656,0,0,1,1.192,8.993,7.622,7.622,0,0,1-2.2,2.062,8.583,8.583,0,0,1-9.995-.745,6.658,6.658,0,0,1-1.192-8.993,7.624,7.624,0,0,1,2.2-2.062A8.581,8.581,0,0,1,668.27,686.53Z" transform="translate(-356.686 -391.099)" fill="#6c63ff"/>
  <path id="Tracé_78" data-name="Tracé 78" d="M659.106,686.86l11.187,9.738a7.621,7.621,0,0,1-2.2,2.062l-11.187-9.738A7.626,7.626,0,0,1,659.106,686.86Z" transform="translate(-357.517 -392.173)" opacity="0.2"/>
  <path id="Tracé_79" data-name="Tracé 79" d="M549.27,693.53a6.657,6.657,0,0,1,1.192,8.993,7.623,7.623,0,0,1-2.2,2.062,8.583,8.583,0,0,1-9.995-.745,6.658,6.658,0,0,1-1.192-8.993,7.626,7.626,0,0,1,2.2-2.062A8.581,8.581,0,0,1,549.27,693.53Z" transform="translate(-308.812 -394.32)" fill="#6c63ff"/>
  <path id="Tracé_80" data-name="Tracé 80" d="M540.107,693.86l11.187,9.738a7.624,7.624,0,0,1-2.2,2.062l-11.187-9.738A7.626,7.626,0,0,1,540.107,693.86Z" transform="translate(-309.642 -395.395)" opacity="0.2"/>
  <rect id="Rectangle_9" data-name="Rectangle 9" width="2.988" height="19.973" transform="translate(211.883 170.636)" opacity="0.2"/>
  <rect id="Rectangle_10" data-name="Rectangle 10" width="2.988" height="19.973" transform="translate(229.216 170.636)" opacity="0.2"/>
  <rect id="Rectangle_11" data-name="Rectangle 11" width="2.988" height="19.973" transform="translate(246.549 170.636)" opacity="0.2"/>
  <rect id="Rectangle_12" data-name="Rectangle 12" width="2.988" height="19.973" transform="translate(263.883 170.636)" opacity="0.2"/>
  <rect id="Rectangle_13" data-name="Rectangle 13" width="2.988" height="19.973" transform="translate(281.216 170.636)" opacity="0.2"/>
  <rect id="Rectangle_14" data-name="Rectangle 14" width="2.988" height="19.973" transform="translate(298.549 170.636)" opacity="0.2"/>
  <rect id="Rectangle_15" data-name="Rectangle 15" width="2.988" height="19.973" transform="translate(315.882 170.636)" opacity="0.2"/>
</svg>
